<svg id="Layer_1" data-name="Layer 1" xmlns="http://www.w3.org/2000/svg" viewBox="0 0 930.68 930.66"><defs><style>.cls-1{fill:#1b5e42;}.cls-2{fill:#fff;}</style></defs><path class="cls-1" d="M1005.34,551c0,257-208.34,465.33-465.33,465.33S74.66,808,74.66,551,283,85.67,540,85.67,1005.34,294,1005.34,551" transform="translate(-74.66 -85.67)"/><path class="cls-2" d="M877.14,551c0,186.21-150.95,337.14-337.14,337.14S202.87,737.21,202.87,551,353.82,213.86,540,213.86,877.14,364.81,877.14,551" transform="translate(-74.66 -85.67)"/><path class="cls-1" d="M405.82,377.93c-3.59,6.21-9.66,10.1-13.44,23.84-12.44,45.23,53.78,61.78,80.78,12.58,11.21-20.43-9.71-84.39,4.06-104.75-2.34-3.81-4.56-4.69-7.19-9.81-1.7-3.33-3.26-9.66-5.61-12.07-14.18,20.84-7.75,14-2.15,54,2.29,16.69,7.47,48.74,4,64.77-4.28,19.66-36.13,21.11-49.2,17.44-27.05-7.56-18-25.74-11.24-46M524.93,394c1.81-19.36-2.21-33.23-11.36-46.56-5.55-8.14-21-22.1-34.1-24.92-5.14,45.83,20,20.4,37,51.08,2.26,4.11,7.67,16.59,8.48,20.4m-67,46.57c.12.07.26.95,4.82,1.58a55.66,55.66,0,0,0,5.63.23c12.76.22,18.87-.33,31.67-4.18,35-10.48,42.91-36.71,51.27-69,1.52-5.89,2.81-15.1,4.62-20.46,1.35,5-.1,32.52,3.52,50.92,8.22,41.83,37.36,33,71.08,22.8,14.69-4.44,27.54-11.18,45.34-8.29L689.16,395c-32.43,1.25-37.31-10.22-59.77-19-11.14-4.37-21.55-5.85-30.17,2.12-6,5.54-12.59,14.06-14.88,24.49,6.93-4.58,13.43-11.51,26.44-10.24,11.24,1.07,18.43,6.11,27.45,9-1.74,3.07-3.32,3.58-7.25,5.51-9.69,4.78-20.36,5.92-31.28,6-20.24.09-25.31-1.11-30.43-18.84-6.47-22.58-1.52-59.37-7.18-78-1.85-6-1.66-3.45-5-7-14.05,41.58-7.71,83.1-58,114.35-8.22,5.06-29.47,16.5-41.13,17.32" transform="translate(-74.66 -85.67)"/><path class="cls-1" d="M420.71,691.68l63.53.16.14,19.38h-1.76s-2.05-10.39-10.72-13.85-15.29-2.53-28.92-2.53l-.05,26.4H453s6.95.72,10.55-3,5-6.15,5.34-8.08h1.31v28.09h-1.3s-1.18-10.87-9.74-13.15c0,0-3.62-1.11-12.05-1.11h-4.18l-.06,23.53s-.9,9.76,6.42,10.67l7.53,1.74v1.23H420.66v-1.23s8.12.15,10.25-3.65a18.15,18.15,0,0,0,1.88-8.59L432.52,702s-.09-8.76-8.52-8.76l-3.34-.15Z" transform="translate(-74.66 -85.67)"/><path class="cls-1" d="M649.7,693.42s.82,17.39,2.24,22.48h-1.42S647.26,701.05,634,696s-29.47-1-34.66,13.52-3.46,34.27,9.66,42.92,34.48,8.12,48.81-13.43l2.75,2.13s-11.91,18.11-27.87,21.16-32.27-1.57-42.26-15.39-8.14-38.67,10.38-50.26,34.8-3.4,44.66-3.4Z" transform="translate(-74.66 -85.67)"/><path class="cls-1" d="M511.82,719.15l-5.89-.31a12.77,12.77,0,0,0-1.33-3c-.61-.7-.51-2.85-.51-2.85a5.74,5.74,0,0,1,.41-3.14c.71-1.54,0-1.74.92-3.37A23.67,23.67,0,0,1,508,703l1.21.2,2.14-2.46h1.23s.76.41.83.24a1,1,0,0,0,.1-.29l4.24,0v2l3.44,3.48s.82.06.82-.71a2.23,2.23,0,0,1,.19-1.08l1.64.07,1.67,1.37,3.55-.11a12.48,12.48,0,0,0,1.18-2.54s.15-.56-.36-.56-.66-.16-.66-.16l-.41-.18h-2.68v-.77l.1-1.18.24-.39h2.44l.25-.46h1.37l.31.71.2.36h.51a1.48,1.48,0,0,1,1-.77,2.59,2.59,0,0,0,.82-.2A.82.82,0,0,0,533,699c-.41-.36-1.26-1-1.36-1.41a4,4,0,0,0-.16-.57l1-.41s.1-.6-.45-.49a4.33,4.33,0,0,0-1.33.65s-.1.1-.1.51v.56l-.34.41h-1l-.06-1.43s-.56-.26-.85-.11-.36,1.28-.72,1.39a1.6,1.6,0,0,0-1,1.21c0,.51-.25.61-.85.61a8.34,8.34,0,0,1-1,0l-.15,2.39-.7-.1-.82-1.78v-1.17c0-.61-1-1.73-1-1.73s-1.13-1.17-1-.3a6.42,6.42,0,0,0,.31,1.22l.46.7.21.36-.11.36-.51-.2a2.44,2.44,0,0,0-.15.76v.45H521v-1l-.66-.72-.55-.7-.2-.56s.34-.41,0-.46a10,10,0,0,0-1.34,0l-.3.16s-.14.25-.5-.06A1.8,1.8,0,0,1,517,697s0-.15-.26.1-.25,1-.71,1a8.32,8.32,0,0,0-1.11.1s0-.1,0,.34v.87c0,.36.31.51,0,.56s-2.39.06-2.39.06l-.56-.31-.4-.67c0-.46,1.37-1.31,1.37-1.31a8.6,8.6,0,0,0,.15-1.23,2,2,0,0,1,.41-.9l.65-.11.77.46s.71.52,1,0a2.22,2.22,0,0,1,1.18-.76v-1.32s.15-.87.82-.87,1.16-.31,1.62-.31,1,.21,1.21-.3,1.57-.4,1.57-.4l.12-.88.27-.28.21-.25h.26v1.55a6.33,6.33,0,0,0,1.62.22c.74,0,1,0,1.32-.38s.63-1.39,1.07-1.72,2.12,0,2.12,0,.31-.43-.22-.41a11.21,11.21,0,0,1-1.42,0l.17-1a2.41,2.41,0,0,1,.56-.63,6.06,6.06,0,0,1,.76-.48s.3-.27.15-.53-1.16-.51-1.33.1a4,4,0,0,1-1.2,1.37,3.88,3.88,0,0,1-.76,1.72,3.78,3.78,0,0,1-1.85,1c-.25,0,0-1.77-.37-1.69a4,4,0,0,1-.6.09s-.27,0,.2-.75.52-1,.48-1.1.29-.2.7-.2a8.43,8.43,0,0,0,3.28-1.42,2,2,0,0,1,1.57-.85,3.4,3.4,0,0,1,2.29.44c.56.52.85.36.71.77a.59.59,0,0,1-.61.36v1.23s1.16.24,1.31-.41.31-.77.31-.77a8.48,8.48,0,0,0,2.49-.87,1,1,0,0,0,.41-.9h2.18l.21-1.28s.85.2.8.92a4.91,4.91,0,0,0,0,1.21s.62.51,1.08.1-.16-1.21-.46-1.52-.57-.25-.41-1.31a2.19,2.19,0,0,1,.61-1.43l1.78-.26s0,1.07.56,1.07.55-.81.55-.81,2.08-.11.87-1.11a12,12,0,0,1-1.52-1.42h0a34,34,0,0,1,17.49,12.39l-.27.87a7,7,0,0,0,.51,2.8c.51.71,2.09,2.6,2.09,2.6s1.38,1.05,1.38,1.82a4.54,4.54,0,0,0,.2,1.32l.65.2s.41-.41.61.31a3.39,3.39,0,0,1,.21,1.41c-.05.26-.77-.46-.82.26s0,2.59-.65,2.65-1-.26-1,.51-.1,1.93.56,2.32a3.12,3.12,0,0,1,1.37,2.39c.05,1.07-.1,3.26-.36,3.41s-1.42-1.83-1.42-1.83-.87-.51-.76.45a4.12,4.12,0,0,0,.66,2.39c.56.77,2.08,2.49,1.42,3.36A22.11,22.11,0,0,1,562,715.8a15.18,15.18,0,0,1-.81-3.65A3.2,3.2,0,0,0,560,710a7,7,0,0,1-1.63-1.87s-.25-.57-1,.82-3.42,4.25-3.31,5.63.76,2.68-.16,3.65-1.52-.2-2.44-1.47-1.46-4.57-1.46-4.57a1.38,1.38,0,0,0-1-1.18,17.64,17.64,0,0,1-2.73-1.72l-2.25.07h-2.26c-.32,0-.56.6-1.41.29a13.38,13.38,0,0,1-2.84-2.3s-1-.26-.46.58a21.26,21.26,0,0,0,1.54,2,1.75,1.75,0,0,0,1.13.63,3.38,3.38,0,0,1,1.89.12c.84.38,1,.63.77,1.51s-.55,2.78-1.52,3.25a49.67,49.67,0,0,1-5.38,1.46,1.69,1.69,0,0,1-2-.47c-.71-1-.17-1.51-1.89-4.38l-1.52-3.26s-1.13-1-1.18-.09,2.19,6.16,2.19,6.16a2.89,2.89,0,0,0,1.14,1.66c.9.58,1.4.53,1.74,1.47a1.47,1.47,0,0,0,1.57.8c.14,0,1.76-.46,1.76-.46s1.06-.39.49,1-.9,4.59-3,6.08a12.87,12.87,0,0,0-2.84,2.47,2.4,2.4,0,0,0-.66,2.34c.36,1.48,1.31,3.67.15,5L530,736.3a1.12,1.12,0,0,0-.64,1.09c0,.87.1,1.3-.5,2s-3.19,2.88-3.19,2.88a2,2,0,0,1-1.52.48h-1.62s-.63-.78-1.62-2.3-4.68-5.89-4.68-5.89a.63.63,0,0,1-.21-.87.69.69,0,0,1,.11-.13c.46-.62.46-.72.46-1v-2.9s-1.26-.24-1.26-1.21a5.15,5.15,0,0,0-.87-2.71,3.07,3.07,0,0,1-.74-1.83c.07-.39.81-.6.21-2l-.62-1.42s-1.31.38-1.36-.21a6.31,6.31,0,0,1,0-.87Z" transform="translate(-74.66 -85.67)"/><path class="cls-1" d="M537.61,697.88s.87,0,.71-.67-1.23-.75-1.87-.3-.57,1.77-.47,2.39,1.32.4,1.06,1.53-.59.1-.49,1.72a1.11,1.11,0,0,0,.85.4,11.78,11.78,0,0,1,1.57.17.91.91,0,0,0,0-1.23c-.49-.72-1.06-1.06-.49-1.47s.54-1.18,0-1.12-1.38-.7-1.38-.7-.55-.82.41-.72" transform="translate(-74.66 -85.67)"/><path class="cls-1" d="M540.6,696.56s.41.25.46-.21.72-.25.6.46a2.45,2.45,0,0,0,.05,1.11s.26.67-.39.67-1-.77-1-.77-.67-1.26.25-1.26" transform="translate(-74.66 -85.67)"/><path class="cls-1" d="M551.88,688.18a9.51,9.51,0,0,0,.61,1.72,1.32,1.32,0,0,0,1,.77.75.75,0,0,0,.13-1l-.13-.13a14.42,14.42,0,0,1-1.06-1.41s-.2-.41-.61.1" transform="translate(-74.66 -85.67)"/><path class="cls-1" d="M527.19,725.28l-.05,1.3s.15.36.46.32.42,0,.42-.47V725Z" transform="translate(-74.66 -85.67)"/><path class="cls-1" d="M534.71,735l1.64-1.4s.6-.44,1.07-.17.52.51.07,1.54-1.24,1.53-1.48,2.8-.57,1.79-.94,2-1,.06-1.08-.84a11.29,11.29,0,0,1,.19-2.39c.05-.2.53-1.52.53-1.52" transform="translate(-74.66 -85.67)"/><rect class="cls-1" x="465.59" y="651.79" width="0.41" height="0.41"/><polygon class="cls-1" points="466.85 651.81 467.28 651.81 467.28 651.43 466.85 651.4 466.85 651.81"/><path class="cls-1" d="M555,718a.77.77,0,0,1-.22.46,1.13,1.13,0,0,0-.29.74v.39s0,.55.31.41,0-.41.32-.41.36-.5.36-.5l0-.76s-.07-.55-.53-.33" transform="translate(-74.66 -85.67)"/><path class="cls-1" d="M561.79,719.33s1,.32,1.21,1a7.21,7.21,0,0,0,.43,1.26,1.4,1.4,0,0,0,1.28.74c.34,0,.63-.7.43-1.25a9.5,9.5,0,0,0-1.66-1.81,4.15,4.15,0,0,1-.73-.72,1,1,0,0,0-.79-.32s-.73-.19-.75.17.58.89.58.89" transform="translate(-74.66 -85.67)"/><path class="cls-1" d="M566.3,723.69l-1.53-.16a.51.51,0,0,1,.05-.32,1.12,1.12,0,0,1,.73-.63,4.21,4.21,0,0,1,1-.19Z" transform="translate(-74.66 -85.67)"/><path class="cls-1" d="M566.73,720.87a1.66,1.66,0,0,1-.58-1.19,27.25,27.25,0,0,1,.26-3.72s.43-1.25.84-1.19l-.19,4.53a4.69,4.69,0,0,1-.33,1.57" transform="translate(-74.66 -85.67)"/><path class="cls-1" d="M516.53,684.62a27.52,27.52,0,0,1,5.63-3.55c3.21-1.48,6.16-1.77,6.86-1.43s1.18.82.41,1.28-4.57,2-4.57,2a7.56,7.56,0,0,1-2.89.61c-1.58,0-2.54-.56-3.46.26a3.53,3.53,0,0,1-2,.85" transform="translate(-74.66 -85.67)"/><path class="cls-1" d="M520.63,684.9s-.14.33-.36.36-.75,0-.8.36.25.44.64.44.93,0,1-.36.14-.92-.1-.92a.73.73,0,0,0-.41.12" transform="translate(-74.66 -85.67)"/><path class="cls-1" d="M517.53,690.1s-.37-.36-.8.37-.08.77-.6.94a.38.38,0,0,0,.52.37,1.46,1.46,0,0,0,.9-.54s.51-.43.46-.84-.49-.29-.48-.3" transform="translate(-74.66 -85.67)"/><path class="cls-1" d="M517.46,692.15h.91a1.34,1.34,0,0,0,.71-.31c.33-.29.33-1.19.33-1.19l.1-.79s.43-.46.58-.66-.32-.43-.73-.21-.28.16-.38.62.07,1-.17,1.29-.34.53-.51.63-.94-.25-.84.64" transform="translate(-74.66 -85.67)"/><path class="cls-1" d="M529.77,682.29l.26-.41s.15-.25.36-.25.37-.18.42,0a1.77,1.77,0,0,1,.05.51.45.45,0,0,1-.2.41c-.15.12-.17.05-.32.17s0,.2-.24.2h-.38a.46.46,0,0,1,0-.63" transform="translate(-74.66 -85.67)"/><polygon class="cls-1" points="443.99 612.64 444.01 613.03 444.39 613.03 444.39 612.64 443.99 612.64"/><polygon class="cls-1" points="443.99 613.47 443.99 613.95 443.55 613.95 443.64 614.25 444.35 614.25 444.35 613.42 443.99 613.47"/><path class="cls-1" d="M519.71,701.17h.74s.17-.09.17.25-.17.46-.33.46-.22-.3-.41-.3-.17-.41-.17-.41" transform="translate(-74.66 -85.67)"/><path class="cls-1" d="M528.45,703.52s.75-.18.79.13a.34.34,0,0,1-.29.38h-.1c-.19,0-.4-.51-.4-.51" transform="translate(-74.66 -85.67)"/><path class="cls-1" d="M533.61,750.93c-18.72,0-33.9-16.32-33.9-36.42s15.18-36.42,33.9-36.42,33.87,16.3,33.87,36.42-15.17,36.42-33.87,36.42m30.48-69.71c-11.69-7.94-29.08-8.35-29.08-8.35-22.17,0-36.1,9.27-43,19.83a40.85,40.85,0,0,0-2.75,38.54c5.89,12.61,18.71,21,33.55,23.8s28.67-1.64,28.67-1.64c23.9-8,30-23.68,30.4-38.12s-6.09-26.13-17.78-34.06" transform="translate(-74.66 -85.67)"/><path class="cls-1" d="M484.18,761.71l-2.39-2.8s11-7.34,27.39-5.39,32.05,12.06,45.07,11.86,18.52-5.5,21.58-9.56l3,3.45s-9.14,11.4-19.52,14-19.74,1.63-33.18-5.9-24-12.2-32.95-9.35-9,3.65-9,3.65" transform="translate(-74.66 -85.67)"/><rect class="cls-1" x="346.52" y="690.09" width="238.07" height="21.57"/><path class="cls-2" d="M432.91,783.3V787h.28a2.84,2.84,0,0,0,1-.17,1.75,1.75,0,0,0,.64-.6,2.75,2.75,0,0,0,.35-1.15h.23v4.48h-.23a2.31,2.31,0,0,0-.7-1.68,2.17,2.17,0,0,0-1.28-.41h-.28v2.73a2.5,2.5,0,0,0,.09.86.68.68,0,0,0,.29.29,1.29,1.29,0,0,0,.61.13h.31v.24h-4.78v-.24h.31a1.37,1.37,0,0,0,.63-.13.59.59,0,0,0,.27-.33,2.51,2.51,0,0,0,.07-.82v-5.85a2.7,2.7,0,0,0-.07-.85.6.6,0,0,0-.3-.29,1.13,1.13,0,0,0-.6-.14h-.31v-.24h7.72v2.56h-.28a2.52,2.52,0,0,0-.49-1.35,2.27,2.27,0,0,0-1.11-.59,6.85,6.85,0,0,0-1.5-.11Z" transform="translate(-74.66 -85.67)"/><path class="cls-2" d="M442.61,791.44v.24h-4.78v-.24h.31a1.37,1.37,0,0,0,.63-.13A.64.64,0,0,0,439,791a2.28,2.28,0,0,0,.09-.82v-5.85a2.44,2.44,0,0,0-.09-.85.67.67,0,0,0-.31-.29,1.1,1.1,0,0,0-.59-.14h-.31v-.24h4.78V783h-.31a1.24,1.24,0,0,0-.63.14.53.53,0,0,0-.27.32,2.28,2.28,0,0,0-.09.82v5.85a2.5,2.5,0,0,0,.09.86.65.65,0,0,0,.3.29,1.25,1.25,0,0,0,.6.13Z" transform="translate(-74.66 -85.67)"/><path class="cls-2" d="M446.59,783.28v3.89H447a4.53,4.53,0,0,0,1.42-.17,1.35,1.35,0,0,0,.71-.6,2.06,2.06,0,0,0,.28-1.14,2,2,0,0,0-.5-1.5,2.08,2.08,0,0,0-1.57-.48Zm0,4.35v2.49a2.79,2.79,0,0,0,.09.91.67.67,0,0,0,.32.3,2.29,2.29,0,0,0,.86.11v.25h-4.68v-.25a2.29,2.29,0,0,0,.86-.11.84.84,0,0,0,.32-.3,3.09,3.09,0,0,0,.08-.91v-5.77a3,3,0,0,0-.08-.9.74.74,0,0,0-.32-.31,2.51,2.51,0,0,0-.86-.1v-.26h4.25a9,9,0,0,1,2.42.24,2.41,2.41,0,0,1,1.27.82,2.16,2.16,0,0,1,.48,1.4,2,2,0,0,1-.74,1.64,3.29,3.29,0,0,1-1.3.6l2.21,3a4.58,4.58,0,0,0,.61.71,1,1,0,0,0,.63.23v.25h-2.87l-2.95-4.06Z" transform="translate(-74.66 -85.67)"/><path class="cls-2" d="M459.38,782.59l.07,3h-.27a3,3,0,0,0-1-1.81,2.49,2.49,0,0,0-1.66-.67,1.6,1.6,0,0,0-1.09.36,1,1,0,0,0-.39.82.9.9,0,0,0,.14.53,2,2,0,0,0,.63.6,11.16,11.16,0,0,0,1.45.77,6.77,6.77,0,0,1,2.17,1.45,2.38,2.38,0,0,1,.56,1.57,2.48,2.48,0,0,1-.91,1.91,3.2,3.2,0,0,1-2.27.8,2.69,2.69,0,0,1-.8-.09,4.48,4.48,0,0,1-1-.32,1.41,1.41,0,0,0-.53-.12.63.63,0,0,0-.37.12,1,1,0,0,0-.31.41h-.26v-3.36h.26a3.63,3.63,0,0,0,1.14,2.16,2.65,2.65,0,0,0,1.81.74A1.75,1.75,0,0,0,458,791a1.28,1.28,0,0,0,.45-.94,1.16,1.16,0,0,0-.17-.6,2,2,0,0,0-.53-.56,7.49,7.49,0,0,0-1.23-.7,10.79,10.79,0,0,1-1.79-1,3,3,0,0,1-.84-.94,2.17,2.17,0,0,1-.31-1.14,2.4,2.4,0,0,1,.8-1.81,2.9,2.9,0,0,1,2-.75,3.47,3.47,0,0,1,.85.1,4.3,4.3,0,0,1,.78.29,1.87,1.87,0,0,0,.64.22.31.31,0,0,0,.27-.12,1,1,0,0,0,.19-.49Z" transform="translate(-74.66 -85.67)"/><path class="cls-2" d="M469.29,782.79v2.4h-.24a4.25,4.25,0,0,0-.48-1.19,1.88,1.88,0,0,0-.73-.58,2.23,2.23,0,0,0-.89-.12h-.68v6.86a3,3,0,0,0,.06.85.67.67,0,0,0,.31.29,1,1,0,0,0,.62.14h.3v.24h-4.78v-.24h.31a1.24,1.24,0,0,0,.63-.14.68.68,0,0,0,.28-.3,2.52,2.52,0,0,0,.08-.82V783.3h-.66a2,2,0,0,0-1.35.38,2.5,2.5,0,0,0-.74,1.51h-.25v-2.4Z" transform="translate(-74.66 -85.67)"/><path class="cls-2" d="M478.39,783.09a2,2,0,0,0-1.87,1.22,6.16,6.16,0,0,0-.55,2.93,5.64,5.64,0,0,0,.82,3.38,2,2,0,0,0,2.8.39,1.8,1.8,0,0,0,.39-.39,5.25,5.25,0,0,0,.84-3.25,6.86,6.86,0,0,0-.52-3.1,2.07,2.07,0,0,0-1.91-1.2m1.2,8.67a2.49,2.49,0,0,0,1,1.32,2.81,2.81,0,0,0,1.62.44h.58v.39a7.47,7.47,0,0,1-1.82.26,4.4,4.4,0,0,1-2.24-.6,3.76,3.76,0,0,1-1.49-1.76,4.45,4.45,0,0,1-2.67-1.58,4.53,4.53,0,0,1-1-3,4.42,4.42,0,0,1,1.36-3.31,4.87,4.87,0,0,1,3.5-1.33,4.74,4.74,0,0,1,3.48,1.33,4.43,4.43,0,0,1,1.37,3.31,4.57,4.57,0,0,1-1.08,3,4.25,4.25,0,0,1-2.57,1.52" transform="translate(-74.66 -85.67)"/><path class="cls-2" d="M484.05,782.79h4.71V783h-.22a1.56,1.56,0,0,0-.74.12.58.58,0,0,0-.29.29,3.36,3.36,0,0,0-.08,1v4.35a4.27,4.27,0,0,0,.19,1.59,1.43,1.43,0,0,0,.61.63,2,2,0,0,0,1.08.26,2.25,2.25,0,0,0,1.26-.33,2.08,2.08,0,0,0,.78-.88,5.41,5.41,0,0,0,.26-2v-3.62a1.91,1.91,0,0,0-.14-.85.7.7,0,0,0-.32-.36,1.91,1.91,0,0,0-.85-.15v-.24h3.15V783h-.18a1.21,1.21,0,0,0-.64.15.93.93,0,0,0-.37.46,2.37,2.37,0,0,0-.09.75v3.38A9,9,0,0,1,492,790a2.58,2.58,0,0,1-1,1.28,3.83,3.83,0,0,1-2.26.6,4.21,4.21,0,0,1-1.82-.31,2.71,2.71,0,0,1-1.25-1.07,3.78,3.78,0,0,1-.37-1.78v-4.35a2.54,2.54,0,0,0-.09-1,.58.58,0,0,0-.29-.29,1.82,1.82,0,0,0-.8-.12Z" transform="translate(-74.66 -85.67)"/><path class="cls-2" d="M499.22,788.67l-1.37-3.07-1.4,3.07Zm.22.48h-3.23l-.39.87a2,2,0,0,0-.19.72.57.57,0,0,0,.33.54,2.74,2.74,0,0,0,.89.16v.24h-3v-.24a1.23,1.23,0,0,0,.8-.4,5,5,0,0,0,.79-1.34l3.27-7.09h.12l3.29,7.29a4.82,4.82,0,0,0,.79,1.3,1.08,1.08,0,0,0,.65.24v.24H499.1v-.24h.17a1.48,1.48,0,0,0,.75-.14.35.35,0,0,0,.15-.31.64.64,0,0,0-.05-.24,4.14,4.14,0,0,0-.19-.49Z" transform="translate(-74.66 -85.67)"/><path class="cls-2" d="M512.38,788.56l-.34,3.12h-8.12v-.23h.31a1.42,1.42,0,0,0,.64-.14.57.57,0,0,0,.26-.33,2.22,2.22,0,0,0,.09-.81v-5.86a2.44,2.44,0,0,0-.09-.85.58.58,0,0,0-.29-.29,1.19,1.19,0,0,0-.61-.14h-.31v-.24h4.88V783h-.39a1.32,1.32,0,0,0-.65.14.65.65,0,0,0-.27.32,2.28,2.28,0,0,0-.09.82V790a2.56,2.56,0,0,0,.09.87.51.51,0,0,0,.32.27,2.39,2.39,0,0,0,.8.07h.77a2.43,2.43,0,0,0,1.21-.26,2,2,0,0,0,.84-.78,6.2,6.2,0,0,0,.68-1.59Z" transform="translate(-74.66 -85.67)"/><path class="cls-2" d="M517.93,791.44v.24h-4.78v-.24h.31a1.37,1.37,0,0,0,.63-.13.64.64,0,0,0,.28-.33,2.84,2.84,0,0,0,.06-.82v-5.85a3,3,0,0,0-.06-.85.67.67,0,0,0-.31-.29,1.13,1.13,0,0,0-.6-.14h-.31v-.24h4.78V783h-.31a1.26,1.26,0,0,0-.63.14.65.65,0,0,0-.29.32,3.78,3.78,0,0,0-.06.82v5.85a2.76,2.76,0,0,0,.08.86.68.68,0,0,0,.29.29,1.29,1.29,0,0,0,.61.13Z" transform="translate(-74.66 -85.67)"/><path class="cls-2" d="M527,782.79v2.4h-.24a4.25,4.25,0,0,0-.48-1.19,1.88,1.88,0,0,0-.73-.58,2.23,2.23,0,0,0-.89-.12H524v6.86a2.7,2.7,0,0,0,.08.85.58.58,0,0,0,.29.29,1.07,1.07,0,0,0,.63.14h.29v.24H520.5v-.24h.3a1.24,1.24,0,0,0,.63-.14.59.59,0,0,0,.28-.32,2.52,2.52,0,0,0,.08-.82V783.3h-.66a2,2,0,0,0-1.35.38,2.48,2.48,0,0,0-.73,1.51h-.26v-2.4Z" transform="translate(-74.66 -85.67)"/><path class="cls-2" d="M537.27,782.79V783a1.73,1.73,0,0,0-.7.25,7.1,7.1,0,0,0-1.05,1.5l-2,3.23v2.15a2.43,2.43,0,0,0,.07.85.58.58,0,0,0,.29.29,1.06,1.06,0,0,0,.58.14H535v.24h-5.12v-.24h.48a1.24,1.24,0,0,0,.63-.14.53.53,0,0,0,.27-.32,1.89,1.89,0,0,0,.09-.82v-1.79l-2.15-3.81a6,6,0,0,0-.91-1.33,1.32,1.32,0,0,0-.7-.2v-.24H532V783h-.21a.85.85,0,0,0-.54.12.26.26,0,0,0-.17.24,3.89,3.89,0,0,0,.54,1.17l1.66,3,1.63-2.68a3.73,3.73,0,0,0,.62-1.32.34.34,0,0,0-.17-.29,2,2,0,0,0-.85-.2v-.24Z" transform="translate(-74.66 -85.67)"/><path class="cls-2" d="M549.58,782.59v3.07h-.25a3.3,3.3,0,0,0-1.11-1.84,3,3,0,0,0-1.85-.65,2.75,2.75,0,0,0-1.57.49,2.92,2.92,0,0,0-1,1.25,5.93,5.93,0,0,0-.42,2.2,7.25,7.25,0,0,0,.3,2.17,2.91,2.91,0,0,0,1,1.48,2.71,2.71,0,0,0,1.72.52,3.17,3.17,0,0,0,1.57-.38,5.41,5.41,0,0,0,1.52-1.26v.76a4.53,4.53,0,0,1-1.61,1.13,4.78,4.78,0,0,1-1.94.36,5.52,5.52,0,0,1-2.59-.58,4.11,4.11,0,0,1-1.76-1.62,4.56,4.56,0,0,1,.07-4.7,4.74,4.74,0,0,1,1.84-1.77,5,5,0,0,1,2.47-.63,5.5,5.5,0,0,1,2,.41,3.78,3.78,0,0,0,.81.24.52.52,0,0,0,.37-.16.9.9,0,0,0,.21-.49Z" transform="translate(-74.66 -85.67)"/><path class="cls-2" d="M554.1,783.3v3.62h.19a1.46,1.46,0,0,0,1.26-.53,3.46,3.46,0,0,0,.5-1.57h.25v4.66h-.25a3.59,3.59,0,0,0-.35-1.24,1.33,1.33,0,0,0-.61-.65,2.14,2.14,0,0,0-1-.17v2.51a2.89,2.89,0,0,0,.07.88.51.51,0,0,0,.24.28,1.21,1.21,0,0,0,.56.1h.55a3.26,3.26,0,0,0,2-.58,3.11,3.11,0,0,0,1.11-1.76h.26l-.41,2.83h-7.9v-.24h.31a1.51,1.51,0,0,0,.63-.13.67.67,0,0,0,.27-.33,2.51,2.51,0,0,0,.07-.82v-5.85a3,3,0,0,0,0-.73.58.58,0,0,0-.23-.36,1.23,1.23,0,0,0-.7-.19h-.31v-.24h7.64v2.63H558a3.14,3.14,0,0,0-.55-1.38,2.1,2.1,0,0,0-1-.62,5.57,5.57,0,0,0-1.41-.12Z" transform="translate(-74.66 -85.67)"/><path class="cls-2" d="M563.21,783.28v3.89h.4A4.35,4.35,0,0,0,565,787a1.54,1.54,0,0,0,.73-.6,2.25,2.25,0,0,0,.26-1.14,2,2,0,0,0-.5-1.5,2.08,2.08,0,0,0-1.57-.48Zm0,4.35v2.49a2.79,2.79,0,0,0,.09.91.67.67,0,0,0,.32.3,2.29,2.29,0,0,0,.86.11v.25H559.8v-.25a2.21,2.21,0,0,0,.85-.11.74.74,0,0,0,.33-.3,3.09,3.09,0,0,0,.08-.91v-5.77a3,3,0,0,0-.08-.9.66.66,0,0,0-.33-.31,2.21,2.21,0,0,0-.85-.1v-.26h4.25a9,9,0,0,1,2.42.24,2.41,2.41,0,0,1,1.27.82,2.16,2.16,0,0,1,.48,1.4,2.06,2.06,0,0,1-.74,1.64,3.29,3.29,0,0,1-1.3.6l2.21,3a4.58,4.58,0,0,0,.61.71,1,1,0,0,0,.63.23v.25h-2.87l-3-4.06Z" transform="translate(-74.66 -85.67)"/><path class="cls-2" d="M577.74,782.79v2.4h-.24A4,4,0,0,0,577,784a1.88,1.88,0,0,0-.73-.58,2.07,2.07,0,0,0-.89-.12h-.68v6.86a2.7,2.7,0,0,0,.08.85.58.58,0,0,0,.29.29,1.1,1.1,0,0,0,.64.14H576v.24h-4.78v-.24h.3a1.3,1.3,0,0,0,.64-.14.65.65,0,0,0,.27-.32,2.52,2.52,0,0,0,.08-.82V783.3h-.66a2,2,0,0,0-1.35.38,2.48,2.48,0,0,0-.73,1.51h-.26v-2.4Z" transform="translate(-74.66 -85.67)"/><path class="cls-2" d="M583.29,791.44v.24h-4.77v-.24h.3a1.37,1.37,0,0,0,.63-.13.64.64,0,0,0,.28-.33,2.51,2.51,0,0,0,.07-.82v-5.85a2.7,2.7,0,0,0-.07-.85.67.67,0,0,0-.31-.29,1.13,1.13,0,0,0-.6-.14h-.3v-.24h4.77V783H583a1.24,1.24,0,0,0-.63.14.6.6,0,0,0-.29.32,2.82,2.82,0,0,0-.07.82v5.85a2.76,2.76,0,0,0,.08.86.81.81,0,0,0,.29.29,1.33,1.33,0,0,0,.62.13Z" transform="translate(-74.66 -85.67)"/><path class="cls-2" d="M587.41,783.3V787h.27a2.84,2.84,0,0,0,1-.17,1.71,1.71,0,0,0,.65-.6,2.89,2.89,0,0,0,.34-1.15h.24v4.48h-.24a2.27,2.27,0,0,0-.7-1.68,2.17,2.17,0,0,0-1.28-.41h-.27v2.73a2.76,2.76,0,0,0,.08.86.81.81,0,0,0,.29.29,1.33,1.33,0,0,0,.62.13h.3v.24h-4.77v-.24h.3a1.37,1.37,0,0,0,.63-.13.64.64,0,0,0,.28-.33,2.51,2.51,0,0,0,.07-.82v-5.85a2.7,2.7,0,0,0-.07-.85.67.67,0,0,0-.31-.29,1.13,1.13,0,0,0-.6-.14h-.3v-.24h7.71v2.56h-.27a2.45,2.45,0,0,0-.5-1.35,2.27,2.27,0,0,0-1.11-.59,6.85,6.85,0,0,0-1.5-.11Z" transform="translate(-74.66 -85.67)"/><path class="cls-2" d="M597.1,791.44v.24h-4.78v-.24h.31a1.37,1.37,0,0,0,.63-.13.64.64,0,0,0,.28-.33,2.84,2.84,0,0,0,.06-.82v-5.85a3,3,0,0,0-.06-.85.67.67,0,0,0-.31-.29,1.13,1.13,0,0,0-.6-.14h-.31v-.24h4.78V783h-.31a1.26,1.26,0,0,0-.63.14.65.65,0,0,0-.29.32,3.78,3.78,0,0,0-.06.82v5.85a2.76,2.76,0,0,0,.08.86.67.67,0,0,0,.31.29,1.21,1.21,0,0,0,.59.13Z" transform="translate(-74.66 -85.67)"/><path class="cls-2" d="M606.64,782.59v3.07h-.26a3.35,3.35,0,0,0-1.11-1.84,2.93,2.93,0,0,0-1.84-.65,2.89,2.89,0,0,0-2.61,1.74,5.53,5.53,0,0,0-.43,2.2,6.91,6.91,0,0,0,.31,2.17,2.61,2.61,0,0,0,2.69,2,3.17,3.17,0,0,0,1.57-.38,5.41,5.41,0,0,0,1.52-1.26v.76a4.62,4.62,0,0,1-1.6,1.13,4.89,4.89,0,0,1-2,.36,5.52,5.52,0,0,1-2.59-.58,4.06,4.06,0,0,1-1.76-1.62,4.6,4.6,0,0,1,.07-4.7,4.74,4.74,0,0,1,1.84-1.77,5,5,0,0,1,2.48-.63,6,6,0,0,1,2,.41,3.86,3.86,0,0,0,.8.24.52.52,0,0,0,.37-.16.9.9,0,0,0,.21-.49Z" transform="translate(-74.66 -85.67)"/><path class="cls-2" d="M612.91,788.67l-1.36-3.07-1.42,3.07Zm.22.48h-3.22l-.39.87a2,2,0,0,0-.19.72.58.58,0,0,0,.31.54,2.75,2.75,0,0,0,.9.16v.24h-3v-.24a1.23,1.23,0,0,0,.8-.4,5.49,5.49,0,0,0,.79-1.34l3.26-7.09h.14l3.29,7.29a4.78,4.78,0,0,0,.78,1.3,1.1,1.1,0,0,0,.65.24v.24h-4.43v-.24H613a1.48,1.48,0,0,0,.75-.14.34.34,0,0,0,.16-.31,1,1,0,0,0,0-.24,4.25,4.25,0,0,0-.21-.49Z" transform="translate(-74.66 -85.67)"/><path class="cls-2" d="M625.05,782.79v2.4h-.24a4.25,4.25,0,0,0-.48-1.19,1.88,1.88,0,0,0-.73-.58,2.23,2.23,0,0,0-.89-.12H622v6.86a2.44,2.44,0,0,0,.09.85.58.58,0,0,0,.29.29,1.07,1.07,0,0,0,.63.14h.29v.24h-4.78v-.24h.31a1.24,1.24,0,0,0,.63-.14.59.59,0,0,0,.28-.32,2.52,2.52,0,0,0,.08-.82V783.3h-.66a2,2,0,0,0-1.35.38,2.5,2.5,0,0,0-.74,1.51h-.25v-2.4Z" transform="translate(-74.66 -85.67)"/><path class="cls-2" d="M630.6,791.44v.24h-4.78v-.24h.31a1.37,1.37,0,0,0,.63-.13A.57.57,0,0,0,627,791a2.25,2.25,0,0,0,.09-.82v-5.85a2.44,2.44,0,0,0-.09-.85.65.65,0,0,0-.3-.29,1.13,1.13,0,0,0-.6-.14h-.31v-.24h4.78V783h-.31a1.26,1.26,0,0,0-.63.14.65.65,0,0,0-.29.32,3.21,3.21,0,0,0-.07.82v5.85a2.5,2.5,0,0,0,.09.86.67.67,0,0,0,.31.29,1.21,1.21,0,0,0,.59.13Z" transform="translate(-74.66 -85.67)"/><path class="cls-2" d="M636.34,783.09a2.08,2.08,0,0,0-1.92,1.25,6.55,6.55,0,0,0-.53,2.93,5.7,5.7,0,0,0,.82,3.37,1.91,1.91,0,0,0,1.61.76,2,2,0,0,0,1.16-.34,2.64,2.64,0,0,0,.92-1.33,7.29,7.29,0,0,0,.34-2.41,7.86,7.86,0,0,0-.34-2.64,2.45,2.45,0,0,0-.87-1.23,2,2,0,0,0-1.19-.36m-.09-.42a4.6,4.6,0,0,1,3.55,1.24,4.39,4.39,0,0,1,1.36,3.29,4.59,4.59,0,0,1-1,3,4.54,4.54,0,0,1-3.8,1.71,4.59,4.59,0,0,1-4.88-4.28c0-.13,0-.27,0-.4a4.5,4.5,0,0,1,4.8-4.53" transform="translate(-74.66 -85.67)"/><path class="cls-2" d="M645.09,782.79l4.51,5.51v-3.82a1.7,1.7,0,0,0-.24-1.08,1.29,1.29,0,0,0-1.07-.37v-.24h3V783a3,3,0,0,0-.79.18.77.77,0,0,0-.31.38,2.7,2.7,0,0,0-.12.89v7.4h-.22l-6.17-7.4v5.66a1.17,1.17,0,0,0,.35,1,1.27,1.27,0,0,0,.82.27h.22v.24h-3.24v-.24a1.45,1.45,0,0,0,1.06-.31,1.38,1.38,0,0,0,.29-1v-6.28l-.19-.24a1.87,1.87,0,0,0-.51-.46,1.61,1.61,0,0,0-.65-.13v-.24Z" transform="translate(-74.66 -85.67)"/><path class="cls-1" d="M653.81,767.57h.34a.86.86,0,0,0,.66-.27,1.1,1.1,0,0,0,.28-.77,1,1,0,0,0-.26-.73,1.11,1.11,0,0,0-.8-.26h-.22Zm-1.71-2.24h2.15a3.09,3.09,0,0,1,1.5.24,1.13,1.13,0,0,1,.6,1,1.09,1.09,0,0,1-.26.71,1.51,1.51,0,0,1-.8.48l.82,1.43a1.68,1.68,0,0,0,.36.48.64.64,0,0,0,.26.1V770h-1.44l-1.21-2.11h-.27V769a1,1,0,0,0,.13.63.92.92,0,0,0,.58.15V770H652v-.19a.83.83,0,0,0,.46-.11,1.12,1.12,0,0,0,.15-.67V766.3a1.12,1.12,0,0,0-.1-.6.63.63,0,0,0-.43-.17Zm2.25-1.21a4.08,4.08,0,0,0-1.81.46,3.46,3.46,0,0,0-1.38,1.33,3.5,3.5,0,0,0,0,3.57,3.5,3.5,0,0,0,1.37,1.33,3.71,3.71,0,0,0,3.65,0,3.35,3.35,0,0,0,1.36-1.33,3.45,3.45,0,0,0,.5-1.77,3.56,3.56,0,0,0-.5-1.8,3.34,3.34,0,0,0-1.38-1.33,4,4,0,0,0-1.81-.46m0-.51a4.31,4.31,0,0,1,2.07.53,3.74,3.74,0,0,1,1.58,1.52,4.07,4.07,0,0,1-1.55,5.6,4.4,4.4,0,0,1-2.1.54,4.55,4.55,0,0,1-2.1-.54,4.1,4.1,0,0,1-2.11-3.55,3.92,3.92,0,0,1,.58-2.05,3.77,3.77,0,0,1,1.57-1.52,4.24,4.24,0,0,1,2.06-.53" transform="translate(-74.66 -85.67)"/><path class="cls-1" d="M655.18,738.29s-6.18,10.6-17.81,15.24a33.29,33.29,0,0,1-5.07,1.54,29.44,29.44,0,0,1-5.29.66c-9.15.41-18.43-3.12-23.66-11.33a35.28,35.28,0,0,1-2.54-4.83,35.79,35.79,0,0,1-1.64-4.84,43.46,43.46,0,0,1,.36-21.08h0a24.54,24.54,0,0,1,1-3,23.77,23.77,0,0,1,1.62-3.23,22.57,22.57,0,0,1,19.54-11.24h0a31.52,31.52,0,0,1,5.49.35,26.08,26.08,0,0,1,5,1.3c8,3,13.38,9.73,16.5,19l-.87.29c-3-9-8.27-15.57-16-18.44a25.2,25.2,0,0,0-4.76-1.22,28.2,28.2,0,0,0-5.35-.36h0A21.65,21.65,0,0,0,603,707.81a22.88,22.88,0,0,0-1.57,3.13,23.24,23.24,0,0,0-1,2.91h0a42.33,42.33,0,0,0-.34,20.62,31.51,31.51,0,0,0,1.58,4.72,33.46,33.46,0,0,0,2.48,4.7c5,7.9,14,11.29,22.83,10.92a32.87,32.87,0,0,0,5.14-.67,30,30,0,0,0,4.9-1.48h0c11.34-4.52,17.34-14.83,17.36-14.87Z" transform="translate(-74.66 -85.67)"/><path class="cls-1" d="M420,695.81s11.2-1.39,11.2,9v40.46c.07.74,1.11,12.7-11.08,11.76l.07-.92c11.43.87,10.09-10.75,10.09-10.78V704.8c0-9.33-10.14-8.07-10.18-8.07Z" transform="translate(-74.66 -85.67)"/><rect class="cls-1" x="500.75" y="599.69" width="84.24" height="0.92"/><rect class="cls-1" x="497.71" y="597.03" width="87.29" height="0.94"/><rect class="cls-1" x="346" y="599.69" width="71.85" height="0.92"/><rect class="cls-1" x="346" y="597.03" width="74.44" height="0.94"/><rect class="cls-1" x="346.4" y="714.29" width="236.96" height="1.74"/><path class="cls-1" d="M362.28,617.39c-17.65,0-25.19.36-25.19.36l1.66-3.12c3.31-6.43,4.6-8.09,4.6-51.47H304.56c0,43.57.92,44.68,4.59,51.47l1.66,3.12s-7.54-.36-25-.36c-17.65,0-25.17.36-25.17.36l1.65-3.12c3.67-7,4.59-8.26,4.59-63.42,0-53.5-.73-54.23-4.59-61.59l-1.65-3.12s7.17.38,25.17.38c19,0,25-.38,25-.38l-1.66,3.12c-3.31,6.25-4.59,7.9-4.59,48.9h38.79c0-41-1.11-42.28-4.6-48.9l-1.66-3.12s7.17.38,25.19.38c18.94,0,25-.38,25-.38l-1.67,3.12C381.94,496.43,381,497.9,381,553c0,53.5.72,54.25,4.58,61.59l1.67,3.12s-7.56-.36-25-.36" transform="translate(-74.66 -85.67)"/><path class="cls-1" d="M492.76,610l-.36,7.54H417.19c-9.93,0-14.15.19-14.15.19l1.66-3.13c3.67-6.81,4.59-8.27,4.59-63.43,0-53.5-.74-54.24-4.59-61.59L403,486.5s4,.17,14,.17h73.52s-.19,4.42-.19,14.54c0,10.48.38,15.44.38,15.8-.19-.17-1.28-1.84-6.44-5-4.4-2.57-11.59-4-20.22-4H446.61v33.28h13.06c8.63,0,15.8-.92,20.22-3.48,4.76-2.77,6.25-4.42,6.62-4.8,0,.19-.55,5.15-.55,19.13,0,12.87.55,18.57.55,18.93-.19-.17-1.47-1.83-6.62-5-4.42-2.58-11.59-3.5-20.22-3.5H446.61v33.64h15.63c22.8,0,25.74-5.33,32.53-15.26,0,0-.92,7.71-2,29" transform="translate(-74.66 -85.67)"/><path class="cls-1" d="M594.38,610l-.35,7.54H522.48c-9.91,0-14.14.19-14.14.19L510,614.6c3.67-6.81,4.59-8.27,4.59-63.43,0-53.5-.73-54.24-4.59-61.59l-1.65-3.12s7,.37,26.11.37c18.94,0,25-.37,25-.37l-2,3.31c-4.22,7-5.14,11.58-5.14,48.72v57.72H563.9c22.78,0,25.74-5.33,32.53-15.26,0,0-.92,7.71-2,29" transform="translate(-74.66 -85.67)"/><path class="cls-1" d="M664,510.58a135.51,135.51,0,0,1-2.57-13.41c-.19.9-.57,4.77-2.58,13.41l-10.48,44.87h26.28Zm42.65,106.81c-14.71,0-27,.36-27,.36,2.41-1.65,5.89-4.78,5.89-11.57,0-5.51-2-13.62-4.41-23.53l-1.48-6.08H643.42L642,582.65c-2.41,9.91-4.59,18-4.59,23.53,0,6.79,3.5,9.92,5.87,11.57,0,0-9.39-.36-22.61-.36-13.42,0-21.51.36-21.51.36,6.81-6.6,10.11-17.81,17.09-43.57L637,497.52a27.9,27.9,0,0,0,1.09-6.79,5.07,5.07,0,0,0-1.28-3.85h61.77a6.75,6.75,0,0,0-1.1,3.85,27.36,27.36,0,0,0,.92,6.79l19.14,76.66c6.43,25.93,9.54,37,16.34,43.57,0,0-10.83-.36-27.2-.36" transform="translate(-74.66 -85.67)"/><path class="cls-1" d="M827.76,610l-.36,7.54H755.87c-9.93,0-14.14.19-14.14.19l1.65-3.13c3.65-6.81,4.59-8.27,4.59-63.43,0-53.5-.73-54.24-4.59-61.59l-1.65-3.12s7,.37,26.09.37c18.94,0,25-.37,25-.37l-2,3.31c-4.23,7-5.16,11.58-5.16,48.72v57.72h11.59c22.8,0,25.74-5.33,32.55-15.26,0,0-.94,7.71-2,29" transform="translate(-74.66 -85.67)"/><path class="cls-2" d="M194.23,390.88c-2,4.71.8,8.43,5.59,10.45,4.63,2,9.05,1.4,11-3.32s-.58-8.51-5.36-10.54-9.25-1.37-11.26,3.41m21.48,9.2c-3.26,7.75-10.61,11.08-18.45,7.76-8.09-3.43-11.17-10.85-7.68-19.11,3.28-7.76,10.58-11,18.33-7.71s11.21,11,7.8,19.06m-13.16,29.06-2.85,6.78L159,368.2l2.82-6.69ZM150.38,399.5c-2,4.71.82,8.43,5.53,10.41s9.13,1.43,11.11-3.28-.61-8.63-5.34-10.61-9.28-1.3-11.3,3.48m21.56,9.11c-3.31,7.84-10.7,11-18.47,7.77-8.09-3.43-11.24-10.89-7.76-19.15,3.31-7.83,10.49-11,18.43-7.68,7.75,3.28,11.18,11.06,7.8,19.06" transform="translate(-74.66 -85.67)"/><path class="cls-2" d="M233.65,365.2c-2.81,4.69-4,7-4,7l-.91-1.48c-1.91-3.24-2.3-4-25.34-17.82l-14.52-8.7c-1.08-.65-1.76-.74-2.8,1L180.75,354c-3.92-6.86,4-16.94,3.11-25.53,0,0,9.57,6.69,27.24,17.29,20.51,12.3,21.07,12.24,25.12,12.46l1.72.1s-1.35,1.89-4.3,6.81" transform="translate(-74.66 -85.67)"/><path class="cls-2" d="M220.28,290.91c-3.67,4.53-3.71,8.67-1.15,13.06,2.7,4.61,8.13,9.59,11.68,12.48,14,11.41,21.52,12.42,26.89,5.81,3.62-4.45,3.65-8.58,1.23-12.85-2.58-4.64-8.07-9.67-11.76-12.68-14.13-11.46-21.54-12.42-26.89-5.82m42.23,35.38c-12,14.75-27.06,8-38.62-1.36-9.23-7.51-21.6-22-8.51-38.09,12-14.75,27.13-8,38.69,1.41,9.25,7.51,21.57,21.92,8.44,38" transform="translate(-74.66 -85.67)"/><path class="cls-2" d="M268.68,240.7c-4.39,3.84-5.1,7.91-3.31,12.68,1.89,5,6.4,10.83,9.42,14.28,11.94,13.62,19.16,15.87,25.56,10.26,4.32-3.78,5-7.87,3.36-12.5-1.77-5-6.33-10.88-9.47-14.47-12-13.68-19.16-15.89-25.56-10.25m35.75,42c-14.3,12.53-28.07,3.37-37.88-7.81-7.85-9-17.65-25.33-2-39,14.3-12.52,28.11-3.28,37.94,7.9,7.86,9,17.59,25.26,1.94,39" transform="translate(-74.66 -85.67)"/><path class="cls-2" d="M395.81,222.46c-5.12,2.57-7.29,3.87-7.29,3.87v-1.72c0-3.72.15-4.7-10.51-25.79L352.9,211.48c10.7,21.2,11.26,21.51,14.52,23.77l1.4,1s-2.23.92-7.27,3.47c-5.2,2.62-7.28,3.87-7.28,3.87v-1.72c.07-3.84.19-4.61-11.91-28.59-11.74-23.26-12.24-23.43-15.53-25.77l-1.4-1s2.17-.9,7.35-3.53,7.19-3.82,7.19-3.82v1.72c-.06,3.64-.18,4.61,9.64,24l25.1-12.68c-9.74-19.25-10.51-19.78-13.63-22l-1.4-1s2.16-.88,7.33-3.51,7.21-3.82,7.21-3.82v1.72c-.07,3.84-.17,4.61,11.95,28.58,11.74,23.27,12.2,23.42,15.51,25.77l1.4,1s-2.15.91-7.27,3.49" transform="translate(-74.66 -85.67)"/><path class="cls-2" d="M454.12,199.76l.63,2.72-30.22,9.2c-4.64,1.4-6.59,2.08-6.59,2.08l.33-1.69c.71-3.77,1-4.51-6.85-30.21-7.56-24.93-8-25.17-10.87-28.05l-1.19-1.22s1.89-.49,6.53-1.89l29.46-9s.38,1.49,1.37,4.73a51.1,51.1,0,0,0,1.94,5.49,13.53,13.53,0,0,0-3.79-1.36c-2.42-.58-6-.26-10,1l-10.95,3.33,6.46,21.33,8.93-2.71c4-1.21,7.23-2.66,8.91-4.49a13.08,13.08,0,0,0,2.42-3.16,71.51,71.51,0,0,0,1.84,7c1.32,4.28,2.29,6.6,2.34,6.77A13,13,0,0,0,441,178.3c-2.4-.58-5.87,0-9.91,1.22l-8.91,2.72,6.55,21.5,10.09-3.07c10.65-3.24,11.26-6.14,13-11.73,0,0,.55,3.3,2.27,10.82" transform="translate(-74.66 -85.67)"/><path class="cls-2" d="M504.47,191.36l.24,2.78-27.63,4.13c-4.78.71-6.79,1.11-6.79,1.11l.56-1.62c1.27-3.62,1.62-4.3-2.35-30.88-3.88-25.77-4.27-26.06-6.68-29.32l-1-1.39s2.32-.18,8.18-1,8.1-1.39,8.1-1.39l-.65,1.63c-1.26,3.64-1.53,4.76,2.12,29.2l4,26.47,6.72-1c11-1.66,12-4.42,14.57-9.7,0,0,.05,3.33.65,11" transform="translate(-74.66 -85.67)"/><path class="cls-2" d="M541.78,139.25c-1-3.7-1.59-6-1.66-6.75-.2.63-.76,2.76-2,6.69l-6.66,21.74,16,.29Zm18.06,53.9c-5.28-.09-9.13,0-9.13,0a6.36,6.36,0,0,0,3-5.6c0-3-1.39-8.26-3.08-14.47l-1.52-5.31-19.52-.34L528,172.68c-1.81,6.16-3.6,11.32-3.65,14.37a6.34,6.34,0,0,0,2.76,5.69s-3.12-.24-8.22-.33c-5.29-.08-8.08,0-8.08,0,3.37-3.16,5.18-8.78,9.24-21.06l12.11-37.17a13.38,13.38,0,0,0,.69-3.3c0-1.26-.41-1.79-.58-1.89l18.72.32a3.31,3.31,0,0,0-.58,1.88,10.5,10.5,0,0,0,.58,3.33l10,37.54c3.27,12.41,4.79,18.09,8,21.37,0,0-3.5-.24-9.14-.34" transform="translate(-74.66 -85.67)"/><path class="cls-2" d="M613.83,197.12l-.6,2.72-27.63-4.22c-4.77-.73-6.82-1-6.82-1l1-1.39c2.29-3.09,2.84-3.63,6.88-30.2,4-25.77,3.65-26.18,2.34-30l-.57-1.62s2.27.53,8.11,1.42,8.18,1.08,8.18,1.08l-1.13,1.36c-2.27,3.09-2.89,4.1-6.61,28.52l-4.06,26.48,6.73,1c11,1.67,12.8-.67,16.79-5,0,0-.92,3.21-2.63,10.73" transform="translate(-74.66 -85.67)"/><path class="cls-2" d="M709.2,158.67c-3-1.21-4.24-3.84-3.07-6.76s3.89-3.92,7.07-2.64,4.23,3.84,3.1,6.67c-1.22,3-3.78,4.08-7.1,2.73M693,152.12c-2.92-1.18-4.16-3.81-3-6.71s3.81-4,7.07-2.66c3,1.24,4.23,3.84,3.09,6.65-1.22,3-3.77,4.1-7.19,2.72M722.36,171c-2.75,2.27-3.63,3-11.94,23.59l-2.22,5.47c-4.2,10.4-6.52,15.64-11.18,18.79-5.39,4-12.34,5.16-22.72,1-8.54-3.46-14.16-7.95-16-14.68-1.45-5.24-.58-9.81,3.51-19.95l2.66-6.55c9-22.27,9.12-23.48,8.71-27.51l-.19-1.72s2.27,1.11,7.6,3.26,7.71,2.93,7.71,2.93l-1.3,1.11c-2.75,2.25-3.62,3-12,23.57l-4.65,11.55a39.15,39.15,0,0,0-2.41,7.92c-.84,6.33,2,11.06,9.37,14.05S690.07,215.5,694,210a36.52,36.52,0,0,0,3.33-6.57l3.52-8.72c9.77-24.19,9.59-24.65,9.18-28.67l-.16-1.73a73.71,73.71,0,0,0,6.81,3c5,2,7,2.61,7,2.61Z" transform="translate(-74.66 -85.67)"/><path class="cls-2" d="M758.1,196.56c-2-1.23-3.67-2.08-3.67-2.08L742.12,214s1.32.94,4.13,2.69c1.51.91,3.07,1.75,4.66,2.51,4.22,1.71,9.29.55,13-5.42,5.45-8.66,1-13-5.85-17.24m-8,63.89c-5.38-3.37-6-6.94-6-15L744,234c0-9.85.08-11.9-3.69-14.29A12.72,12.72,0,0,0,739,219c-12,19.1-12.39,20.36-12.66,24.32l-.12,1.7s-1.88-1.38-6.64-4.38-6.91-4.15-6.91-4.15l1.48-.85c3.28-1.86,4.05-2.22,18.33-24.95,13.86-22.07,13.76-22.55,14.08-26.59l.12-1.71s2.27,1.62,5.6,3.72c2.27,1.44,6.53,3.91,9.18,5.57,9.4,5.9,20.48,13.84,12.29,26.87-4.44,7-13.33,11.8-25.5,4.07,5.77,4.77,6.06,9.52,5.87,18.38l-.32,8.77c-.22,5.9-.14,10,2,13.24,0,0-1.61.05-5.77-2.58" transform="translate(-74.66 -85.67)"/><path class="cls-2" d="M792.66,292.51l-2,2-23.81-20.87c-3.65-3.19-5.24-4.49-5.24-4.49l1.59-.61c3.6-1.39,4.35-1.56,22.08-21.8,17.2-19.62,17.17-20.12,18.12-24.06l.4-1.67s1.41,1.36,5.06,4.55l23.21,20.33s-1.07,1.09-3.32,3.65a47.17,47.17,0,0,0-3.64,4.58,13.33,13.33,0,0,0-.83-4c-.79-2.38-2.94-5.21-6.11-8l-8.64-7.58L794.8,251.35l7,6.15c3.17,2.78,6.09,4.74,8.55,5.22a12.86,12.86,0,0,0,4,.37c-.06.07-1.92,1.78-5,5.28a70.61,70.61,0,0,0-4.51,5.58,13.66,13.66,0,0,0-.84-4c-.8-2.37-3.14-5-6.29-7.78l-7-6.16-14.83,17,7.94,7c8.38,7.34,11.18,6.32,16.86,4.87,0,0-2.53,2.2-8,7.64" transform="translate(-74.66 -85.67)"/><path class="cls-2" d="M869,303.22a11.91,11.91,0,0,0-.19-4.08,19.76,19.76,0,0,0-4.69-8.84l-3.65-4.3-19.94,17c-19.84,16.9-19.88,17.41-21.4,21.16l-.63,1.61s-1.43-2-5.08-6.27-5.42-6.2-5.42-6.2l1.69-.37c3.74-.84,4.5-.91,25-18.33l19.25-16.37-3.67-4.3a19.93,19.93,0,0,0-8-6c-2.61-.85-3.8-.89-4-.83a53.13,53.13,0,0,0,4.7-3.64c2.57-2.2,3.68-3.24,3.68-3.24l30.55,35.87s-1.23.92-3.82,3.12a53.34,53.34,0,0,0-4.32,4.05" transform="translate(-74.66 -85.67)"/><path class="cls-2" d="M896.72,316.4c-2.08-3.14-2.2-6.4.94-8.47,3.44-2.29,6.29-1.06,8.48,2.24,2.06,3.14,2.18,6.4-1,8.51s-6.22,1-8.38-2.28m-57.5,37.52c-3.21-4.86-4.69-6.77-4.69-6.77l1.69-.17c3.84-.39,4.62-.36,27-15.21,21.76-14.4,21.84-14.88,23.81-18.43l.82-1.52s1.14,2,4.35,6.9,4.66,6.7,4.66,6.7l-1.73.17c-3.82.38-4.59.36-27,15.19-21.74,14.41-21.84,14.92-23.79,18.45l-.82,1.52s-1.17-2.12-4.3-6.83" transform="translate(-74.66 -85.67)"/><path class="cls-2" d="M875.54,423.22C873.15,418,872,415.8,872,415.8l1.76.19c3.52.35,4.68.32,29.06-10.82l22.74-10.4a74.29,74.29,0,0,1-7.74.77l-43.46,1.25,29.27-31.69a57.53,57.53,0,0,1,5.68-5.47l-23.43,10.62c-23.72,10.84-23.83,11.28-26.34,14.59l-1,1.37s-.86-2.27-2.75-6.42-3-6-3-6l1.72.08c3.72.19,4.56.29,29-10.89,23.71-10.83,23.93-11.22,26.42-14.42l1-1.38s1.32,3.35,3.64,8.4c2.16,4.73,3.63,7.3,3.63,7.3L895.74,387.2a22.67,22.67,0,0,1-2.42,2.28,15.49,15.49,0,0,1,3.26-.2l33.12-.86s1.2,3.11,3.33,7.75c2.24,4.88,3.82,7.72,3.82,7.72l-1.72-.11c-3.77-.25-4.59-.37-29,10.81-23.73,10.83-23.89,11.31-26.38,14.52l-1,1.36s-.73-2-3.12-7.25" transform="translate(-74.66 -85.67)"/><path class="cls-2" d="M191.89,636.94c-1.4-4.92-5.92-6.06-10.83-4.66s-8,4.61-6.61,9.52,5.91,6.33,10.8,5,8.06-4.81,6.64-9.81m-22.51,6.38c-2.32-8.18,1.44-15.31,9.54-17.6,8.45-2.4,15.58,1.44,18,10.06,2.32,8.19-1.3,15.17-9.56,17.52-8.1,2.31-15.65-1.6-18-10m-6.26,27.78c-1.4-4.91-5.92-6.06-10.91-4.64S144.3,671,145.68,676s5.8,6.26,10.8,4.84,8.06-4.71,6.64-9.71m-22.53,6.3c-2.3-8.11,1.35-15.27,9.53-17.61,8.44-2.39,15.53,1.47,17.95,10.08,2.3,8.11-1.37,15.21-9.46,17.51s-15.65-1.62-18-10m-7.93-30.91-2-7.06,74.15,27.29,2,7Z" transform="translate(-74.66 -85.67)"/><path class="cls-2" d="M157.79,719.82c-2.2-5-3.4-7.32-3.4-7.32l1.71.14c3.75.31,4.59.43,29.2-10.34l15.51-6.8c1.14-.51,1.61-1,.77-2.9l-4.13-9.42c7.87.75,11.5,13.06,19,17.29,0,0-11,3.93-29.85,12.2-21.91,9.59-22.17,10.09-24.71,13.25l-1.06,1.36s-.77-2.2-3.07-7.46" transform="translate(-74.66 -85.67)"/><path class="cls-2" d="M229.88,741.36c-3-5-6.95-6.35-11.93-5.39-5.24,1-11.74,4.49-15.63,6.88-15.41,9.47-18.84,16.21-14.39,23.45,3,4.88,6.89,6.28,11.72,5.41,5.24-.91,11.8-4.41,15.84-6.9,15.5-9.52,18.84-16.19,14.39-23.45M182.54,769.5c-9.94-16.17,1.4-28.17,14-36,10.16-6.25,27.89-13.13,38.78,4.57,9.93,16.16-1.49,28.21-14.15,36-10.16,6.23-27.8,13.07-38.67-4.63" transform="translate(-74.66 -85.67)"/><path class="cls-2" d="M266.86,791.44c-3.84-4.37-7.91-5.07-12.64-3.28-5,1.9-10.82,6.4-14.23,9.42-13.59,11.95-15.82,19.17-10.21,25.53,3.79,4.31,7.87,5,12.48,3.35,5-1.78,10.85-6.35,14.42-9.49,13.63-12,15.8-19.15,10.18-25.53M225,827.19c-12.53-14.23-3.4-28,7.75-37.8,8.92-7.86,25.22-17.66,38.92-2.08,12.55,14.25,3.37,28.06-7.79,37.87-8.95,7.85-25.16,17.59-38.88,2" transform="translate(-74.66 -85.67)"/><path class="cls-2" d="M316.51,904.48c-4.69-3.28-6.86-4.57-6.86-4.57l1.54-.79c3.29-1.76,4.2-2.1,17.73-21.48l-23.05-16.11c-13.61,19.47-13.61,20.1-14.07,24l-.22,1.71s-1.86-1.52-6.5-4.76-6.84-4.58-6.84-4.58l1.51-.78c3.43-1.76,4.15-2,19.54-24,14.92-21.36,14.83-21.88,15.36-25.89l.19-1.7s1.83,1.47,6.59,4.81,6.79,4.52,6.79,4.52l-1.53.79c-3.25,1.67-4.15,2-16.61,19.86l23.06,16.11c12.35-17.69,12.45-18.62,12.92-22.42l.22-1.71s1.82,1.47,6.58,4.81,6.78,4.53,6.78,4.53l-1.52.76c-3.43,1.78-4.16,2-19.54,24.07-14.93,21.36-14.83,21.86-15.34,25.89l-.22,1.7s-1.81-1.48-6.51-4.76" transform="translate(-74.66 -85.67)"/><path class="cls-2" d="M390.62,883.35a61,61,0,0,1,1.17-6.86c-.45.49-1.81,2.23-4.51,5.34l-14.71,17.29,14.57,6.62Zm-4.83,56.57c-4.81-2.18-8.37-3.6-8.37-3.6a6.35,6.35,0,0,0,4.93-4c1.24-2.76,2-8.12,2.93-14.49l.72-5.48-17.77-8-3.56,4.18c-4.12,4.91-7.8,8.94-9.06,11.71a6.26,6.26,0,0,0,.29,6.31s-2.79-1.45-7.45-3.55-7.38-3.17-7.38-3.17c4.33-1.57,8.2-6,16.82-15.65l25.86-29.27a13.1,13.1,0,0,0,1.93-2.75c.51-1.14.34-1.81.2-2l17.05,7.71a3.35,3.35,0,0,0-1.26,1.5,9.82,9.82,0,0,0-.81,3.28L395.15,921c-1.93,12.7-2.8,18.5-1.13,22.79,0,0-3.09-1.59-8.23-3.93" transform="translate(-74.66 -85.67)"/><path class="cls-2" d="M446,955.84l-.92,2.62-26.9-7.56c-4.64-1.31-6.67-1.77-6.67-1.77l1.21-1.25c2.63-2.8,3.23-3.27,10.5-29.13,7-25.09,6.81-25.53,6-29.49l-.37-1.69s2.2.82,7.88,2.41,8,2.06,8,2.06l-1.28,1.22c-2.65,2.79-3.38,3.7-10,27.49l-7.24,25.78,6.55,1.85c10.69,3,12.77.89,17.26-2.87,0,0-1.34,3.06-3.93,10.33" transform="translate(-74.66 -85.67)"/><path class="cls-2" d="M495.23,912.51c-.61-3.78-1-6.15-1-6.86-.26.59-1.06,2.64-2.7,6.41L482.71,933l15.9,1.94Zm12.29,55.43c-5.25-.65-9.08-.94-9.08-.94a6.39,6.39,0,0,0,3.54-5.24c.35-3-.5-8.36-1.54-14.71l-1-5.43-19.33-2.39-2.19,5c-2.42,5.92-4.74,10.86-5.12,13.88a6.33,6.33,0,0,0,2.15,6s-3.08-.56-8.15-1.17-8-.82-8-.82c3.65-2.79,6-8.18,11.37-20l15.92-35.62a13.3,13.3,0,0,0,1-3.21c.14-1.24-.24-1.84-.41-1.94l18.57,2.29a3.15,3.15,0,0,0-.77,1.79,10.55,10.55,0,0,0,.22,3.36l6,38.33c2,12.68,2.85,18.48,5.75,22.08,0,0-3.45-.61-9-1.29" transform="translate(-74.66 -85.67)"/><path class="cls-2" d="M569.78,965.43l-.1,2.78-27.93.73c-4.87.12-6.92.28-6.92.28l.77-1.56c1.71-3.44,2.14-4.07,1.44-30.95-.69-26.08-1-26.42-3-30l-.84-1.51s2.34.11,8.24,0,8.25-.39,8.25-.39l-.86,1.53c-1.7,3.45-2.11,4.54-1.46,29.27l.7,26.78,6.79-.17c11.11-.29,12.47-2.94,15.66-7.85,0,0-.35,3.32-.7,11" transform="translate(-74.66 -85.67)"/><path class="cls-2" d="M617.78,902.39c-2.63.6-4.51,1.22-4.51,1.22l5.86,25.9a30.76,30.76,0,0,0,5.13-.89c12.68-2.88,11.21-11.84,10.09-16.82-2.51-11.11-10.7-10.72-16.57-9.41m8.75,31.78a45.24,45.24,0,0,1-6.12.94c4.16,18.45,4.88,19.95,7.59,23l1.11,1.32s-2.31.34-8,1.64-7.92,2-7.92,2l.45-1.66c1-3.63,1.29-4.43-4.64-30.68-5.76-25.46-6.2-25.74-8.83-28.82l-1.11-1.3s2.48-.39,6.51-1.3c3.66-.84,8.36-2.08,11-2.66,8.56-2,24.47-4.9,28.48,12.87,3.8,16.81-8.81,22.51-18.52,24.69" transform="translate(-74.66 -85.67)"/><path class="cls-2" d="M670.16,886.73c-2.15.87-3.84,1.73-3.84,1.73l8.6,21.43s1.54-.51,4.61-1.74c1.08-.44,3.41-1.57,4.76-2.3,3.86-2.43,5.91-7.19,3.28-13.76-3.81-9.45-9.92-8.36-17.41-5.36m47,44c-5.9,2.37-9.13.77-15.64-3.94l-9.25-6.71c-8-5.75-9.6-7-13.74-5.37a9.67,9.67,0,0,0-1.38.65c8.39,20.92,9.19,22,12.23,24.5L690.7,941s-2.22.7-7.45,2.8-7.42,3.16-7.42,3.16l.19-1.71c.43-3.74.58-4.57-9.42-29.49-9.69-24.18-10.17-24.37-13.24-27L652,887.65s2.65-.87,6.3-2.33c2.47-1,7-3,9.9-4.17,10.29-4.13,23.22-8.45,29,5.84,3.1,7.73,1.72,17.73-11.69,23,7.25-1.86,11.26.68,18.34,6l6.9,5.43c4.64,3.63,8,6,11.89,6.11,0,0-.88,1.35-5.48,3.17" transform="translate(-74.66 -85.67)"/><path class="cls-2" d="M732.14,855.34c-8,5.07-11.13,15.08-.6,31.77C742,903.55,752,904.91,760.3,899.69c8-5.08,11.21-15.15.66-31.83-10.41-16.43-20.56-17.74-28.82-12.52m31.57,49.93c-15.68,9.92-30.86,4.88-41.11-11.35-5.12-8.1-15.94-30.24,6.11-44.16,15.77-10,30.95-4.93,41.19,11.28,5.12,8.12,15.94,30.24-6.19,44.23" transform="translate(-74.66 -85.67)"/><path class="cls-2" d="M783.46,816.62c-2.47,2.36-4.23,4.27-4.23,4.27L814.52,858s2.14-1.79,4.29-3.82c8.75-8.33,15.22-19.19-.39-35.6-14.89-15.62-25.83-10.64-35-2M823,858.82c-2.71,2.6-5.89,5.24-8.35,7.58-3.63,3.47-5.39,5.38-5.39,5.38l-.46-1.66c-1-3.63-1.16-4.45-19.68-23.91-18-18.87-18.46-18.89-22.28-20.17l-1.64-.56s2-1.66,5.63-5.1c2.59-2.48,6-6.13,8.82-8.79,7.41-7,25.33-23.11,46-1.39,22.58,23.74,6,40.42-2.66,48.62" transform="translate(-74.66 -85.67)"/><path class="cls-2" d="M845.52,734.66c1.59,3.21,2.07,4.22,20.22,17.07l4.83,3.43c9.15,6.47,13.72,9.93,15.72,15.19,2.66,6.18,2.2,13.19-4.28,22.34-5.34,7.54-11,12-18,12.2-5.43.22-9.68-1.67-18.62-8l-5.77-4.1C820,778.9,818.86,778.52,814.84,778l-1.69-.23s1.58-1.93,4.91-6.63,4.61-6.84,4.61-6.84l.78,1.55c1.57,3.21,2.07,4.22,20.23,17.07l10.15,7.2A39.67,39.67,0,0,0,861,794.3c6,2.25,11.23.58,15.84-5.92s4.57-12,.17-17.13a37.2,37.2,0,0,0-5.63-4.77l-7.7-5.44c-21.3-15.09-21.79-15-25.8-15.53l-1.73-.22s1.35-1.59,4.46-6,4.16-6.18,4.16-6.18Z" transform="translate(-74.66 -85.67)"/><path class="cls-2" d="M923.15,719.75C911.41,745,892,740.24,881,735.14c-19.48-9.06-25.19-24.85-16.58-43.38,4.79-10.31,9.08-13.36,9.08-13.36s1.79,1,5.44,2.73,6.09,2.63,6.09,2.63c-6.65,1.14-10.94,2.71-14.54,10.44-4,8.8-4.58,21.8,14.84,30.8,13,6,25.17,6.46,32.15-8.58,3.71-8,2-12.41-1.4-18.24,0,0,2.6,1.41,6.34,3.15,3.41,1.59,5.35,2.29,5.35,2.29s-.2,6.62-4.62,16.13" transform="translate(-74.66 -85.67)"/><path class="cls-2" d="M897.34,628.66a12.39,12.39,0,0,0-3.28,2.42,19.93,19.93,0,0,0-4.76,8.81l-1.54,5.43,25.17,7.15c25.09,7.11,25.54,6.88,29.49,6l1.68-.36s-.84,2.29-2.36,7.72-2.1,8-2.1,8l-1.24-1.17c-2.78-2.67-3.26-3.26-29.12-10.6L885,655.15l-1.52,5.42a20,20,0,0,0-.61,10,10.83,10.83,0,0,0,1.54,3.79,58.8,58.8,0,0,0-5.62-1.88c-3.27-.92-4.76-1.26-4.76-1.26l12.88-45.33s1.44.49,4.72,1.42a56.49,56.49,0,0,0,5.75,1.36" transform="translate(-74.66 -85.67)"/><path class="cls-2" d="M919.79,621.31a3.49,3.49,0,0,1-.65-.06,3.7,3.7,0,0,1-3-4.3,384.28,384.28,0,0,0-11.48-179.47,3.71,3.71,0,0,1,2.42-4.66h0a3.67,3.67,0,0,1,4.62,2.36l0,.09A388.86,388.86,0,0,1,929.24,551a393.51,393.51,0,0,1-5.78,67.23,3.74,3.74,0,0,1-3.67,3.08" transform="translate(-74.66 -85.67)"/><path class="cls-2" d="M158.24,608.7a3.73,3.73,0,0,1-3.69-3.21,392.57,392.57,0,0,1,11.31-162.24,3.74,3.74,0,0,1,7.19,2.06A382.39,382.39,0,0,0,158.24,551a386.94,386.94,0,0,0,3.7,53.45,3.75,3.75,0,0,1-3.18,4.22h-.52" transform="translate(-74.66 -85.67)"/></svg>