<svg id="Layer_1" data-name="Layer 1" xmlns="http://www.w3.org/2000/svg" viewBox="0 0 1080 1080"><defs><style>.cls-1{fill:#e20613;}.cls-2{fill:#1b5e42;}</style></defs><path class="cls-1" d="M218.44,857.53s-63.07-35.35-10.29-97.09c0,0,9.85,5.38,8.35,13.12,0,0,43.84-46.21,21.18-73.36,0,0,47.73,7.46,29.83,93.35,0,0,11.93-3.28,11.93-11.33,0,0,26.53,27.73-13.43,72.76,0,0,4.48-16.69-4.77-28,0,0-1.19,21.47-12.52,24.15,0,0-19.7-28.93.29-63.83,0,0-47.72,25.36-30.57,70.25"/><path class="cls-1" d="M105.86,857.53s-63.08-35.35-10.29-97.09c0,0,9.85,5.38,8.34,13.12,0,0,43.85-46.21,21.18-73.36,0,0,47.74,7.46,29.83,93.35,0,0,11.93-3.28,11.93-11.33,0,0,26.54,27.73-13.43,72.76,0,0,4.49-16.69-4.76-28,0,0-1.19,21.47-12.53,24.15,0,0-19.69-28.93.29-63.83,0,0-47.71,25.36-30.56,70.25"/><path class="cls-1" d="M324.53,857.53s-63.08-35.35-10.29-97.09c0,0,9.85,5.38,8.34,13.12,0,0,43.85-46.21,21.18-73.36,0,0,47.72,7.46,29.83,93.35,0,0,11.93-3.28,11.93-11.33,0,0,26.54,27.73-13.43,72.76,0,0,4.49-16.69-4.76-28,0,0-1.19,21.47-12.53,24.15,0,0-19.69-28.93.29-63.83,0,0-47.71,25.36-30.56,70.25"/><path class="cls-1" d="M551.62,857.53s-63.07-35.35-10.29-97.09c0,0,9.85,5.38,8.35,13.12,0,0,43.84-46.21,21.18-73.36,0,0,47.71,7.46,29.83,93.35,0,0,11.93-3.28,11.93-11.33,0,0,26.54,27.73-13.43,72.76,0,0,4.49-16.69-4.76-28,0,0-1.2,21.47-12.53,24.15,0,0-19.69-28.93.29-63.83,0,0-47.72,25.36-30.57,70.25"/><path class="cls-1" d="M442.27,857.53S379.19,822.18,432,760.44c0,0,9.84,5.38,8.34,13.12,0,0,43.84-46.21,21.18-73.36,0,0,47.73,7.46,29.83,93.35,0,0,11.93-3.28,11.93-11.33,0,0,26.54,27.73-13.43,72.76,0,0,4.49-16.69-4.76-28,0,0-1.2,21.47-12.53,24.15,0,0-19.69-28.93.29-63.83,0,0-47.71,25.36-30.56,70.25"/><path class="cls-1" d="M668.22,857.53s-63.08-35.35-10.29-97.09c0,0,9.84,5.38,8.34,13.12,0,0,43.84-46.21,21.18-73.36,0,0,47.72,7.46,29.83,93.35,0,0,11.93-3.28,11.93-11.33,0,0,26.54,27.73-13.43,72.76,0,0,4.49-16.69-4.76-28,0,0-1.2,21.47-12.53,24.15,0,0-19.69-28.93.29-63.83,0,0-47.71,25.36-30.56,70.25"/><path class="cls-2" d="M960.92,358.64c-16.36,7.43-32.44,15.43-48.64,23.16Q861.7,405.92,811.12,430c-6.56,3.11-12.14,6.79-10.74,15.29s9.88,12.13,19.42,7.68c21.46-10.05,42.77-20.43,64.15-30.63,28.2-13.47,56.49-26.73,84.53-40.52,4.59-2.27,8.06-6.81,10.24-8.72.44-13.17-8.19-18.79-17.8-14.44M182,524.73C186.58,561.4,222.09,598,261.58,607a89.53,89.53,0,0,0,19.17,2.54c87.12.15,174.24.77,261.36-.24,43.94-.51,85.94-35.84,96.86-78,.45-1.68.31-3.53.55-6.53Zm-35.61-47.24q258.11,0,516.24-.07c4.57,0,9.55-.1,13.67-1.79q35.84-14.72,71.26-30.45c2.63-1.17,5.65-4.64,6-7.35,2.85-23.11,15-39.06,35.77-49C839.53,365,889.65,340.78,940,317c31.25-14.76,65.59-3.21,79.92,26.37,14.68,30.27,2.19,64.47-29.38,79.65q-75.29,36.12-150.71,72c-22,10.51-43,8.9-63.26-4.83-2.84-1.92-8.08-2.73-11.15-1.49Q730,503.07,695.1,518.79a16.21,16.21,0,0,0-7.9,9.92c-16.64,78-77.9,127.95-157.63,128q-118.82.07-237.61-.07a197.13,197.13,0,0,1-27.9-2c-83.88-12.15-143.51-92.15-131.24-177.19Z"/><path class="cls-2" d="M530.78,408.41c-19.4-24.65-16.84-48.93-7.85-73.68,6.61-18.2,14.06-36.14,19.78-54.61,5.56-18,3.53-35.8-7.49-51.5-2.41-3.41-7.8-6.21-12.05-6.57-11-.92-22.13-.31-35.46-.31,23.24,30.5,12.78,59.46,1.87,89.09-7,19-11.65,38.92-16.34,58.67-1.25,5.19.64,11.45,2.2,16.91,5.37,18.79,9.91,22,29.23,22Z"/><path class="cls-2" d="M324.35,408.41c-19-24.87-16.44-49.41-7.17-74.41,6.23-16.79,13.21-33.33,18.57-50.38,6.07-19.27,5.07-38.36-6.93-55.58-1.85-2.65-5.19-5.8-8-6-12.34-.65-24.74-.27-39.44-.27,21.51,27.75,14.92,54.61,4.61,82.09-7.25,19.35-13.33,39.21-18.62,59.2-1.74,6.53-.34,14.4,1.3,21.24,4.84,20.21,10.27,24.07,30.85,24.07Z"/><path class="cls-2" d="M427.61,408.41c-19.2-24.6-16.72-48.78-7.76-73.63,7.3-20.2,15.1-40.32,20.72-61,2.4-8.87,1.33-19.4-.74-28.6-4.4-19.61-10.32-23.43-30.34-23.43H386.07c1,2.61,1.25,4,2,5,11.82,17.2,14.4,35.91,7.9,55.48-5.89,17.7-12.87,35-19.22,52.57-7.81,21.58-11.31,43,1.16,64.42,3.86,6.62,8.23,9.88,16.25,9.32,10.31-.72,20.7-.17,33.48-.17"/></svg>