<svg id="Layer_1" data-name="Layer 1" xmlns="http://www.w3.org/2000/svg" viewBox="0 0 934.7 934.7"><defs><style>.cls-1{fill:#1b5e42;}.cls-2{fill:#fff;}</style></defs><path class="cls-1" d="M1007.35,540c0,258.1-209.25,467.35-467.35,467.35S72.65,798.1,72.65,540,281.88,72.65,540,72.65,1007.35,281.88,1007.35,540" transform="translate(-72.65 -72.65)"/><path class="cls-1" d="M848.36,540c0,170.3-138.06,308.36-308.36,308.36S231.63,710.3,231.63,540,369.7,231.64,540,231.64,848.36,369.7,848.36,540" transform="translate(-72.65 -72.65)"/><path class="cls-2" d="M555.7,734a29.49,29.49,0,0,0-7.84-3,34.54,34.54,0,0,0-15.73,0,29.49,29.49,0,0,0-7.84,3c-10.64,5.94-11.53,5.32-22,2.59a25.65,25.65,0,0,0,14.13,11.2c10.45,3.48,7.8.58,17-2a28.47,28.47,0,0,1,13.11,0c9.18,2.55,6.55,5.45,17,2a25.65,25.65,0,0,0,14.13-11.2c-10.43,2.73-11.32,3.35-22-2.59m67.71-178.61c-3.6,4.36-4.91,9.07-7.49,13.85-3.62,6.71-6.64,11.15-10.32,12.53-7,2.64-17.31-3.93-21-12.77a59,59,0,0,1,37.81-15.61,1.29,1.29,0,0,1,1.16.68,1.24,1.24,0,0,1-.16,1.32M563.92,698.11c.24-2.16,1.72-4.69,4.37-7,4.18-3.67,10.14-4.86,16.35-4.11-4.47,2.71-7,5.37-7.66,9.08-1.56,9.4-14,10.61-13.06,2m-60.91-2c-.63-3.71-3.19-6.37-7.66-9.08,6.21-.75,12.17.44,16.35,4.11,2.64,2.32,4.13,4.85,4.37,7,1,8.57-11.5,7.36-13.06-2m-28.62-114.3c-3.68-1.38-6.7-5.82-10.3-12.53-2.6-4.78-3.89-9.49-7.5-13.85a1.17,1.17,0,0,1-.15-1.32,1.22,1.22,0,0,1,1.14-.68A59,59,0,0,1,495.38,569c-3.68,8.84-13.92,15.41-21,12.77M738,515.36C722.33,489,697.17,475.88,657.83,480c74.34-34.22,52.43-127.94-1.67-149.33a1.24,1.24,0,0,0-1.45.43,1.2,1.2,0,0,0,.07,1.5c34.63,41.09,21.18,100-38.09,117.57-4.42-2.26-8.76-3-14.46,1.46a18.92,18.92,0,0,0-3.84,4.1c-12-10.7-25.25-8.4-38.58-5.39-20.16,4.57-19.47,4.57-39.63,0-13.33-3-26.6-5.31-38.58,5.39a19.17,19.17,0,0,0-3.84-4.1c-5.72-4.48-10-3.72-14.46-1.46-59.27-17.6-72.72-76.48-38.09-117.57a1.23,1.23,0,0,0-1.38-1.93c-54.1,21.39-76,115.11-1.67,149.33-39.32-4.1-64.5,9-80.16,35.38a1.23,1.23,0,0,0,1.52,1.75c30-12.28,68.43,37.07,104.11-11.26-3.37,12.47-6.72,18.89-14.43,26.21-3.88,8.91,5.51,14,8.92,22.27-10.94,25-8.09,49.75,2.66,66,10.14,15.37,27.72,31.14,33.59,48.24,20.65-12.49,28.74-8.53,41.52,1.83-9.06-3.48-18.48-5.51-26.38-.38-2.56,1.66-5.19,3.2-7.66,5-4.9,3.52-6.76,6.11-7.05,10.19-.55,7.59,3.24,14.42,2.88,21.72-.44,9-1.54,15.29,7.85,20.31,17.31,9.27,25-1.06,38.6-4.62a51.16,51.16,0,0,1,23.73,0c13.63,3.56,21.29,13.89,38.6,4.62,9.37-5,8.29-11.28,7.85-20.31-.36-7.3,3.43-14.13,2.88-21.72-.29-4.08-2.15-6.67-7-10.19-2.48-1.77-5.11-3.31-7.65-5-7.92-5.13-17.34-3.1-26.38.38,12.76-10.36,20.85-14.32,41.52-1.83,5.85-17.1,23.45-32.87,33.58-48.24,10.72-16.3,13.59-41.08,2.65-66,3.41-8.29,12.8-13.36,8.92-22.27-7.71-7.32-11.06-13.74-14.43-26.21,35.68,48.33,74.16-1,104.11,11.26a1.23,1.23,0,0,0,1.52-1.75" transform="translate(-72.65 -72.65)"/><path class="cls-2" d="M540,852.36c-172.52,0-312.37-139.84-312.38-312.36S367.47,227.62,540,227.62,852.36,367.46,852.36,540A312.37,312.37,0,0,1,540,852.36Zm0-616.72c-168.09,0-304.36,136.27-304.36,304.36S371.91,844.36,540,844.36,844.36,708.09,844.36,540A304.36,304.36,0,0,0,540,235.64Z" transform="translate(-72.65 -72.65)"/><path class="cls-2" d="M386,890.35a4,4,0,0,1-1.63-.35A384.17,384.17,0,0,1,180.62,672.62a4,4,0,1,1,7.4-3,2.77,2.77,0,0,1,.1.26A376.29,376.29,0,0,0,387.6,882.69a4,4,0,0,1-1.63,7.66Z" transform="translate(-72.65 -72.65)"/><path class="cls-2" d="M176.16,586.33c.94,5.12,5.32,7.13,11.25,6.06s9.2-4.4,8.21-9.76c-.94-5.12-5.21-7.17-11.13-6.08s-9.34,4.32-8.33,9.78M204.27,581c2.23,12.19-3.4,21.23-14.54,23.28s-19.87-4.23-22.12-16.54,3.28-21.19,14.54-23.28S202,568.85,204.27,581m-67.41,52.67c1,5.22,5.19,7.16,11.23,6s9.23-4.3,8.24-9.64-5.33-7.16-11.26-6-9.2,4.39-8.21,9.75m28.09-5.3c2.25,12.19-3.38,21.23-14.54,23.28-11.38,2.1-19.95-4.21-22.22-16.52s3.41-21.11,14.56-23.16,20,4.22,22.2,16.4m46.28-3.8,2.36,12.75-92.25-45.77L119,579Z" transform="translate(-72.65 -72.65)"/><path class="cls-2" d="M201.11,533.83c-.08,9.73.11,14,.11,14l-2-1.06c-4.26-2.36-5.18-2.94-39.93-3.28l-18.53-.19c-1.63,0-2.44.33-2.46,3l-.14,13.31c-13.48-7.66-10.14-28.82-16.89-37.7,0,0,15.39,1.2,42,1.45,30.94.31,31.52-.15,36.16-2.52l2-1s-.27,4.17-.38,14" transform="translate(-72.65 -72.65)"/><path class="cls-2" d="M141.92,462.09c-1.07,5.45.94,9,6.08,11.8,4.61,2.44,11.66,4.38,19.39,5.88,20.36,4,28.33,2.34,30.05-6.53,1-5.24-.65-8.74-5.1-11.37-4.53-2.78-12-4.69-20.36-6.33-20.35-4-28.32-2.42-30.06,6.55m66.87,13.47c-4.61,23.75-21.68,29.64-45.35,25.05-22.49-4.37-37.51-16.38-32.76-40.82,4.64-23.88,21.6-29.78,45.26-25.19,22.51,4.37,37.61,16.52,32.85,41" transform="translate(-72.65 -72.65)"/><path class="cls-2" d="M167.78,378.75c-2.2,5.12-1,9,3.42,12.82,4,3.36,10.44,6.77,17.66,9.89,19,8.21,27.17,8.33,30.75,0,2.12-4.88,1.21-8.67-2.56-12.19s-10.66-7.13-18.53-10.53c-19-8.2-27.12-8.43-30.74,0m62.4,27.44c-9.58,22.22-27.5,24.3-49.6,14.76-21-9.08-33.12-24-23.28-46.84,9.65-22.31,27.46-24.46,49.56-14.92,21,9.08,33.18,24.15,23.32,47" transform="translate(-72.65 -72.65)"/><path class="cls-2" d="M224.36,277.37a45.2,45.2,0,0,0-3.72,4.88L266,321.11s1.54-1.44,4.25-4.6c11-12.83,8.26-24.93-7.2-38.19-15.21-13-27.43-14-38.65-.95m53.19,48c-3,3.51-9,10-11.5,12.87-4.66,5.44-7.12,8.67-7.12,8.67l-.82-2.07c-1.74-4.54-2.06-5.58-28.43-28.17-25.56-21.93-26.23-21.88-31.32-23.06l-2.18-.48s2.82-2.92,7.34-8.21c3-3.5,8.24-10.13,11.48-13.92,12.05-14.07,31.63-34.94,61.07-9.71,31.72,27.2,13.46,50.1,1.48,64.08" transform="translate(-72.65 -72.65)"/><path class="cls-2" d="M299.48,211.22c-3.94-3.28-5.88-5.15-6.46-5.73.24.52,1.4,2.69,3.5,7.91l10.93,27,14.39-10.51Zm61.19,39.42c-6.81,5-12.27,9.27-12.27,9.27a8.29,8.29,0,0,0-1.32-8.07c-2.13-2.9-6.69-6.59-12.12-11.1l-3.89-3.15L312,251.51l1.84,4.68c2.62,6.53,4.66,12.06,6.78,15a8.28,8.28,0,0,0,7.29,3.7s-4.44,2.95-10.7,7.52c-6.45,4.7-10,7.55-10,7.55,1-5.89-1.56-12.9-7.31-28.62l-17.42-47a18.44,18.44,0,0,0-2-3.87,3.36,3.36,0,0,0-2.09-1.49L306,188.85a4.24,4.24,0,0,0,.88,2.38,16.68,16.68,0,0,0,3,3.11l38.64,31.52c13,10.57,18.77,15.1,24.69,15.94,0,0-5.08,3.43-12.57,8.89" transform="translate(-72.65 -72.65)"/><path class="cls-2" d="M413.09,138c-.48,4.58-.66,5.91,12.68,38l15.65,37.58s-3.07,1-9.69,3.79c-7.15,3-12.63,5.51-12.63,5.51L373.4,182a59.94,59.94,0,0,1-6.42-7l9,21.68c13,31.1,13.6,31.32,17.61,34.69l1.7,1.41S392,233.91,385,236.85c-7.48,3.1-10.38,4.57-10.38,4.57l.21-2.22c.35-4.54.64-5.92-12.68-37.95-13-31.06-13.55-31.32-17.56-34.66l-1.75-1.42s4.05-1.43,13.76-5.48c8.12-3.38,12.2-5.32,12.2-5.32l45.67,40.75a56.76,56.76,0,0,1,6.42,7l-9-21.55c-13-31.08-13.57-31.33-17.58-34.68l-1.7-1.4s3.27-1.12,10.32-4.06c7.48-3.11,10.38-4.57,10.38-4.57Z" transform="translate(-72.65 -72.65)"/><path class="cls-2" d="M473.81,138a84.94,84.94,0,0,1-3.2-8c0,.6,0,3.06-.46,8.64l-2.42,29,17.61-2.89Zm36.79,62.8c-8.35,1.37-15.16,2.72-15.16,2.72a8.22,8.22,0,0,0,2.48-7.8c-.58-3.53-3-8.89-5.8-15.36l-2.05-4.59-23.31,3.8-.46,5c-.62,7-1.3,12.87-.72,16.42a8.19,8.19,0,0,0,4.83,6.59s-5.29.65-12.94,1.89c-7.88,1.3-12.3,2.25-12.3,2.25,3.55-4.81,4.45-12.23,6.42-28.85l5.7-49.85a18.53,18.53,0,0,0,0-4.34,3.28,3.28,0,0,0-1.22-2.27l33.73-5.51a4,4,0,0,0-.31,2.51,17.6,17.6,0,0,0,1.26,4.13L511,173.16c6.83,15.32,9.91,22,14.83,25.39,0,0-6.11.75-15.24,2.25" transform="translate(-72.65 -72.65)"/><path class="cls-2" d="M611.85,179.55c-5.15-.74-8.48,2.75-9.33,8.7s1.23,10.12,6.6,10.91c5.16.73,8.45-2.65,9.32-8.61s-1.11-10.2-6.59-11m-4,28.31c-12.25-1.79-19-10-17.37-21.23S600.84,169.19,613.2,171s19,9.9,17.39,21.23-10.48,17.42-22.73,15.65m-28.28-80.69c-5.26-.75-8.45,2.63-9.32,8.71s1.11,10.1,6.49,10.87,8.58-2.72,9.44-8.69S585,128,579.58,127.17m-4,28.3c-12.26-1.78-19-10-17.38-21.23,1.68-11.44,10.38-17.55,22.74-15.75s18.91,10,17.27,21.21-10.38,17.54-22.63,15.77m-11.2,45-12.83-1.86L624.41,126l12.72,1.86Z" transform="translate(-72.65 -72.65)"/><path class="cls-2" d="M653.63,220c-9.18-3.21-13.29-4.4-13.29-4.4l1.62-1.5c3.62-3.3,4.46-4,15.92-36.75L664,159.9c.53-1.54.46-2.41-2-3.28l-12.56-4.4c11.57-10.29,30.53-.36,41.07-3.89,0,0-6.06,14.18-14.84,39.3-10.19,29.17-10,29.87-9.19,35l.35,2.2S663,223.24,653.68,220" transform="translate(-72.65 -72.65)"/><path class="cls-2" d="M740.36,186.74c-4.83-2.73-8.87-2-13.1,2-3.77,3.6-7.89,9.64-11.76,16.5-10.22,18-11.21,26.13-3.36,30.58,4.64,2.63,8.51,2.15,12.42-1.21,4.06-3.43,8.23-9.85,12.46-17.3,10.2-18,11.31-26.06,3.34-30.59m-34,59.12c-21.06-12-21.21-30-9.31-50.94,11.29-20,27.44-30.36,49.11-18.07,21.15,12,21.35,29.93,9.47,50.89-11.31,19.95-27.61,30.39-49.27,18.12" transform="translate(-72.65 -72.65)"/><path class="cls-2" d="M811.27,237.84c-4.13-3.7-8.24-3.8-13.24-.83-4.44,2.69-9.73,7.74-15,13.6-13.83,15.43-16.51,23.11-9.78,29.15,4,3.55,7.83,3.9,12.35,1.43,4.71-2.46,10.14-7.83,15.87-14.22,13.81-15.42,16.59-23,9.78-29.13m-45.82,50.45c-18-16.15-14.32-33.79,1.76-51.73,15.29-17.06,33.26-23.77,51.79-7.16,18.11,16.21,14.47,33.77-1.58,51.7-15.3,17-33.44,23.79-52,7.19" transform="translate(-72.65 -72.65)"/><path class="cls-2" d="M822.76,353.72c-8-12.58-9-20.6-9-20.6s2.37-1.23,7.73-4.66c5.85-3.74,9.33-6.25,9.33-6.25-2.8,6.59-4.59,14.34,1.47,23.79,4.18,6.54,9,10.86,15.24,6.86,4.88-3.1,4.64-7.35,4.18-13.65L851,328.34c-.67-10.27.73-19.69,10.77-26.11,13.17-8.41,25.26-3.93,35.67,12.35,7.42,11.61,8.44,19.46,8.44,19.46s-2.45,1.3-8,4.86c-5.75,3.67-8.84,5.92-8.84,5.92,3.16-7.5,3.94-14.88-1-22.57-4.06-6.33-8.43-9.32-13.52-6.08-4.57,2.94-4,7.25-3.56,14.39l.61,9.35c.85,11.42-.66,20.21-11.38,27.07-16.09,10.29-28,1.55-37.48-13.26" transform="translate(-72.65 -72.65)"/><path class="cls-2" d="M919.42,391.78a82.84,82.84,0,0,1,7.24-4.76c-.6.08-3,.63-8.57,1.29l-28.89,3.6,6.42,16.64Zm-54,48.89c-3-7.88-5.75-14.28-5.75-14.28a8.18,8.18,0,0,0,8.13.83c3.36-1.29,8.1-4.74,13.85-8.82l4.08-2.95-8.51-22-5,.57c-7,.83-12.88,1.36-16.23,2.66a8.16,8.16,0,0,0-5.47,6.08s-1.69-5-4.51-12.29c-2.87-7.44-4.71-11.59-4.71-11.59,5.44,2.51,12.88,1.86,29.56.39l50-4.66a17.11,17.11,0,0,0,4.24-.88,3.3,3.3,0,0,0,2-1.62L939.39,404a4.31,4.31,0,0,0-2.51.22,17,17,0,0,0-3.79,2.08l-40.51,29.18c-13.57,9.83-19.46,14.22-21.79,19.71,0,0-2-5.8-5.35-14.45" transform="translate(-72.65 -72.65)"/><path class="cls-2" d="M974.51,480.36c1.3,8.94,6.23,14.42,12.53,18.27-12.72,1.88-22.21-4.55-24-16.58-1.76-11.8,5.48-20.69,18.17-22.58-4.91,5.41-8,12.06-6.72,20.89m-58,39.35c-4.32-1.59-6-2-32.94,1.95l-.7.1s-4.88-8.53-7.12-23.64C872,473,881.08,452.74,909,448.6c30-4.44,45.82,10,50,38.14,2.38,16.14.06,23.4.06,23.4s-2.44.13-9.54,1.17c-6.07.91-10,1.73-10,1.73,6.86-6.52,9.37-11.81,7.8-22.34-2.24-15.12-11.69-24.49-34.25-21.16-18.69,2.76-28.37,10-25.81,27.34a25.21,25.21,0,0,0,1,4.54c16.7-2.48,20.87-3.67,24.54-6.57l1.77-1.44s.41,4.29,1.76,13.45c1.47,10,2.24,13.58,2.24,13.58Z" transform="translate(-72.65 -72.65)"/><path class="cls-2" d="M881.62,584.3l-4.37-.46,2.22-42.08c.32-6.26.36-8.93.36-8.93l1.91,1.15c4.15,2.54,5,3.17,39.73,5,33.65,1.79,34.15,1.35,38.91-.84l2-.94s-.44,3.91-1,14.56-.52,14-.52,14l-2-1.28c-4.25-2.76-6.55-3.46-32.8-4.86l-35.72-1.88-.41,7.75c-.77,14.33,2.49,16.36,8.52,21,0,0-4.61-.83-16.83-2.17" transform="translate(-72.65 -72.65)"/><path class="cls-2" d="M872.93,604.54c1.89-9.65,2.49-13.9,2.49-13.9l1.72,1.41c3.88,3.13,4.56,3.84,38.62,10.53,33.06,6.49,33.61,6.13,38.62,4.64l2.12-.64s-1,3.82-2.92,13.7c-2,10.32-2.49,13.89-2.49,13.89l-1.72-1.4c-3.88-3.12-4.56-3.84-38.62-10.53-33.08-6.5-33.61-6.14-38.61-4.64l-2.15.65s1-4,2.94-13.71" transform="translate(-72.65 -72.65)"/><path class="cls-2" d="M907.92,706.18,896.45,684l-30.39,7.63c-17.94,4.43-21.86,6.3-24.63,8.7,0,0,1.27-3,5.29-13.58l4.54-11.9,47.11-10.54c-30.07-11.46-31.75-11.59-36.93-11l-2.21.3s1.69-3.83,5.19-13,4.81-13.28,4.81-13.28L870.7,629c3.3,3.72,3.84,4.55,36.3,16.91,31.47,12,32.07,11.71,37.26,11.07l2.2-.25s-1.62,3.6-5.21,13c-3.74,9.83-4.79,13.28-4.79,13.28L935,681.32c-3.11-3.55-4.17-4.68-35.53-16.64l15,25c4.71,8.11,6.79,11.13,9.93,12.34a5.25,5.25,0,0,0,5.09-.66s-1.71,3.8-5.5,13.75c-4.19,11-5.37,14.8-5.37,14.8-.68-3.11-3-9.18-10.67-23.76" transform="translate(-72.65 -72.65)"/><path class="cls-2" d="M816.57,744.78l-3.6-2.54,22.42-35.68c3.33-5.31,4.66-7.61,4.66-7.61l1.11,1.92c2.39,4.24,2.87,5.23,32.29,23.71,28.53,17.94,29.16,17.78,34.39,18.19l2.21.15s-2.28,3.21-7.95,12.24-7.27,12-7.27,12l-1.14-2.1c-2.37-4.49-4-6.21-26.28-20.21l-30.3-19L833,732.38c-7.64,12.17-5.78,15.51-2.78,22.47,0,0-3.61-3-13.63-10.07" transform="translate(-72.65 -72.65)"/><path class="cls-2" d="M799,758.43c6.35-7.51,8.93-10.94,8.93-10.94l.83,2.06c1.88,4.61,2.12,5.57,28.66,28,25.71,21.72,26.38,21.67,31.48,22.8l2.17.47s-2.71,2.85-9.2,10.55c-6.81,8-8.92,10.94-8.92,10.94l-.84-2.06c-1.88-4.61-2.12-5.57-28.65-28-25.72-21.7-26.39-21.65-31.49-22.78L789.8,769s2.87-3,9.2-10.54" transform="translate(-72.65 -72.65)"/><path class="cls-2" d="M727.7,828.38l-2.49-3.64,33.41-25.62c5-3.8,7-5.51,7-5.51l.36,2.2c.77,4.8.89,5.89,22,33.44,20.48,26.7,21.11,26.79,25.86,29l2,.92s-3.26,2.22-11.71,8.69-11,8.7-11,8.7l-.35-2.37c-.66-5-1.6-7.22-17.57-28.06l-21.75-28.36-6.16,4.71C736,831.21,736.55,835,737,842.56c0,0-2.35-4-9.26-14.18" transform="translate(-72.65 -72.65)"/><path class="cls-2" d="M673.39,857.06l-1.81-4,40.26-20.73c5.57-2.87,7.89-4.18,7.89-4.18v2.23c-.08,4.87-.18,6,15.72,36.85,15.41,30,16,30.15,20.33,33.16l1.82,1.28s-2.32,1.07-7.86,3.92L710.4,925.83s-1.06-2.3-3.67-7.35c-2.75-5.36-4.28-7.84-4.39-8,.14,0,1.25.66,5,.92,3.21.19,7.66-1.07,12.49-3.55l10.9-5.63L720,881.28l-8.44,4.34c-4.85,2.49-8.59,5.06-10.31,7.79a16.81,16.81,0,0,0-2.34,4.58,108.65,108.65,0,0,0-4.83-10.14c-3.34-6.5-5.26-9.42-5.34-9.62a17.26,17.26,0,0,0,5.14.87c3.2.17,7.47-1.39,12.33-3.88l8.43-4.35L703.7,849.66l-9.86,5.08C681.06,861.31,681,865.15,680,872.68c0,0-1.61-4.39-6.61-15.62" transform="translate(-72.65 -72.65)"/><path class="cls-2" d="M607,876.61l-.75-3.4,60.23-17.59,3.61,12.44-22,66.25,19.55-5.72c5.23-1.54,9.24-3.91,11.46-6.25,2.37-2.62,3.07-3.9,3.1-4.16a83.42,83.42,0,0,0,2.34,9.22c1.62,5.54,2.59,8,2.59,8l-57.44,16.78-3.55-12.1,21.91-66.59-20.65,6c-13.79,4-14.59,7.89-16.94,15.09,0,0-1.52-9.34-3.47-18" transform="translate(-72.65 -72.65)"/><path class="cls-2" d="M538.39,883.28V879.8l62.55-5.34L602,887.38,567.3,948l20.31-1.73c5.43-.47,9.83-2,12.46-3.85,2.85-2.12,3.79-3.24,3.89-3.48a79.31,79.31,0,0,0,.46,9.5c.5,5.77.94,8.4.94,8.4l-59.64,5.1-1.08-12.58,34.64-61-21.45,1.84c-14.32,1.23-15.87,4.85-19.61,11.43,0,0,.36-9.45.17-18.38" transform="translate(-72.65 -72.65)"/><path class="cls-2" d="M476,877.93l.7-4.35,45,4.88c6.23.66,8.88.83,8.88.83l-1.23,1.85c-2.77,4-3.45,4.86-7.19,39.39-3.62,33.48-3.21,34-1.29,38.85l.83,2.09s-2.52-.41-8.74-1.08l-44-4.76s.39-2.53,1-8.16c.65-6,.72-8.87.75-9.11.1.14.68,1.25,3.7,3.55,2.58,1.89,7,3.31,12.38,3.89l12.2,1.33,2.52-23.36-9.43-1c-5.41-.58-10-.49-12.91.82a17.84,17.84,0,0,0-4.47,2.55c0-.12.72-3.3,1.56-11.13.8-7.25.82-10.74.85-11a16,16,0,0,0,3.79,3.56c2.59,1.91,7,3,12.42,3.55l9.44,1,2.58-23.71-11.06-1.19c-14.27-1.56-16.45,1.58-21.4,7.34,0,0,1.09-4.54,3.09-16.66" transform="translate(-72.65 -72.65)"/><path class="cls-2" d="M391.35,916.33a13.53,13.53,0,0,0,2.94,4.27,25.55,25.55,0,0,0,11.25,6.4l6,1.83,8.79-29c9.79-32.26,9.47-32.82,8.5-38l-.43-2.17s3.91,1.42,13.33,4.28,13.58,3.88,13.58,3.88l-1.57,1.57c-3.48,3.53-4.28,4.14-14.35,37.39l-8.45,27.92,6,1.81a25.88,25.88,0,0,0,12.92.9c3.43-.9,4.66-1.74,4.83-1.93,0,.11-1.2,3.14-2.95,8.89-1.64,5.45-2.27,7.91-2.27,7.91l-63-19.1s.86-2.41,2.51-7.83c1.74-5.77,2.43-8.83,2.49-9" transform="translate(-72.65 -72.65)"/></svg>