<svg id="Layer_1" data-name="Layer 1" xmlns="http://www.w3.org/2000/svg" viewBox="0 0 1080 1080"><defs><style>.cls-1{fill:#1b5e42;}</style></defs><path class="cls-1" d="M535.58,962c-7.39-4.66-10-11.21-10-20,.29-59.21.15-118.43.17-177.65,0-2.75-.19-5.58.44-8.19,1.69-7.19,6.34-11.54,13.84-11.74s12.5,3.79,14.46,10.94c.84,3.08.7,6.5.7,9.77,0,58.68-.1,117.35.17,176,0,9-2.06,16.09-9.95,20.89Z"/><path class="cls-1" d="M155.89,540.9c19.25,9.74,38.21,20.72,58.21,29.16,41.75,17.63,85.74,27.46,130.28,35.06a1163,1163,0,0,0,258.71,14.52c85.12-4.56,169.42-15.15,250.33-44.13,23.5-8.43,46.05-18.91,66.53-33.4,1.5-1.06,3.17-1.89,6.74-4-3.35,12-5.67,22.4-9.06,32.37-32.77,95.94-98.83,157.88-194.18,190a516.77,516.77,0,0,1-126.73,25.21c-4,.3-8.09,0-13.19,0,0-9.59.24-18.84,0-28.07-.69-22.84-17.05-39.9-40.19-42.19-20.14-2-41.2,13.33-45,34.18-1.78,9.85-.74,20.21-1,30.35-.06,1.6-.18,3.21-.33,6.11-7.83-.62-15.31-1.13-22.78-1.83-68.61-6.31-134.36-22.08-193.12-59.87-66.71-42.9-107-104.3-125.19-180.88a7.35,7.35,0,0,1,0-2.59"/><path class="cls-1" d="M803.24,540.57c2.06-1,6.16-1.88,8.7-4.37,19.73-19.32,39.47-38.66,58.55-58.62,8.19-8.59,2.77-22.77-8.77-23.28-4.66-.22-10.55,2.92-14.13,6.35-18,17.2-35.41,35-52.94,52.65a26.62,26.62,0,0,0-5.43,7.11c-4.26,9.06,2.44,19.75,14,20.16M223.92,511.33c1.91-1.28,6.38-3.34,9.69-6.62,22.63-22.27,45-44.8,67.45-67.27a24.7,24.7,0,0,0,4.16-5c3.65-6.43,3.29-12.74-2.18-17.9-5.19-4.86-11.3-5.22-17.33-1.35a38.84,38.84,0,0,0-6.17,5.38q-32.53,32.46-65,65c-2.29,2.32-4.7,4.74-6.18,7.57-4.8,9.2,2.28,20.31,15.58,20.19m187.36-101.8c-3.7-4.33-6.34-9.19-10.42-11.82-6.59-4.23-12.63-.72-17.58,4.21q-56.4,56.29-112.65,112.71c-7.15,7.16-7.49,15.92-1.49,21.79,6.2,6.07,14.32,5.65,21.76-1.76q56.44-56.2,112.62-112.72c2.88-2.9,4.49-7.08,7.76-12.41m289,147.56c5.36-3.83,10.21-6.39,13.91-10.07Q768.79,492.86,823,438.34c1.73-1.74,4.47-3.48,4.75-5.49.71-5.33,1.8-11.35.05-16.08-2.22-6-8.88-7.53-14.75-5.65-3.92,1.26-7.59,4.29-10.61,7.27q-54.26,53.94-108.2,108.13c-2.13,2.12-5.15,4.27-5.68,6.83-1,4.76-1.88,10.49,0,14.55,1.71,3.72,7.08,5.76,11.72,9.19m45.26-133.24c-3.75-4.38-6.36-9.4-10.51-11.86-6-3.56-12.19-1.21-17.08,3.69q-63.94,64-127.84,128c-7.22,7.25-7.51,15.84-1.42,21.79s14.64,5.36,21.83-1.81q63.76-63.54,127.26-127.36c2.88-2.92,4.5-7.1,7.76-12.41M513,394.67c-3.79-4.21-6.59-9-10.76-11.6-6.26-3.95-12.23-.69-16.94,4Q414.05,458.12,343,529.34c-6.75,6.77-7.08,15.46-1.57,21.23,5.93,6.19,14.61,6.07,21.78-1q71.27-71,142.23-142.33c2.9-2.92,4.42-7.2,7.56-12.53m1.62,174.55c2.28-1.62,7.3-4.25,11.14-8.06Q594.55,492.78,663,424.07a33.89,33.89,0,0,0,5.82-6.82c3.46-6.16,2.86-12.34-2.19-17.29s-11.21-5.51-17.32-1.84a33,33,0,0,0-6.19,5.34Q574.2,472.3,505.39,541.2a38.68,38.68,0,0,0-5.81,6.86c-5.8,9.42.67,21,15,21.16m-87.65.1c2.08-1.33,6.69-3.24,10-6.5q77.85-77.43,155.37-155.18a22.39,22.39,0,0,0,3.7-4.39c3.76-6.48,3.19-12.76-2.22-17.95-5.12-4.9-11.19-5.58-17.27-1.62a44.2,44.2,0,0,0-6.77,5.94q-75.63,75.58-151.17,151.24a40.48,40.48,0,0,0-6.38,7.45c-5.65,9.48,1.1,21.06,14.76,21m113.71,25.23c-85.76-2.27-170.71-9.19-253.91-30.83-37.13-9.64-73.67-21.4-105.69-43.27a107.52,107.52,0,0,1-26.72-26.08c-9.85-13.89-7.49-27.41,3.5-40.63,15.51-18.69,36.3-29.78,57.92-39.26,46.89-20.51,96.37-31.67,146.68-39.84,71.91-11.7,144.36-14.94,217-12.75,81.71,2.44,162.62,11.6,241.09,36,33.24,10.33,65.79,22.61,92.77,45.77a67,67,0,0,1,12.52,14c12,18.5,7.22,36.64-13.21,53.58-20.95,17.39-45.27,28.57-70.58,37.67-54.56,19.64-111.06,31-168.68,36.25-44.15,4-88.47,6.34-132.7,9.42"/><path class="cls-1" d="M473.47,263.58c.46,13.47-7.6,27.48-19.19,39.73-6.24,6.62-14.52,7-20.59,1.69s-7-13.43-1.52-20.61c5.63-7.45,12.86-14.34,11.55-24.48-.84-6.5-2.8-13.51-6.37-18.89-18.89-28.43-17.81-53,4.32-79.37,9.52-11.32,18.91-22.73,28.42-34.05,7.3-8.7,15.71-10.34,22.78-4.61s7.1,14.7.07,23.25c-9.41,11.41-19,22.7-28.5,34-14.08,16.66-14.61,27-2.22,44.78,8,11.56,11.31,21.54,11.25,38.57"/><path class="cls-1" d="M619.81,258.76c-2.58-5.86-4.34-12.24-7.85-17.46-19.26-28.65-18.28-53,3.73-79.32,10-12,19.85-24.08,30-35.91,5.72-6.67,12.66-8.09,19-4.59,6.7,3.7,9,9.68,7,16.67-.93,3.5-3.55,6.73-5.94,9.65-9.54,11.65-19.33,23.07-28.92,34.69-11.81,14.32-12.19,25.55-1.55,40.86,18.32,26.41,16.69,53.38-4.78,77.92-7.1,8.12-15.41,9.61-22.26,4s-7.08-14.22-.68-22.58c9.61-12.55,10.56-14.65,12.19-23.91"/><path class="cls-1" d="M572.92,118.76c3.28,2.68,8.09,5.13,10.6,9.06,3.75,5.87,1.76,12.15-2.6,17.41-11.19,13.46-22.69,26.7-33.6,40.41-8.94,11.23-9,23-1.06,34.88,1.21,1.83,2.53,3.58,3.77,5.38a59.58,59.58,0,0,1-8.75,77.66c-6.47,6-14,6.64-20,1.78-6.3-5.09-7.2-13.13-2.3-20.57.59-.9,1.26-1.79,1.93-2.64,13.75-17.39,14-26.62,1.34-44.89-14.76-21.28-15.13-46.57.35-67.29C534,154.61,546.74,140.24,559,125.53a16.18,16.18,0,0,1,5.16-4c2.15-1.06,4.59-1.52,8.75-2.8"/><path class="cls-1" d="M781.83,767.63c8.77-4.69,16.67-8.94,25.13-13.46,1.22,1.86,2.51,3.49,3.47,5.3q32.49,62.06,64.88,124.12c5.09,9.78,4.58,16.3-1.46,21.54-6.44,5.56-14.92,5.1-20.38-1.38a42.39,42.39,0,0,1-4.75-7.63q-31.89-61-63.67-122c-1-1.89-1.89-3.82-3.22-6.5"/><path class="cls-1" d="M274,754l24.66,13.58c-1.13,2.44-2,4.62-3.13,6.72q-31.41,60.35-62.88,120.64c-.75,1.45-1.49,2.92-2.34,4.32-5,8.19-12.9,11.14-20.11,7.53-7.57-3.83-10.27-12.33-5.73-21.1Q238,820.86,271.92,756.3A17,17,0,0,1,274,754"/></svg>