<svg id="Layer_1" data-name="Layer 1" xmlns="http://www.w3.org/2000/svg" viewBox="0 0 889.26 844.51"><defs><style>.cls-1{fill:#fff;}.cls-2{fill:#1b5e42;}</style></defs><path class="cls-1" d="M934.76,672.29H124a39.14,39.14,0,0,1-39.13-39.15h0V143.71A39.14,39.14,0,0,1,124,104.56H934.76a39.15,39.15,0,0,1,39.15,39.15h0V633.14a39.15,39.15,0,0,1-39.15,39.15h0" transform="translate(-84.74 -104.44)"/><path class="cls-2" d="M934.76,672.41H124a39.3,39.3,0,0,1-39.26-39.27V143.71A39.3,39.3,0,0,1,124,104.44H934.76A39.31,39.31,0,0,1,974,143.71V633.14A39.31,39.31,0,0,1,934.76,672.41ZM124,104.69a39.05,39.05,0,0,0-39,39V633.14a39.05,39.05,0,0,0,39,39H934.76a39.08,39.08,0,0,0,39-39V143.71a39.08,39.08,0,0,0-39-39Z" transform="translate(-84.74 -104.44)"/><path class="cls-2" d="M181.8,210.09l184.69.44.41,56.37h-5.09s-5.95-30.24-31.19-40.27-44.44-7.34-84.05-7.34L246.41,296H275.7s20.22,2.06,30.7-8.71,14.47-17.87,15.51-23.48h3.84v81.66h-3.84s-3.41-31.61-28.34-38.24c0,0-10.48-3.25-35-3.25H246.4l-.12,68.4s-2.67,28.38,18.62,31.05l21.87,5.06V412H181.65v-3.55s23.62.45,29.83-10.61,5.46-25,5.46-25l-.82-133s-.2-25.44-24.73-25.44l-9.74-.45Z" transform="translate(-84.74 -104.44)"/><path class="cls-2" d="M847.54,215.15s2.37,50.55,6.5,65.33h-4.13s-9.47-43.16-47.9-57.94-85.72-2.95-100.79,39.32-10.05,99.61,28.07,124.73,100.21,23.65,141.91-39l8,6.21s-34.59,52.62-81,61.49-93.83-4.54-122.82-44.76-23.67-112.4,30.17-146.12,101.15-9.85,129.82-9.85Z" transform="translate(-84.74 -104.44)"/><path class="cls-2" d="M495.06,244.5s2.2-.47,2.27.4-.58,1.09-1.14,1.09-1.13-1.49-1.13-1.49m-25.43-6.84h2.15s.51-.22.51.74-.51,1.33-1,1.33-.67-.89-1.18-.89-.53-1.18-.53-1.18m-3.09-5.89v1.4H465.3l.23.89h2.05v-2.44Zm0-2.42h1.18v1.16h-1.09Zm32.34-46.56c.22-.37.74-1.17.74-1.17s.44-.74,1-.74,1.11-.51,1.26,0a4.86,4.86,0,0,1,.14,1.47,1.24,1.24,0,0,1-.58,1.18c-.44.37-.51.15-1,.51s-.08.6-.66.6h-1.11s-.8-.74.15-1.85M463,211.45l2.65-.07a4.11,4.11,0,0,0,2.06-.89c1-.82,1-3.46,1-3.46l.29-2.29s1.25-1.31,1.69-1.91-1-1.25-2.13-.6-.81.45-1.11,1.78.22,3.09-.51,3.75-1,1.56-1.47,1.85-2.73-.74-2.43,1.84m.21-6s-1.09-1-2.36,1.1-.22,2.22-1.69,2.74c0,0-.15,1.39,1.47,1.09a4.88,4.88,0,0,0,2.66-1.61s1.47-1.26,1.32-2.44-1.47-.8-1.4-.88m9-15.09s-.37,1-1,1-2.22,0-2.36,1,.72,1.33,1.92,1.33,2.64-.14,2.93-1,.44-2.73-.29-2.73a1.93,1.93,0,0,0-1.18.38m-11.91-.82a78.75,78.75,0,0,1,16.4-10.32c9.3-4.29,17.87-5.18,19.93-4.13s3.4,2.35,1.18,3.68-13.29,5.75-13.29,5.75a22.14,22.14,0,0,1-8.42,1.78c-4.57,0-7.37-1.62-10,.73a10.24,10.24,0,0,1-5.77,2.51m146,105.4a5,5,0,0,1-1.71-3.47c-.29-2.5.73-10.82.73-10.82s1.26-3.61,2.44-3.46l-.51,13.17s-.22,3.47-1,4.58m-1.27,8.17-4.49-.44a1.65,1.65,0,0,1,.16-1,3.59,3.59,0,0,1,2.13-1.84,12.67,12.67,0,0,1,2.8-.51ZM592,290.48s2.86,1,3.53,3,.37,2,1.24,3.69a4,4,0,0,0,3.69,2.13c1-.06,1.84-2,1.25-3.6s-4.78-5.31-4.78-5.31a11.29,11.29,0,0,1-2.14-2.06,2.92,2.92,0,0,0-2.28-1s-2.14-.51-2.2.53,1.69,2.58,1.69,2.58m-19.89-4s.14.58-.66,1.32a3.27,3.27,0,0,0-.82,2.15v1.16s-.07,1.55.89,1.19.15-1.19,1-1.19,1-1.47,1-1.47l.14-2.22s-.22-1.6-1.54-.94M533,342v1.17h1.24v-1Zm-3.67,1.14h1.24v1.21h-1.24Zm-16.08-7.27,4.78-4.05s1.69-1.33,3.09-.51,1.48,1.47.22,4.49-3.6,4.42-4.33,8.11-1.63,5.22-2.74,5.73-2.95.22-3.08-2.42a32.23,32.23,0,0,1,.51-6.93c.13-.58,1.55-4.42,1.55-4.42m-21.88-28.12-.15,3.75s.44,1,1.33,1,1.25,0,1.25-1.4.06-4.2.06-4.2Zm71.78-107.88a30.59,30.59,0,0,0,1.76,5,4,4,0,0,0,3,2.22s1.91-1.33.13-3.4a44.76,44.76,0,0,1-3.1-4.15s-.58-1.17-1.76.31M530.4,224.2s1.18.74,1.33-.58,2.06-.75,1.77,1.32a7,7,0,0,0,.16,3.24s.73,1.93-1.2,1.93-2.8-2.22-2.8-2.22-1.91-3.69.74-3.69M521.69,228s2.51,0,2.07-1.91-3.55-2.22-5.46-.88-1.62,5.15-1.33,6.94,3.84,1.16,3.1,4.42-1.77.29-1.48,5a3.32,3.32,0,0,0,2.51,1.18,41.45,41.45,0,0,1,4.59.44,2.6,2.6,0,0,0,.13-3.55c-1.46-2.06-3.1-3.09-1.46-4.27s1.62-3.39.13-3.24-4-2.08-4-2.08-1.62-2.36,1.17-2.07m-75,61.83L429.51,289s-2.06-6.51-3.84-8.57-1.46-8.28-1.46-8.28a16.81,16.81,0,0,1,1.17-9.16c2.07-4.44,0-5,2.67-9.76a70.41,70.41,0,0,1,7.39-10l3.54.59,6.22-7.1h3.53s2.25,1.16,2.46.65a3.86,3.86,0,0,0,.3-.8l12.31.14.13,6,10,10.08s2.36.14,2.36-2.06a6,6,0,0,1,.59-3.11l4.73.16,4.87,4,10.32-.29a36.08,36.08,0,0,0,3.4-7.39s.44-1.62-1-1.62a3,3,0,0,1-1.93-.44l-1.17-.58h-7.8l-.15-2.22.29-3.4.75-1.17h7.08l.73-1.33h4l.87,2.06.6,1H504a4.07,4.07,0,0,1,2.8-2.22,7.18,7.18,0,0,0,2.37-.59,2.34,2.34,0,0,0-.89-2.21c-1.19-1-3.7-2.81-4-4.14a8.26,8.26,0,0,0-.44-1.62l3-1.18s.29-1.78-1.33-1.49a12.39,12.39,0,0,0-3.84,1.93s-.29.29-.29,1.47V228l-1,1.2h-3l-.13-4.15s-1.62-.74-2.51-.29-1,3.68-2.07,4-2.81,2.07-2.81,3.55S489,234,487.26,234a24.19,24.19,0,0,1-2.95-.15l-.45,6.94-2.06-.29-2.36-5.17s0-1.62.14-3.4-2.95-5-2.95-5-3.24-3.4-2.8-.89a17.42,17.42,0,0,0,.89,3.55l1.33,2.06.58,1-.29,1-1.49-.6a7.65,7.65,0,0,0-.42,2.22v1.33h-1l.13-2.95-1.91-2.07-1.65-2-.6-1.64s1-1.18,0-1.33a27.34,27.34,0,0,0-3.84.15l-.87.45s-.44.73-1.48-.14a5.53,5.53,0,0,1-1.33-1.48s0-.45-.74.29-.75,2.81-2.06,2.81a27.41,27.41,0,0,0-3.26.29s-.14-.29-.14,1v2.51c0,1,.89,1.47,0,1.62s-6.95.14-6.95.14l-1.62-.89-1.17-1.91c-.16-1.33,4-3.84,4-3.84a26.5,26.5,0,0,0,.45-3.55,5.43,5.43,0,0,1,1.19-2.64l1.91-.31,2.22,1.33s2.07,1.48,2.8,0,3.4-2.2,3.4-2.2l-.16-3.84s.45-2.51,2.37-2.51,3.4-.89,4.73-.89,2.8.58,3.53-.88,4.59-1.2,4.59-1.2l.3-2.54.8-.8.59-.76.74.09.08,4.49a18.72,18.72,0,0,0,4.71.66c2.14-.06,3-.15,3.83-1.11s1.84-4,3.1-5,6.18-.15,6.18-.15.89-1.26-.67-1.18a38.39,38.39,0,0,1-4.13-.15l.53-2.87a5.64,5.64,0,0,1,1.63-1.84,21,21,0,0,1,2.2-1.4s.88-.8.44-1.55-3.4-1.47-3.91.3-3.46,4-3.46,4-.58,3.38-2.2,5-4.65,3-5.38,2.87-.08-5.14-1.11-4.92a15.84,15.84,0,0,1-1.69.28s-.8,0,.58-2.21,1.49-2.79,1.4-3.15.82-.6,2-.6,8.34-2.49,9.54-4.11a5.83,5.83,0,0,1,4.57-2.51c1.91-.16,5-.16,6.64,1.33s2.51,1,2.07,2.2a1.71,1.71,0,0,1-1.78,1v3.55s3.4.74,3.84-1.19.89-2.2.89-2.2,5.75-1.2,7.23-2.51a2.93,2.93,0,0,0,1.18-2.67H524l.6-3.68s2.51.58,2.35,2.64a14.06,14.06,0,0,0,.16,3.55s1.77,1.47,3.1.29-.44-3.53-1.33-4.42-1.62-.75-1.18-3.84,1.76-4.13,1.76-4.13l5.17-.75s.16,3.11,1.64,3.11,1.62-2.36,1.62-2.36,6-.3,2.51-3.26A32.15,32.15,0,0,1,536,174.3h.09a98.42,98.42,0,0,1,50.87,36l-.77,2.54S586,219,587.66,221s6,7.53,6,7.53,4,3.1,4,5.31a12.23,12.23,0,0,0,.6,3.84l1.91.59s1.2-1.17,1.78.89a10.19,10.19,0,0,1,.59,4.13c-.15.73-2.22-1.33-2.37.73s-.13,7.55-1.91,7.68-3-.73-2.82,1.49-.29,5.61,1.64,6.79a9,9,0,0,1,4,6.93c.15,3.11-.29,9.45-1,9.9s-4.15-5.31-4.15-5.31-2.51-1.48-2.22,1.31.31,4.73,1.93,6.95,6.06,7.24,4.13,9.74c0,0-5.46-6-7.08-9.3s-2.36-10.63-2.36-10.63,0-3.24-3.55-6.35a20.59,20.59,0,0,1-4.73-5.46s-.73-1.62-2.95,2.36-9.9,12.4-9.59,16.4,2.22,7.81-.44,10.61-4.44-.58-7.09-4.26-4.28-13.3-4.28-13.3,0-2.22-2.82-3.39-7.9-5-7.9-5l-6.55.22s-5.6-.15-6.55-.15-1.62,1.77-4.13.89-8.25-6.71-8.25-6.71-2.8-.73-1.33,1.71a56.33,56.33,0,0,0,4.49,5.82s1.49,1.82,3.24,1.82,3.11-.73,5.53.38,3,1.84,2.22,4.35-1.55,8.09-4.42,9.49-15.61,4.2-15.61,4.2-3.84,1.69-5.91-1.32-.51-4.42-5.51-12.75l-4.42-9.5s-3.24-2.87-3.4-.22,6.33,17.9,6.33,17.9A8.38,8.38,0,0,0,506,282.1c2.66,1.69,4.06,1.54,5.08,4.27s4.2,2.36,4.57,2.36,5.09-1.34,5.09-1.34,3.09-1.17,1.47,2.8-2.63,13.38-8.69,17.67-8.28,7.23-8.28,7.23a7,7,0,0,0-1.91,6.78c1,4.28,3.84,10.63.45,14.47l-4.25,3.5a3.2,3.2,0,0,0-1.93,3.17c0,2.49.31,3.76-1.4,5.74s-9.27,8.41-9.27,8.41-1.26,1.38-4.42,1.38-4.71.16-4.71.16-1.84-2.29-4.71-6.71-13.6-17.12-13.6-17.12a1.83,1.83,0,0,1-.51-2.54,1.86,1.86,0,0,1,.22-.27c1.31-1.76,1.31-2.07,1.31-2.8s.16-8.42.16-8.42-3.69-.73-3.69-3.55a14.72,14.72,0,0,0-2.52-7.86c-1.49-2.22-2.38-4.13-2.15-5.31s2.37-1.76.59-5.89l-1.77-4.13s-3.82,1.11-4-.6a18.83,18.83,0,0,1-.07-2.49Z" transform="translate(-84.74 -104.44)"/><path class="cls-2" d="M510,382.34c-54.39,0-98.48-47.4-98.48-105.87s44.09-105.9,98.48-105.9,98.51,47.41,98.51,105.9S564.39,382.34,510,382.34m88.64-202.67c-34-23.06-84.54-24.23-84.54-24.23-64.44,0-105,26.89-125,57.63s-25.14,75.38-8,112,54.39,61.19,97.55,69.18S562,389.56,562,389.56c69.47-23.36,87.2-68.87,88.38-110.86s-17.73-76-51.73-99" transform="translate(-84.74 -104.44)"/><path class="cls-2" d="M366.34,413.69l-6.93-8.12s32-21.34,79.6-15.72,93.18,35.09,131,34.5,53.84-16,62.72-27.8l8.87,10.06s-26.6,33.12-56.76,40.82-57.38,4.73-96.43-17.17-69.79-35.48-95.82-27.2-26.25,10.63-26.25,10.63" transform="translate(-84.74 -104.44)"/><rect class="cls-2" x="98.43" y="350.08" width="692.12" height="62.7"/><path class="cls-1" d="M217.3,476.46v10.61h.76a7,7,0,0,0,2.89-.51,4.6,4.6,0,0,0,1.89-1.74,7.93,7.93,0,0,0,1-3.29h.68v13h-.68c-.26-2.45-.92-4.07-2-4.84a6.33,6.33,0,0,0-3.76-1.18h-.76v7.9a8.32,8.32,0,0,0,.22,2.49,2.17,2.17,0,0,0,.88.87,3.76,3.76,0,0,0,1.78.38h.89v.7H207.16v-.7h.89a3.75,3.75,0,0,0,1.86-.41,1.72,1.72,0,0,0,.78-.92,7.26,7.26,0,0,0,.22-2.41v-17a7.91,7.91,0,0,0-.22-2.47,1.84,1.84,0,0,0-.87-.87,3.52,3.52,0,0,0-1.77-.38h-.89V475h22.42v7.41h-.8a6.89,6.89,0,0,0-1.4-3.87,6.16,6.16,0,0,0-3.26-1.76,21.85,21.85,0,0,0-4.35-.29Z" transform="translate(-84.74 -104.44)"/><path class="cls-1" d="M245.48,500.12v.7h-13.9v-.7h.89a3.63,3.63,0,0,0,1.86-.41,1.66,1.66,0,0,0,.77-.9,7.54,7.54,0,0,0,.22-2.41v-17a8,8,0,0,0-.22-2.48,2.1,2.1,0,0,0-.85-.87,3.79,3.79,0,0,0-1.78-.36h-.89V475h13.9v.71h-.89a3.64,3.64,0,0,0-1.86.4,1.76,1.76,0,0,0-.8.92,7.41,7.41,0,0,0-.21,2.39v17a8,8,0,0,0,.22,2.48,2.14,2.14,0,0,0,.87.87,3.64,3.64,0,0,0,1.78.37Z" transform="translate(-84.74 -104.44)"/><path class="cls-1" d="M257.06,476.36v11.33h1.11a12,12,0,0,0,4.08-.5,4,4,0,0,0,2.13-1.74,6.27,6.27,0,0,0,.77-3.31,6,6,0,0,0-1.41-4.37,6.33,6.33,0,0,0-4.58-1.41Zm0,12.68v7.25a8,8,0,0,0,.26,2.63,1.9,1.9,0,0,0,.94.87,6.21,6.21,0,0,0,2.49.34v.7h-13.6v-.7a6.21,6.21,0,0,0,2.49-.34,1.9,1.9,0,0,0,.92-.87,7.29,7.29,0,0,0,.28-2.63V479.52a7.43,7.43,0,0,0-.28-2.65,1.9,1.9,0,0,0-.92-.87,6.38,6.38,0,0,0-2.49-.32V475h12.34a27.48,27.48,0,0,1,7.06.64,7.12,7.12,0,0,1,3.64,2.39,6.31,6.31,0,0,1,1.41,4.1,6.08,6.08,0,0,1-2.11,4.73,8.73,8.73,0,0,1-3.79,1.75l6.4,8.76a14.32,14.32,0,0,0,1.77,2.12,3.55,3.55,0,0,0,1.86.66v.7h-8.36L258.8,489Z" transform="translate(-84.74 -104.44)"/><path class="cls-1" d="M294.24,474.38l.22,8.62h-.8a8.77,8.77,0,0,0-2.8-5.22,7.13,7.13,0,0,0-4.81-2,4.62,4.62,0,0,0-3.16,1,3.15,3.15,0,0,0-1.18,2.41,2.7,2.7,0,0,0,.43,1.51,6.14,6.14,0,0,0,1.81,1.78,40,40,0,0,0,4.25,2.23c3.12,1.49,5.2,2.89,6.29,4.22a7,7,0,0,1,1.61,4.54,7.24,7.24,0,0,1-2.6,5.56,9.36,9.36,0,0,1-6.58,2.34,11.86,11.86,0,0,1-2.38-.24,18.54,18.54,0,0,1-2.81-.94,4.34,4.34,0,0,0-1.54-.37,1.87,1.87,0,0,0-1.07.37,2.62,2.62,0,0,0-.92,1.16h-.74v-9.76h.74a11,11,0,0,0,3.31,6.28,7.87,7.87,0,0,0,5.3,2.17,5.06,5.06,0,0,0,3.5-1.16,3.57,3.57,0,0,0,1.3-2.71,3.37,3.37,0,0,0-.5-1.78,5.83,5.83,0,0,0-1.51-1.62,23.42,23.42,0,0,0-3.6-2,30.8,30.8,0,0,1-5.23-3,9.23,9.23,0,0,1-2.44-2.73,6.65,6.65,0,0,1-.85-3.32,6.91,6.91,0,0,1,2.34-5.26,8.26,8.26,0,0,1,5.87-2.17,11.11,11.11,0,0,1,2.51.29,15,15,0,0,1,2.25.87,6.06,6.06,0,0,0,1.84.62,1,1,0,0,0,.8-.31,3.28,3.28,0,0,0,.57-1.47Z" transform="translate(-84.74 -104.44)"/><path class="cls-1" d="M323,475v7h-.7a10.74,10.74,0,0,0-1.4-3.48,5.25,5.25,0,0,0-2.09-1.67,6.56,6.56,0,0,0-2.6-.36h-2V496.4a8,8,0,0,0,.22,2.48,2.14,2.14,0,0,0,.87.87,3.74,3.74,0,0,0,1.8.37h.9v.7H304.12v-.7H305a3.63,3.63,0,0,0,1.86-.41,1.85,1.85,0,0,0,.8-.9,8.15,8.15,0,0,0,.21-2.41V476.45H306a5.75,5.75,0,0,0-3.91,1.11,7.2,7.2,0,0,0-2.15,4.4h-.75v-7Z" transform="translate(-84.74 -104.44)"/><path class="cls-1" d="M349.5,475.83c-2.35,0-4.16,1.19-5.46,3.56-1.08,2-1.6,4.83-1.6,8.52q0,6.63,2.4,9.85A5.54,5.54,0,0,0,349.5,500a5.48,5.48,0,0,0,4.64-2.2c1.61-2.1,2.41-5.24,2.41-9.45s-.5-7.15-1.5-9a6,6,0,0,0-5.55-3.5m3.5,25.2a7.45,7.45,0,0,0,2.8,3.82,8.32,8.32,0,0,0,4.76,1.27,10.36,10.36,0,0,0,1.67-.14v1.16a22.47,22.47,0,0,1-5.29.72,12.33,12.33,0,0,1-6.51-1.74,10.54,10.54,0,0,1-4.32-5.09,13.1,13.1,0,0,1-10.74-13.19,12.83,12.83,0,0,1,4-9.64,14.08,14.08,0,0,1,10.16-3.84,13.92,13.92,0,0,1,10.1,3.85,12.82,12.82,0,0,1,4,9.63,13.19,13.19,0,0,1-3.11,8.75,12.15,12.15,0,0,1-7.51,4.44" transform="translate(-84.74 -104.44)"/><path class="cls-1" d="M366,475h13.7v.71H379a5.16,5.16,0,0,0-2.13.31,1.7,1.7,0,0,0-.82.87,8.9,8.9,0,0,0-.26,2.77V492.3a12.41,12.41,0,0,0,.55,4.61,4.58,4.58,0,0,0,1.77,1.88,6.23,6.23,0,0,0,3.11.73,6.88,6.88,0,0,0,3.68-.94,5.76,5.76,0,0,0,2.27-2.61,15.48,15.48,0,0,0,.75-5.77V479.63a6.09,6.09,0,0,0-.37-2.5,2.17,2.17,0,0,0-.94-1,5.75,5.75,0,0,0-2.49-.43V475h9.2v.71h-.55a3.54,3.54,0,0,0-1.86.43,2.47,2.47,0,0,0-1.07,1.31,6.6,6.6,0,0,0-.26,2.21v9.81A25.14,25.14,0,0,1,389,496a7.43,7.43,0,0,1-3,3.7,11,11,0,0,1-6.51,1.71,12.88,12.88,0,0,1-5.35-.91,7.63,7.63,0,0,1-3.61-3.12,10.61,10.61,0,0,1-1.06-5.14V479.63a9,9,0,0,0-.26-2.79,2,2,0,0,0-.89-.87,5.79,5.79,0,0,0-2.3-.29Z" transform="translate(-84.74 -104.44)"/><path class="cls-1" d="M410,492.05l-4-8.89-4,8.89Zm.67,1.41h-9.39L400.2,496a5.34,5.34,0,0,0-.54,2.07,1.7,1.7,0,0,0,.88,1.6,7.81,7.81,0,0,0,2.62.46v.7h-8.84v-.7a4,4,0,0,0,2.35-1.16,14.58,14.58,0,0,0,2.27-3.89l9.51-20.63h.37l9.58,21.19a13.21,13.21,0,0,0,2.25,3.81,3.23,3.23,0,0,0,1.89.68v.7H409.68v-.7h.52a4,4,0,0,0,2.19-.43,1,1,0,0,0,.43-.87,2.1,2.1,0,0,0-.12-.7,12.56,12.56,0,0,0-.58-1.43Z" transform="translate(-84.74 -104.44)"/><path class="cls-1" d="M448.33,491.74l-1,9.08h-23.6v-.7h.87a3.63,3.63,0,0,0,1.86-.41,1.76,1.76,0,0,0,.8-.92,7.69,7.69,0,0,0,.2-2.39v-17a8.61,8.61,0,0,0-.2-2.48,2,2,0,0,0-.89-.87,3.74,3.74,0,0,0-1.77-.37h-.87V475H437.9v.7h-1.14a3.72,3.72,0,0,0-1.88.41,1.89,1.89,0,0,0-.8.9,8.15,8.15,0,0,0-.21,2.41v16.47a7.91,7.91,0,0,0,.23,2.52,1.52,1.52,0,0,0,.92.82,9.44,9.44,0,0,0,2.37.17h2.22a7.81,7.81,0,0,0,3.53-.71,6.52,6.52,0,0,0,2.44-2.31,18.36,18.36,0,0,0,1.95-4.61Z" transform="translate(-84.74 -104.44)"/><path class="cls-1" d="M464.46,500.12v.7H450.57v-.7h.88a3.61,3.61,0,0,0,1.85-.41,1.57,1.57,0,0,0,.78-.9,7.26,7.26,0,0,0,.22-2.41v-17a7.68,7.68,0,0,0-.22-2.48,1.93,1.93,0,0,0-.87-.87,3.57,3.57,0,0,0-1.76-.36h-.88V475h13.89v.71h-.89a3.64,3.64,0,0,0-1.86.4,1.76,1.76,0,0,0-.8.92,7.41,7.41,0,0,0-.21,2.39v17a7.69,7.69,0,0,0,.23,2.48,2,2,0,0,0,.87.87,3.62,3.62,0,0,0,1.77.37Z" transform="translate(-84.74 -104.44)"/><path class="cls-1" d="M490.7,475v7H490a10.74,10.74,0,0,0-1.4-3.48,5.16,5.16,0,0,0-2.09-1.67,6.56,6.56,0,0,0-2.6-.36h-2V496.4a8,8,0,0,0,.22,2.48,2.14,2.14,0,0,0,.87.87,3.74,3.74,0,0,0,1.8.37h.88v.7H471.79v-.7h.87a3.66,3.66,0,0,0,1.87-.41,1.72,1.72,0,0,0,.8-.9,7.54,7.54,0,0,0,.22-2.41V476.45h-1.91a5.75,5.75,0,0,0-3.91,1.11,7.2,7.2,0,0,0-2.15,4.4h-.75v-7Z" transform="translate(-84.74 -104.44)"/><path class="cls-1" d="M520.69,475v.71a3.94,3.94,0,0,0-2,.74,19.73,19.73,0,0,0-3.11,4.37l-5.75,9.35v6.26a8.69,8.69,0,0,0,.21,2.49,1.91,1.91,0,0,0,.85.86,3.39,3.39,0,0,0,1.71.37h1.48v.7H499.15v-.7h1.39a3.53,3.53,0,0,0,1.86-.41,1.8,1.8,0,0,0,.8-.9,7.54,7.54,0,0,0,.22-2.41v-5.19l-6.24-11.07a16.58,16.58,0,0,0-2.63-3.86,3.32,3.32,0,0,0-2-.6V475h12.73v.71h-.57a2.94,2.94,0,0,0-1.62.33.87.87,0,0,0-.46.68,11.58,11.58,0,0,0,1.57,3.45l4.8,8.57,4.79-7.82c1.18-1.9,1.78-3.16,1.78-3.79a1,1,0,0,0-.51-.85,5,5,0,0,0-2.44-.57V475Z" transform="translate(-84.74 -104.44)"/><path class="cls-1" d="M556.48,474.38v9h-.77A9.38,9.38,0,0,0,552.5,478a8.39,8.39,0,0,0-5.34-1.88,8,8,0,0,0-4.56,1.4,8.05,8.05,0,0,0-3,3.65,16.14,16.14,0,0,0-1.23,6.4,20.42,20.42,0,0,0,.91,6.31,8.27,8.27,0,0,0,2.81,4.3,7.91,7.91,0,0,0,5,1.47,10,10,0,0,0,4.59-1.07,15.87,15.87,0,0,0,4.4-3.67v2.23a13.26,13.26,0,0,1-10.32,4.3,16.57,16.57,0,0,1-7.55-1.65,12,12,0,0,1-5.1-4.76,13.23,13.23,0,0,1,.21-13.64,13.59,13.59,0,0,1,5.35-5.15,15.07,15.07,0,0,1,7.19-1.83,16.65,16.65,0,0,1,5.92,1.18,8.82,8.82,0,0,0,2.3.68,1.45,1.45,0,0,0,1.08-.44,2.33,2.33,0,0,0,.6-1.42Z" transform="translate(-84.74 -104.44)"/><path class="cls-1" d="M569.61,476.46V487h.53a4.28,4.28,0,0,0,3.67-1.55,9.58,9.58,0,0,0,1.45-4.56H576v13.53h-.73a10.39,10.39,0,0,0-1-3.62,4.24,4.24,0,0,0-1.76-1.89,7,7,0,0,0-2.9-.5v7.29a9.18,9.18,0,0,0,.19,2.61,1.5,1.5,0,0,0,.7.79,3.32,3.32,0,0,0,1.64.31h1.58a9.77,9.77,0,0,0,6-1.69,9.31,9.31,0,0,0,3.22-5.11h.72l-1.2,8.23h-23v-.7h.89a3.75,3.75,0,0,0,1.86-.41,1.7,1.7,0,0,0,.79-.92,7.83,7.83,0,0,0,.22-2.41v-17a11.88,11.88,0,0,0-.11-2.15,1.84,1.84,0,0,0-.73-1,3.37,3.37,0,0,0-2-.53h-.89V475h22.26v7.65H581a9,9,0,0,0-1.61-4,5.84,5.84,0,0,0-2.9-1.79,15.76,15.76,0,0,0-4.11-.34Z" transform="translate(-84.74 -104.44)"/><path class="cls-1" d="M596.11,476.36v11.33h1.1a12,12,0,0,0,4.08-.5,4,4,0,0,0,2.14-1.74,6.36,6.36,0,0,0,.76-3.31,6,6,0,0,0-1.41-4.37,6.33,6.33,0,0,0-4.58-1.41Zm0,12.68v7.25a8.06,8.06,0,0,0,.25,2.63,2,2,0,0,0,.94.87,6.21,6.21,0,0,0,2.49.34v.7h-13.6v-.7a6.21,6.21,0,0,0,2.49-.34,1.85,1.85,0,0,0,.92-.87,7.29,7.29,0,0,0,.28-2.63V479.52a7.43,7.43,0,0,0-.28-2.65,1.85,1.85,0,0,0-.92-.87,6.38,6.38,0,0,0-2.49-.32V475h12.34a27.48,27.48,0,0,1,7.06.64,7.12,7.12,0,0,1,3.64,2.39,6.37,6.37,0,0,1,1.42,4.1,6.06,6.06,0,0,1-2.12,4.73,8.71,8.71,0,0,1-3.77,1.75l6.38,8.76a14.32,14.32,0,0,0,1.77,2.12,3.61,3.61,0,0,0,1.87.66v.7h-8.37L597.85,489Z" transform="translate(-84.74 -104.44)"/><path class="cls-1" d="M638.34,475v7h-.7a11,11,0,0,0-1.4-3.48,5.19,5.19,0,0,0-2.1-1.67,6.51,6.51,0,0,0-2.59-.36h-2V496.4a7.68,7.68,0,0,0,.22,2.48,2,2,0,0,0,.87.87,3.7,3.7,0,0,0,1.79.37h.89v.7H619.43v-.7h.89a3.55,3.55,0,0,0,1.84-.41,1.8,1.8,0,0,0,.82-.9,7.83,7.83,0,0,0,.22-2.41V476.45h-1.93a5.78,5.78,0,0,0-3.91,1.11,7.33,7.33,0,0,0-2.15,4.4h-.75v-7Z" transform="translate(-84.74 -104.44)"/><path class="cls-1" d="M654.49,500.12v.7h-13.9v-.7h.89a3.63,3.63,0,0,0,1.86-.41,1.66,1.66,0,0,0,.77-.9,7.54,7.54,0,0,0,.22-2.41v-17a8,8,0,0,0-.22-2.48,2,2,0,0,0-.87-.87,3.57,3.57,0,0,0-1.76-.36h-.89V475h13.9v.71h-.89a3.64,3.64,0,0,0-1.86.4,1.76,1.76,0,0,0-.8.92,7.41,7.41,0,0,0-.21,2.39v17a8,8,0,0,0,.22,2.48,2.14,2.14,0,0,0,.87.87,3.64,3.64,0,0,0,1.78.37Z" transform="translate(-84.74 -104.44)"/><path class="cls-1" d="M666.44,476.46v10.61h.77a7.07,7.07,0,0,0,2.88-.51,4.5,4.5,0,0,0,1.9-1.74,7.65,7.65,0,0,0,1-3.29h.69v13H673c-.25-2.45-.92-4.07-2-4.84a6.3,6.3,0,0,0-3.75-1.18h-.77v7.9a8.69,8.69,0,0,0,.22,2.49,2.08,2.08,0,0,0,.89.87,3.74,3.74,0,0,0,1.77.38h.89v.7H656.32v-.7h.87a3.63,3.63,0,0,0,1.86-.41,1.67,1.67,0,0,0,.79-.92,7.26,7.26,0,0,0,.22-2.41v-17a7.91,7.91,0,0,0-.22-2.47,1.84,1.84,0,0,0-.87-.87,3.53,3.53,0,0,0-1.78-.38h-.87V475h22.41v7.41h-.8a6.89,6.89,0,0,0-1.4-3.87,6.16,6.16,0,0,0-3.26-1.76,21.85,21.85,0,0,0-4.35-.29Z" transform="translate(-84.74 -104.44)"/><path class="cls-1" d="M694.63,500.12v.7h-13.9v-.7h.89a3.63,3.63,0,0,0,1.86-.41,1.66,1.66,0,0,0,.77-.9,7.54,7.54,0,0,0,.22-2.41v-17a8,8,0,0,0-.22-2.48,2.1,2.1,0,0,0-.85-.87,3.79,3.79,0,0,0-1.78-.36h-.89V475h13.9v.71h-.89a3.64,3.64,0,0,0-1.86.4,1.76,1.76,0,0,0-.8.92,7.41,7.41,0,0,0-.21,2.39v17a8,8,0,0,0,.22,2.48,2.14,2.14,0,0,0,.87.87,3.64,3.64,0,0,0,1.78.37Z" transform="translate(-84.74 -104.44)"/><path class="cls-1" d="M722.34,474.38v9h-.76a9.44,9.44,0,0,0-3.21-5.37,8.34,8.34,0,0,0-5.35-1.88,8,8,0,0,0-4.55,1.4,8.05,8.05,0,0,0-3,3.65,16,16,0,0,0-1.25,6.4,21,21,0,0,0,.91,6.31,8.37,8.37,0,0,0,2.83,4.3,7.89,7.89,0,0,0,5,1.47,10.1,10.1,0,0,0,4.61-1.07,15.87,15.87,0,0,0,4.4-3.67v2.23a13.25,13.25,0,0,1-10.33,4.3,16.53,16.53,0,0,1-7.54-1.65A12,12,0,0,1,699,495a13,13,0,0,1-1.79-6.62,13.32,13.32,0,0,1,2-7,13.68,13.68,0,0,1,5.36-5.15,15.07,15.07,0,0,1,7.19-1.83,16.7,16.7,0,0,1,5.92,1.18,8.75,8.75,0,0,0,2.29.68,1.49,1.49,0,0,0,1.09-.44,2.39,2.39,0,0,0,.6-1.42Z" transform="translate(-84.74 -104.44)"/><path class="cls-1" d="M740.57,492.05l-4-8.89-4.08,8.89Zm.66,1.41h-9.38L730.74,496a5.33,5.33,0,0,0-.57,2.07,1.71,1.71,0,0,0,.91,1.6,8,8,0,0,0,2.61.46v.7h-8.84v-.7A4,4,0,0,0,727.2,499a14.58,14.58,0,0,0,2.27-3.89L739,474.44h.38L749,495.63a13.21,13.21,0,0,0,2.25,3.81,3.28,3.28,0,0,0,1.9.68v.7H740.21v-.7h.53a3.93,3.93,0,0,0,2.18-.43,1,1,0,0,0,.43-.87,2.06,2.06,0,0,0-.12-.7,14.75,14.75,0,0,0-.58-1.43Z" transform="translate(-84.74 -104.44)"/><path class="cls-1" d="M775.87,475v7h-.7a11,11,0,0,0-1.4-3.48,5.19,5.19,0,0,0-2.1-1.67,6.56,6.56,0,0,0-2.6-.36h-2V496.4a7.68,7.68,0,0,0,.22,2.48,2,2,0,0,0,.87.87,3.7,3.7,0,0,0,1.79.37h.89v.7H757v-.7h.89a3.63,3.63,0,0,0,1.86-.41,1.85,1.85,0,0,0,.8-.9,8.15,8.15,0,0,0,.22-2.41V476.45h-2a5.78,5.78,0,0,0-3.91,1.11,7.2,7.2,0,0,0-2.15,4.4H752v-7Z" transform="translate(-84.74 -104.44)"/><path class="cls-1" d="M792,500.12v.7H778.1v-.7h.9a3.61,3.61,0,0,0,1.85-.41,1.65,1.65,0,0,0,.78-.9,7.54,7.54,0,0,0,.22-2.41v-17a8,8,0,0,0-.22-2.48,2,2,0,0,0-.87-.87,3.57,3.57,0,0,0-1.76-.36h-.89V475H792v.71h-.89a3.64,3.64,0,0,0-1.86.4,1.76,1.76,0,0,0-.8.92,7.41,7.41,0,0,0-.21,2.39v17a8,8,0,0,0,.22,2.48,2.14,2.14,0,0,0,.87.87,3.66,3.66,0,0,0,1.78.37Z" transform="translate(-84.74 -104.44)"/><path class="cls-1" d="M808.68,475.82a6,6,0,0,0-5.55,3.64,19.35,19.35,0,0,0-1.55,8.53q0,6.63,2.39,9.78a5.5,5.5,0,0,0,4.68,2.22,5.67,5.67,0,0,0,3.36-1,7.93,7.93,0,0,0,2.69-3.89,21.31,21.31,0,0,0,1-7,22.08,22.08,0,0,0-1-7.66,7.45,7.45,0,0,0-2.49-3.6,6.14,6.14,0,0,0-3.5-1.06m-.24-1.21a13.51,13.51,0,0,1,10.33,3.6,12.81,12.81,0,0,1,4,9.59,13.47,13.47,0,0,1-3,8.65c-2.61,3.31-6.31,5-11.07,5s-8.49-1.57-11.1-4.73a13.53,13.53,0,0,1-3.1-8.87,12.72,12.72,0,0,1,4-9.59,13,13,0,0,1,9.91-3.62" transform="translate(-84.74 -104.44)"/><path class="cls-1" d="M834.15,475l13.11,16V479.88a5.16,5.16,0,0,0-.68-3.14,3.82,3.82,0,0,0-3.16-1.06V475h8.79v.71a7.09,7.09,0,0,0-2.27.53,2.21,2.21,0,0,0-.9,1.1,7.22,7.22,0,0,0-.33,2.57v21.54h-.66l-18-21.54v16.45a3.57,3.57,0,0,0,1.06,3,3.89,3.89,0,0,0,2.39.78h.63v.7h-9.42v-.7a4.27,4.27,0,0,0,3.06-.89,4,4,0,0,0,.85-2.9V478.07l-.56-.68a5.2,5.2,0,0,0-1.49-1.35,4.41,4.41,0,0,0-1.86-.36V475Z" transform="translate(-84.74 -104.44)"/><path class="cls-2" d="M859.48,430.75a8.42,8.42,0,0,0,1,.08,2.65,2.65,0,0,0,1.93-.83,2.92,2.92,0,0,0,.8-2.19,2.8,2.8,0,0,0-.75-2.15,3.16,3.16,0,0,0-2.3-.73h-.65Zm-5-6.56h6.25a9.27,9.27,0,0,1,4.38.74,3.36,3.36,0,0,1,1.34,4.56,3.48,3.48,0,0,1-.34.51,4.31,4.31,0,0,1-2.32,1.34l2.35,4.2a4.7,4.7,0,0,0,1.08,1.35,1.51,1.51,0,0,0,.75.31v.58h-4.18l-3.55-6.18h-.79v3.33a2.77,2.77,0,0,0,.39,1.82,2.56,2.56,0,0,0,1.68.45v.58h-7.29v-.58a1.83,1.83,0,0,0,1.36-.34,3,3,0,0,0,.45-1.93V427a3.08,3.08,0,0,0-.31-1.74,1.71,1.71,0,0,0-1.23-.49Zm6.54-3.5a11.36,11.36,0,0,0-5.26,1.35,9.72,9.72,0,0,0-4,3.86,10.24,10.24,0,0,0-1.45,5.2,10.42,10.42,0,0,0,1.41,5.19,9.72,9.72,0,0,0,4,3.86,11.08,11.08,0,0,0,10.63,0,9.91,9.91,0,0,0,4-3.86,10.18,10.18,0,0,0,0-10.39,9.91,9.91,0,0,0-4-3.86,11.4,11.4,0,0,0-5.27-1.35m0-1.48a12.69,12.69,0,0,1,6,1.54,10.92,10.92,0,0,1,4.58,4.4,11.73,11.73,0,0,1,1.65,6A11.9,11.9,0,0,1,871.7,437a11.46,11.46,0,0,1-4.54,4.41,12.61,12.61,0,0,1-12.18,0,11.57,11.57,0,0,1-4.53-4.41,11.91,11.91,0,0,1-1.62-5.94,11.64,11.64,0,0,1,1.66-6,11.07,11.07,0,0,1,4.57-4.4,12.69,12.69,0,0,1,6-1.54" transform="translate(-84.74 -104.44)"/><path class="cls-2" d="M863.48,345.6c-.05.09-18,30.82-51.78,44.31h0A91.25,91.25,0,0,1,797,394.37a95.68,95.68,0,0,1-15.36,2c-26.6,1.16-53.6-9.11-68.79-32.95h0a94.85,94.85,0,0,1-7.37-14,100.67,100.67,0,0,1-4.75-14.13c-6.14-24.06-2.64-47.08,1-61.27v0a65.83,65.83,0,0,1,3-8.85,72,72,0,0,1,4.74-9.41c9.73-16.23,27.72-32,56.78-32.66h.09a90.17,90.17,0,0,1,16,1,73.18,73.18,0,0,1,14.35,3.74c23.16,8.61,38.93,28.29,48,55.26l-2.54.85c-8.81-26.2-24-45.29-46.38-53.61a72.61,72.61,0,0,0-13.84-3.6,86.8,86.8,0,0,0-15.53-1h-.11c-27.92.63-45.19,15.78-54.52,31.36a71.76,71.76,0,0,0-4.58,9.05,67.46,67.46,0,0,0-2.88,8.5v0c-3.58,13.89-7,36.42-1,59.93a96.23,96.23,0,0,0,4.61,13.76A91.18,91.18,0,0,0,715.06,362h0c14.61,23,40.68,32.86,66.4,31.73a90.24,90.24,0,0,0,14.92-1.91,88,88,0,0,0,14.28-4.32h0c33-13.14,50.43-43.11,50.46-43.19Z" transform="translate(-84.74 -104.44)"/><path class="cls-2" d="M179.61,222.09c.08,0,32.53-4,32.53,26.16V365.87c.22,2.11,3.27,36.89-32.19,34.2l.21-2.68c33.26,2.52,29.31-31.25,29.3-31.35V248.25c0-27.15-29.48-23.5-29.56-23.5Z" transform="translate(-84.74 -104.44)"/><rect class="cls-2" x="546.83" y="87.27" width="244.91" height="2.68"/><rect class="cls-2" x="537.96" y="79.57" width="253.79" height="2.7"/><rect class="cls-2" x="96.92" y="87.27" width="208.87" height="2.68"/><rect class="cls-2" x="96.92" y="79.57" width="216.43" height="2.7"/><rect class="cls-2" x="98.1" y="420.46" width="688.91" height="5.03"/><path class="cls-2" d="M222.06,613.13c-7.95,0-11.34.17-11.34.17l.75-1.41c1.65-3.15,2.07-3.73,2.07-28.56,0-24.08-.34-24.41-2.07-27.72l-.75-1.41s3.15.17,11.26.17c8.52,0,11.34-.17,11.34-.17l-.75,1.41c-1.65,3.14-2.07,3.72-2.07,28.55,0,24.09.33,24.42,2.07,27.73l.75,1.41S229.92,613.13,222.06,613.13Z" transform="translate(-84.74 -104.44)"/><path class="cls-2" d="M256.41,613.79c-11.1,0-16.47-2.4-16.47-2.4s.16-2,.16-7c0-5.55-.16-8.78-.16-8.78,2.73,4,6.86,8.28,15.14,8.28,5.8,0,9.27-1.49,9.27-5.63,0-3.8-2.65-5-6.7-7l-6.54-3.4c-6.79-3.47-11.42-8.27-11.42-16.55,0-12.5,8.27-17.54,22.26-17.54,10.35,0,15.64,2.4,15.64,2.4s-.16,2.06-.16,7.28c0,5.38.16,8.28.16,8.28-3.22-4.72-7.69-8.12-14.23-8.12-6.21,0-8.2,1.91-8.2,4.89,0,3.47,2.57,4.55,7,6.78l5.88,3c7.53,3.81,11.83,8.45,11.83,17.3C279.91,610.07,269.32,613.79,256.41,613.79Z" transform="translate(-84.74 -104.44)"/><path class="cls-2" d="M313.84,614.29c-19,0-28.39-10.35-28.39-29.71s9.85-31,28.22-31c19,0,28.39,10.35,28.39,29.71S332.21,614.29,313.84,614.29Zm0-51.07c-8.11,0-10.18,7-10.18,20.78s2.07,20.61,10,20.61c8.12,0,10.18-7,10.18-20.78S321.79,563.22,313.84,563.22Z" transform="translate(-84.74 -104.44)"/><path class="cls-2" d="M405.87,598.15c0,.17-.5,5.46-.58,10l-.08,5.05H364.65c0-8.44,2.4-13,8.53-18.37l8.11-7.2c6-5.3,6.62-8.53,6.62-12.25,0-2.73-.58-8.61-9-8.61-7,0-8.94,3-12.5,8.11,0,0,.17-3.06.17-7.78,0-5.79-.17-7.53-.17-7.53s5.13-2.4,16.31-2.4c18.45,0,23.09,7.53,23.09,16.89,0,7.94-3.31,13.57-12.91,19.53l-5.22,3.23c-5.38,3.31-6.2,4-6.2,5.29h12.33c3.89,0,7.11-.66,9.1-1.82A12,12,0,0,0,405.87,598.15Z" transform="translate(-84.74 -104.44)"/><path class="cls-2" d="M452.05,598.15c0,.17-.5,5.46-.58,10l-.08,5.05H410.83c0-8.44,2.4-13,8.53-18.37l8.11-7.2c6-5.3,6.62-8.53,6.62-12.25,0-2.73-.58-8.61-9-8.61-7,0-8.94,3-12.5,8.11,0,0,.17-3.06.17-7.78,0-5.79-.17-7.53-.17-7.53s5.13-2.4,16.31-2.4c18.45,0,23.09,7.53,23.09,16.89,0,7.94-3.31,13.57-12.91,19.53l-5.22,3.23c-5.38,3.31-6.2,4-6.2,5.29H440c3.89,0,7.11-.66,9.1-1.82A12.16,12.16,0,0,0,452.05,598.15Z" transform="translate(-84.74 -104.44)"/><path class="cls-2" d="M484.41,614.29c-17.22,0-24.91-9.35-24.91-28.31s8-28.72,25.16-28.72,24.91,9.36,24.91,28.31S501.54,614.29,484.41,614.29Zm.16-47.59c-3.31,0-5.21,1.66-6.2,5.38-.83,3.06-1.16,7.53-1.16,13.82,0,13.82,1.49,19,7.28,19,3.06,0,4.89-1.32,6-4.38s1.41-7.87,1.41-14.82c0-13.87-1.53-19-7.33-19Z" transform="translate(-84.74 -104.44)"/><path class="cls-2" d="M541.1,614.29c-17.21,0-24.91-9.35-24.91-28.31s8-28.72,25.16-28.72,24.91,9.36,24.91,28.31S558.23,614.29,541.1,614.29Zm.17-47.59c-3.31,0-5.22,1.66-6.21,5.38-.83,3.06-1.16,7.53-1.16,13.82,0,13.82,1.49,19,7.28,19,3.07,0,4.89-1.32,6-4.38s1.41-7.87,1.41-14.82c0-13.87-1.53-19-7.32-19Z" transform="translate(-84.74 -104.44)"/><path class="cls-2" d="M597.79,614.29c-17.21,0-24.91-9.35-24.91-28.31s8-28.72,25.16-28.72,25,9.36,25,28.31S614.92,614.29,597.79,614.29ZM598,566.7c-3.31,0-5.22,1.66-6.21,5.38-.83,3.06-1.16,7.53-1.16,13.82,0,13.82,1.49,19,7.28,19,3.07,0,4.89-1.32,6-4.38s1.41-7.87,1.41-14.82C605.24,571.83,603.75,566.7,598,566.7Z" transform="translate(-84.74 -104.44)"/><path class="cls-2" d="M639.75,582.76c-6.54-.75-9.77-3.65-9.77-9.27s4-8.78,9.77-9.36c6.54.75,9.77,3.65,9.77,9.27S645.54,582.18,639.75,582.76Zm0,31.61c-6.54-.74-9.77-3.64-9.77-9.27s4-8.77,9.77-9.35c6.54.74,9.77,3.64,9.77,9.27S645.54,613.79,639.75,614.37Z" transform="translate(-84.74 -104.44)"/><path class="cls-2" d="M695.28,598.15c0,.17-.49,5.46-.58,10l-.08,5.05H654.07c0-8.44,2.4-13,8.52-18.37l8.11-7.2c6-5.3,6.62-8.53,6.62-12.25,0-2.73-.58-8.61-9-8.61-7,0-8.94,3-12.5,8.11,0,0,.17-3.06.17-7.78,0-5.79-.17-7.53-.17-7.53s5.14-2.4,16.31-2.4c18.45,0,23.09,7.53,23.09,16.89,0,7.94-3.31,13.57-12.91,19.53l-5.22,3.23c-5.38,3.31-6.2,4-6.2,5.29H683.2c3.89,0,7.12-.66,9.1-1.82A11.87,11.87,0,0,0,695.28,598.15Z" transform="translate(-84.74 -104.44)"/><path class="cls-2" d="M727.64,614.29c-17.21,0-24.91-9.35-24.91-28.31s8-28.72,25.16-28.72,24.91,9.36,24.91,28.31S744.77,614.29,727.64,614.29Zm.17-47.59c-3.31,0-5.22,1.66-6.21,5.38-.83,3.06-1.16,7.53-1.16,13.82,0,13.82,1.49,19,7.28,19,3.07,0,4.89-1.32,6-4.38s1.41-7.87,1.41-14.82c0-13.87-1.53-19-7.32-19Z" transform="translate(-84.74 -104.44)"/><path class="cls-2" d="M777.38,613.13c-7.94,0-11.34.17-11.34.17l.75-1.41c1.65-3.06,2.07-3.73,2.07-28.56V571.25c0-1.16-.25-1.74-2.16-1.74h-9.51c6.29-11.34,23.09-8.69,29.38-13.57,0,0-.75,11.09-.75,30.13,0,22.09.33,22.51,2.07,25.82l.75,1.41S785.24,613.13,777.38,613.13Z" transform="translate(-84.74 -104.44)"/><path class="cls-2" d="M822.82,614.37c-20.7,0-23.18-8.27-23.18-14.48,0-8.77,7.37-12.83,14-13.41l-3.48-2c-2.81-1.57-9.27-5.38-9.27-14.81,0-11.17,8.36-16.14,21.44-16.14,14.81,0,21.52,5,21.52,13.33,0,8-5.88,11.25-11.92,12.08l3.72,2.07c7.29,4,10.6,7.86,10.6,15.81C846.24,608,838.54,614.37,822.82,614.37ZM824.64,592l-6.38-3.56s-4,2.07-4,8.6c0,3.07.58,8.2,8.61,8.2,4.22,0,7.78-1.57,7.78-6C830.6,595.58,828.94,594.43,824.64,592Zm-2.24-30.54c-4.72,0-6.95,2.15-6.95,5.38s2.07,4.55,6.12,6.86l5.88,3.31s3.15-1.82,3.15-8.19c0-4.27-1.91-7.33-8.2-7.33Z" transform="translate(-84.74 -104.44)"/><path class="cls-2" d="M140.68,748.57c-4.15,0-7.2-1.88-7.2-6,0-4.54,2.85-6.42,7.2-6.42,4.13,0,7.19,1.88,7.19,6.11,0,4.44-2.86,6.32-7.19,6.32m-.49,75.48c-6.4,0-9.07.21-9.07.21l.89-1.69c2-3.74,2.46-4.42,2.46-34,0-28.69-.39-29.08-2.46-33l-.89-1.68s2.56.19,9,.19,9-.19,9-.19l-.87,1.68c-2,3.73-2.47,4.43-2.47,34,0,28.67.39,29.08,2.47,33l.87,1.69s-2.64-.21-8.85-.21" transform="translate(-84.74 -104.44)"/><path class="cls-2" d="M180.37,824.55a4.71,4.71,0,0,0-.69,2.06c0,1.19,1,1.88,2.37,2.76l1.28.89c1.28.89,4.13,2.65,4.13,6.4,0,7.29-9.17,8.77-14.58,8.38,1-.39,6.4-3.34,6.4-7.39,0-2-.68-3-2.16-4.93l-.6-.79a5.68,5.68,0,0,1-1.47-3.65,6.3,6.3,0,0,1,1.18-3.53c-9.17-.2-14.29-3-14.29-3s.19-1.88.19-6.13c0-4-.19-7-.19-7,3.84,5.92,7.58,9.47,14.78,9.47,8.09,0,9.95-3.94,9.95-7.69,0-4-2.06-6-5.61-8.08l-8.57-4.93c-4.33-2.37-10.26-5.71-10.26-15,0-10.53,7.39-15.17,18.62-15.17,9.66,0,14.49,2.95,14.49,2.95s-.19,2-.19,6.21c0,4,.19,6.81.19,6.81-3.63-5.51-7.29-9.47-14-9.47-3.35,0-9.06.49-9.06,6.81,0,4.13,2.56,6,7.49,8.77l6.7,3.74c6.4,3.44,10.64,7.59,10.64,15.37,0,7.19-3.84,15.18-16.75,16.17" transform="translate(-84.74 -104.44)"/><path class="cls-2" d="M217.29,824.05c-6.31,0-8.77.21-8.77.21l.89-1.69c1.88-3.45,2.46-5.41,2.46-25.13V775.38c0-18-.58-20.91-2.46-24.56l-.89-1.65L223,746.59s-.31,10.65-.31,20.41v30.44c0,19,.5,21.49,2.48,25.13l.89,1.69s-2.46-.21-8.78-.21" transform="translate(-84.74 -104.44)"/><path class="cls-2" d="M260.84,773.39c-7.78,0-12.72,5.14-12.72,19.71,0,0,2.75.6,9.95.6,9.75,0,12.41-4.93,12.41-10.05,0-2.95-.29-10.26-9.64-10.26m-1.39,26.71a61.84,61.84,0,0,1-11.12-.78c0,7.59,2.54,18.33,16,18.33,12.92,0,16.47-6.11,16.76-6.71,0,7.41-5.12,14.28-19.51,14.28-18.72,0-24.93-12.2-24.93-28.07,0-22.95,12.32-30,24.44-30,12.8,0,20.78,5.71,20.78,16.06,0,6.4-2,16.94-22.46,16.94" transform="translate(-84.74 -104.44)"/><path class="cls-2" d="M308.88,825.13c-6.32,0-9.64-2.27-11.52-5.22-1.67-2.56-2.27-6-2.27-13.21,0-23.55.29-31.62.29-31.62H289a36.77,36.77,0,0,0,7.1-8.57,72,72,0,0,0,5.72-10.26h4.42v12.32h6.31c8.07,0,9.66-1.09,9.66-1.09s-.1,1.38-.1,4.34.1,4.23.1,4.23-1.49-1-9.66-1h-6.31v32c0,4.42.3,6.11,1.17,7.88,1.09,2.15,3.16,3.55,6.91,3.55,5.53,0,8.18-3,8.18-3,0,1.68-1.18,9.56-13.6,9.56" transform="translate(-84.74 -104.44)"/><path class="cls-2" d="M414.11,824.25s-2.48-.21-8.77-.21-8.78.21-8.78.21l.89-1.67c1.57-2.87,2.56-3.37,2.56-24.83,0-10.94-.29-15.77-1.87-18.73-1.28-2.16-3.45-4.14-8.78-4.14-8.67,0-11.62,7.39-12.22,8.87.21,2.17.31,7.19.31,10.84v2.85c0,21.38.89,22.27,2.46,25.14l.89,1.67s-2.56-.25-8.8-.25c-6.4,0-8.87.21-8.87.21l.89-1.67c1.58-2.87,2.47-3.66,2.47-24.83,0-10.94-.1-15.77-1.77-18.73-1.18-2.16-3.36-4.14-8.67-4.14-9.37,0-11.93,9.16-11.93,9.16v13.4c0,21.48.89,22.27,2.46,25.14l.88,1.67S345,824,338.81,824c-6.4,0-8.85.21-8.85.21l.87-1.67c1.58-2.87,2.47-3.66,2.47-25.14v-3.1c0-17-.89-19.82-2.47-22.68l-.87-1.68,14-2.45-.4,15.17c2.77-14.78,12.82-15.57,17-15.57,5.72,0,11.23,1.39,14.18,7a17.5,17.5,0,0,1,2,6.61c3.28-12.91,12.84-13.7,17-13.7,5.92,0,11.43,1.49,14.49,7.1,2.17,4.13,2.56,8.86,2.56,20.4v3c0,21.48.78,22.27,2.37,25.14Z" transform="translate(-84.74 -104.44)"/><path class="cls-2" d="M448.93,773.39c-7.78,0-12.71,5.14-12.71,19.71a54.3,54.3,0,0,0,9.95.6c9.76,0,12.42-4.93,12.42-10.05,0-2.95-.29-10.26-9.66-10.26m-1.38,26.71a62.82,62.82,0,0,1-11.13-.78c0,7.59,2.56,18.33,16.06,18.33,12.9,0,16.45-6.11,16.76-6.71,0,7.41-5.14,14.28-19.53,14.28-18.72,0-24.93-12.2-24.93-28.07,0-22.95,12.32-30,24.44-30,12.82,0,20.8,5.71,20.8,16.06,0,6.4-2,16.94-22.47,16.94" transform="translate(-84.74 -104.44)"/><path class="cls-2" d="M545.36,769.56l-16,16.74,16.17,20.91c9.66,12.4,13.11,15.56,15.86,17,0,0-2.85-.09-9.35-.09h-7.89l-25.92-35c0,28.28.39,29.47,2.47,33.4l.87,1.67S519,824,512.82,824c-6.42,0-9.06.19-9.06.19l.87-1.67c2-3.65,2.47-4.42,2.47-34,0-28.67-.39-29.06-2.47-33l-.87-1.68s2.56.19,9,.19,8.85-.19,8.85-.19l-.87,1.68c-1.87,3.55-2.47,4.72-2.47,32.61l16.16-18.62c6.11-6.89,8-9.08,8-11.93a4.36,4.36,0,0,0-2.08-3.74s3.55.19,10,.19c7.78,0,11.33-.19,11.33-.19-2.27,1.47-6.6,5.52-16.26,15.67" transform="translate(-84.74 -104.44)"/><path class="cls-2" d="M601.09,776.94s-3.14-3-9.35-3c-10.55,0-15.48,7.88-15.48,22.48,0,5.9.29,21.07,12.71,21.07,9.37,0,12.12-9.06,12.12-9.06Zm14.1,45.53L601.09,825l.6-15.4c-2.56,14.31-11.83,15.59-16.86,15.59-19.7,0-20.09-21.88-20.09-27.89,0-23.55,12.71-30.16,24.15-30.16,10.13,0,14,5.12,14,5.12l10-5.22s-.89,6.32-.89,27.5v3.63c0,17.07.68,19.81,2.27,22.68Z" transform="translate(-84.74 -104.44)"/><path class="cls-2" d="M666,790.54,651.72,832c-3.45,10.15-9.18,13.11-17.36,13.11-6.89,0-9.06-1-9.06-1s.19-2.46.19-6c0-3.84-.19-6.81-.19-6.81,3.34,5.24,4.93,7.12,8.67,7.12,4.93,0,7.29-2.77,9.37-8.59l.87-2.56-13.48-36.65c-5.24-14.31-7.1-19.82-10.26-22.46,0,0,3.34.18,9.76.18,7.19,0,10-.18,10-.18-1.28.87-2.76,2.25-2.76,5.7,0,3,.89,6.52,3.84,15.58l6.7,19.9a59,59,0,0,1,1.57,6.21S650,813.31,651,810l6-19.62c2.85-9.54,4-13.69,4-16.45,0-3.45-1.47-4.83-2.77-5.7,0,0,2.87.18,8.88.18,6.4,0,8.87-.18,8.87-.18-3.75,3.32-6.31,11.12-10,22.35" transform="translate(-84.74 -104.44)"/><path class="cls-2" d="M690.31,824.05c-6.4,0-8.88.21-8.88.21l.89-1.69c1.88-3.45,2.47-5.41,2.47-25.13v-3.15c0-17-1-19.8-2.47-22.67l-.89-1.67,15.09-2.46s-.89,5.52-.89,26.7v3.25c0,18.23.39,21.2,2.46,25.13l.89,1.69s-2.46-.21-8.67-.21" transform="translate(-84.74 -104.44)"/><path class="cls-2" d="M727.74,825.13c-6.32,0-9.66-2.27-11.54-5.22-1.67-2.56-2.27-6-2.27-13.21,0-23.55.31-31.62.31-31.62h-6.42a36.12,36.12,0,0,0,7.1-8.57,72,72,0,0,0,5.72-10.26h4.43v12.32h6.3c8.09,0,9.66-1.09,9.66-1.09s-.1,1.38-.1,4.34.1,4.23.1,4.23-1.47-1-9.66-1h-6.3v32c0,4.42.3,6.11,1.18,7.88,1.09,2.15,3.16,3.55,6.9,3.55,5.53,0,8.19-3,8.19-3,0,1.68-1.18,9.56-13.6,9.56" transform="translate(-84.74 -104.44)"/><path class="cls-2" d="M831,755.57c-1.87,3.55-2.35,4.44-2.35,34l-.1,34.78a59,59,0,0,0-6.51-.29c-4.72,0-7.59.29-7.59.29l-27.89-53.7a33.67,33.67,0,0,1-2.66-7.2v26.12c0,28.67.31,29.08,2.37,33l.89,1.67s-2.46-.19-7.7-.19-7.38.19-7.38.19l.88-1.67c1.78-3.55,2.46-4.42,2.46-34,0-28.67-.38-29.06-2.46-33l-1-1.67s2.47.18,9.16.18c5.61,0,8.28-.18,8.28-.18l27.8,53.6a30.76,30.76,0,0,1,2.74,7.18V788.57c0-28.67-.39-29.06-2.45-33l-.89-1.67s2.46.18,7.58.18c5.32,0,7.59-.18,7.59-.18Z" transform="translate(-84.74 -104.44)"/><path class="cls-2" d="M869.06,774.09c-10,0-14.2,7.68-14.2,22.27,0,13.61,3.65,22.07,14.49,22.07,10,0,14.2-7.68,14.2-22.36,0-13.61-3.76-22-14.49-22m-.39,51.34c-17.15,0-25.72-11.91-25.72-28.49,0-11.8,5.12-29.84,26.79-29.84,17.15,0,25.74,11.82,25.74,28.38,0,11.82-5.14,29.95-26.81,29.95" transform="translate(-84.74 -104.44)"/><path class="cls-2" d="M913.07,825.32c-5-.68-7.78-3.45-7.78-7.68s3.24-7.18,7.78-7.88c5,.8,7.78,3.55,7.78,7.78s-3.24,7.2-7.78,7.78m0-42.07c-5-.8-7.78-3.55-7.78-7.78s3.24-7.2,7.78-7.78c5,.68,7.78,3.45,7.78,7.68s-3.24,7.29-7.78,7.88" transform="translate(-84.74 -104.44)"/><path class="cls-2" d="M251.68,888.62a10.93,10.93,0,0,0-3.45-2.74,21.2,21.2,0,0,0-10.64-2.48h-4.92v24.34c0,28.69.39,29.08,2.46,33l.88,1.67s-4-.2-13.39-.2-13.5.2-13.5.2l.89-1.67c2-3.75,2.45-4.44,2.45-34V883.4h-4.93a21.27,21.27,0,0,0-10.63,2.48c-2.56,1.57-3.36,2.54-3.46,2.74,0-.1.2-3,.2-8.67,0-5.42-.1-7.79-.1-7.79h58s-.09,2.37-.09,7.79c0,5.62.19,8.47.19,8.67" transform="translate(-84.74 -104.44)"/><path class="cls-2" d="M282.78,882.11a18.13,18.13,0,0,0-3.45.21V903.7s.89.1,3.66.1a17,17,0,0,0,5.22-.7c3.74-1.17,6.21-4,6.21-10.15,0-8.75-4.25-10.84-11.64-10.84m28.09,61c-8.77,0-12.71-1.87-17.54-11l-4.63-8.77c-3.84-7.29-4.72-9.45-8-9.45a9.19,9.19,0,0,0-1.39.1c0,23.24.6,23.24,2.48,26.79l.89,1.67s-4.05-.18-12.92-.18-12.9.18-12.9.18l.88-1.67c1.88-3.55,2.46-4.44,2.46-34,0-28.67-.39-29.07-2.46-33l-.88-1.67s4.33.19,10.05.19c3.34,0,12.3-.19,15.46-.19,16.95,0,32.32.68,32.32,18.33,0,16.94-13.39,19-19.3,19.5,6.88,1,9.95,3.74,13.79,11.52l5.7,11.64c2.27,4.63,3.65,6.4,7,8,0,0-1.77,2.06-11,2.06" transform="translate(-84.74 -104.44)"/><path class="cls-2" d="M368.37,948.93c-14,0-24.14-6-24.14-16.36,0,0,3.64,4.25,16.25,4.25,13,0,14.69-8.18,14.69-12.53,0-7.78-4.14-12.41-15.17-12.41-8.38,0-10.94,1.68-10.94,1.68V876.8h31.63c11.82,0,13.29-1.1,13.29-1.1s-.08,2.29-.08,7.6c0,5.92.08,8.17.08,8.17s-1.57-1.07-13.29-1.07H362.46V902s2.56-.91,8.67-.91c16.26,0,25.33,7.89,25.33,23,0,19.51-14.39,24.83-28.09,24.83" transform="translate(-84.74 -104.44)"/><path class="cls-2" d="M427.94,948.93c-14,0-24.13-6-24.13-16.36,0,0,3.64,4.25,16.25,4.25,13,0,14.69-8.18,14.69-12.53,0-7.78-4.15-12.41-15.17-12.41-8.38,0-10.94,1.68-10.94,1.68V876.8h31.62c11.83,0,13.3-1.1,13.3-1.1s-.09,2.29-.09,7.6c0,5.92.09,8.17.09,8.17s-1.57-1.07-13.3-1.07H422V902s2.56-.91,8.67-.91c16.24,0,25.32,7.89,25.32,23,0,19.51-14.38,24.83-28.09,24.83" transform="translate(-84.74 -104.44)"/><rect class="cls-2" x="379.72" y="803.69" width="27.51" height="11.43"/><path class="cls-2" d="M564.47,911.39c-1.76,3.45-2.46,4.83-2.46,28v.6s-8.17,3-21.67,3c-17.44,0-38.14-5.14-38.14-33.91,0-26.71,14.28-37.65,38.92-37.65,14.29,0,20.4,2.87,20.4,2.87s-.21,2.07-.21,9c0,5.62.21,9.27.21,9.27-4.73-6.71-9.07-9.27-17.84-9.27-14,0-20.39,8.18-20.39,24.93,0,16,4.81,23.56,17.53,23.56a16.11,16.11,0,0,0,2.08-.11c0-13.1-.5-16.84-2.48-20.29l-1-1.67s4.15.19,12.92.19c9.56,0,13-.19,13-.19Z" transform="translate(-84.74 -104.44)"/><rect class="cls-2" x="486.98" y="803.69" width="27.49" height="11.43"/><path class="cls-2" d="M637,887c-4,0-6.22,2-7.39,6.4-1,3.65-1.39,9-1.39,16.47,0,16.45,1.78,22.56,8.69,22.56,3.64,0,5.8-1.59,7.08-5.22s1.68-9.36,1.68-17.65c0-16.45-1.78-22.56-8.67-22.56m-.19,56.66c-20.5,0-29.66-11.13-29.66-33.69s9.56-34.22,30-34.22,29.66,11.15,29.66,33.73-9.56,34.18-29.95,34.18" transform="translate(-84.74 -104.44)"/><path class="cls-2" d="M720.75,924.39c0,.21-.58,6.5-.68,11.93l-.11,6H671.67c0-10.05,2.86-15.46,10.15-21.88l9.66-8.57c7.1-6.31,7.88-10.15,7.88-14.57,0-3.26-.68-10.26-10.73-10.26-8.38,0-10.65,3.55-14.88,9.66,0,0,.19-3.65.19-9.27,0-6.89-.19-9-.19-9s6.11-2.85,19.4-2.85c22,0,27.5,9,27.5,20.1,0,9.47-3.93,16.16-15.36,23.26l-6.22,3.84c-6.41,3.94-7.39,4.73-7.39,6.3h14.68c4.63,0,8.48-.79,10.86-2.15a14.7,14.7,0,0,0,3.53-2.58" transform="translate(-84.74 -104.44)"/><path class="cls-2" d="M754.91,948.93c-21.08,0-22.27-14.38-22.27-14.38s3.65,3.65,14.2,3.65c14.19,0,20.1-8.09,20.1-29.08,0-17.84-2.17-22.48-8.88-22.48-7.69,0-8.37,7.41-8.37,13.13s.3,13.1,6.31,13.1a6.34,6.34,0,0,0,4.73-1.67c-.1,8.07-6.5,10.53-12.82,10.53-14,0-17.73-10.84-17.73-21.09,0-13,6.79-25,28.07-25,25.33,0,28.3,19.4,28.3,35.38,0,36.55-23.84,37.93-31.64,37.93" transform="translate(-84.74 -104.44)"/><path class="cls-2" d="M824.26,880.74c-5.63,0-8.29,2.56-8.29,6.41s2.47,5.41,7.28,8.18l7,3.94s3.73-2.17,3.73-9.76c0-5.12-2.27-8.77-9.74-8.77m2.65,36.36-7.58-4.23s-4.83,2.46-4.83,10.24c0,3.65.68,9.76,10.24,9.76,5,0,9.26-1.87,9.26-7.1,0-4.43-2-5.82-7.09-8.67m-2.17,26.61c-24.63,0-27.6-9.86-27.6-17.24,0-10.44,8.77-15.27,16.66-16l-4.13-2.36c-3.36-1.87-11-6.41-11-17.64,0-13.31,10-19.22,25.53-19.22,17.63,0,25.61,5.91,25.61,15.87,0,9.56-7,13.4-14.18,14.39L840,904c8.67,4.83,12.61,9.35,12.61,18.82,0,13.29-9.16,20.89-27.88,20.89" transform="translate(-84.74 -104.44)"/></svg>