<svg id="Layer_1" data-name="Layer 1" xmlns="http://www.w3.org/2000/svg" viewBox="0 0 790.62 817.96"><defs><style>.cls-1{fill:#1b5e42;}</style></defs><path class="cls-1" d="M-800.89,703.47c.35,13.65.35,27.13,0,40.61-.34,8.54-6,13.66-13.65,13.49-7.85-.17-12.63-5.29-13.48-14V723.78c0-6.66-.17-13.32.17-20,.51-8.7,5.63-13.82,13.31-13.82C-806.69,689.82-801.06,694.94-800.89,703.47Z" transform="translate(1209.78 -8.07)"/><path class="cls-1" d="M-474.42,413c-2.39-7-8-9.56-15-9.56h-38.24V321.72h9.9c10.41,0,20.82.17,31.23-.18,7-.34,11.26-4.26,12.45-11.26,1-6.83-1.87-12.12-8.53-14.5a28.11,28.11,0,0,0-9.38-1.2c-11.78-.17-23.73-.17-35.84-.17V212.83h38.91c8.53-.18,13.82-4.44,14.84-11.44,1.2-9-4.6-15.53-14.5-15.7-13-.17-25.94,0-39.76,0,0-14,.17-27,0-39.93-.18-9-5.47-14.51-13.49-14.51-7.85,0-13.31,5.63-13.65,14.51-.17,3.41,0,7,0,10.41v29h-81.73V177c0-10.41.17-20.82,0-31.06-.18-9-5.64-14.68-13.49-14.68s-13.31,5.46-13.65,14.34c-.17,3.24,0,6.48,0,9.55v30H-746.1c0-12.8.17-25.26,0-37.72-.17-10.24-5.3-16.21-13.66-16.21-8.53-.17-13.31,5.63-13.65,16v37.89h-81.92v-8.88c0-10.23.18-20.65-.17-31.06-.17-8.7-5.46-13.82-13.14-14s-13.31,5.12-13.82,13.48c-.34,6.15-.17,12.29-.17,18.43v22h-81.75c0-13.82.17-27,0-39.94-.17-9.38-7-15.18-15.53-13.82-7,.85-11.43,6.49-11.6,14.85-.17,13,0,25.94,0,38.74h-81.58c0-13.31,0-26.11-.17-38.91,0-7.51-3.24-12.8-10.92-14.68-8.7-1.88-15.87,4.27-16,14-.34,13.14-.17,26.28-.17,40.1-13.82,0-26.62-.34-39.25.34-4.27.17-9.9,2.39-12.12,5.46-2.39,3.24-3.24,9.9-1.54,13.14,2.39,3.93,8,7.68,12.46,8,13.14,1,26.46.35,39.94.35v81.57h-37c-10.92.17-16.89,5.12-16.89,13.82.17,8.88,5.8,13.31,17.07,13.49h36.86v81.74H-1110c-10.41.17-20.65-.17-31.06.34-9.9.34-15.87,8.71-13,17.58,2.22,7,7.85,9.56,14.85,9.56h38.91v9.55c0,10.75-.17,21.34.17,31.92.34,7.5,5,11.6,12.12,12.8a13,13,0,0,0,14.16-10.24c.85-2.73.68-5.64.68-8.54.17-11.77.17-23.38.17-34.81h81.53v36.35c0,10.75,5.12,17.24,13.48,17.41,8.36,0,13.65-6.32,13.65-17.07.17-12.12,0-24.23,0-36.86h81.75c0,13-.17,25.43,0,37.88.17,9.9,5.8,16.22,14,16,8-.34,13.14-6.32,13.31-15.87.18-10.59.18-21.34-.17-31.92-.17-5.46,1.88-7,7-6.82,10.92.34,21.85.17,32.77.17h42.31v9.38c0,10.58-.17,21.33.34,31.92a12.87,12.87,0,0,0,12.46,13c6.83.51,12.8-4.27,14-11.44a45,45,0,0,0,.52-9.56v-32.6h81.74c0,14-.17,27.13.17,40.44A13.46,13.46,0,0,0-651,485.37c7,.17,13-5.29,13.83-12.8.17-3.25,0-6.49,0-9.73V431.27h81.74c0,12.63-.17,24.91,0,37,0,10.58,5.29,17.07,13.65,17.07,8.37-.17,13.49-6.49,13.49-17.24V430.9h10.58c10.07-.17,20.13.17,30.2-.34C-477.49,430.24-471.69,421.88-474.42,413Zm-517.6-9.9h-80.72V322.22H-992Zm.17-109.22h-80.72V213.34h80.72ZM-883,402.94h-80.89V322.05H-883Zm0-109h-80.72v-80.6H-883Zm28.16-80.55h80.89v80.72h-80.89ZM-773.75,403h-81.06v-80.6h81.06ZM-665,403h-80.55V322.05H-665Zm0-109.22h-80.72V213.34H-665Zm28.16-80.38h80.72v80.55h-80.72ZM-555.82,403h-80.72V322.22h80.72Z" transform="translate(1209.78 -8.07)"/><path class="cls-1" d="M-474.42,413c-2.39-7-8-9.56-15-9.56h-38.24V321.72h9.9c10.41,0,20.82.17,31.23-.18,7-.34,11.26-4.26,12.45-11.26,1-6.83-1.87-12.12-8.53-14.5a28.11,28.11,0,0,0-9.38-1.2c-11.78-.17-23.73-.17-35.84-.17V212.83h38.91c8.53-.18,13.82-4.44,14.84-11.44,1.2-9-4.6-15.53-14.5-15.7-13-.17-25.94,0-39.76,0,0-14,.17-27,0-39.93-.18-9-5.47-14.51-13.49-14.51-7.85,0-13.31,5.63-13.65,14.51-.17,3.41,0,7,0,10.41v29h-81.73V177c0-10.41.17-20.82,0-31.06-.18-9-5.64-14.68-13.49-14.68s-13.31,5.46-13.65,14.34c-.17,3.24,0,6.48,0,9.55v30H-746.1c0-12.8.17-25.26,0-37.72-.17-10.24-5.3-16.21-13.66-16.21-8.53-.17-13.31,5.63-13.65,16v37.89h-81.92v-8.88c0-10.23.18-20.65-.17-31.06-.17-8.7-5.46-13.82-13.14-14s-13.31,5.12-13.82,13.48c-.34,6.15-.17,12.29-.17,18.43v22h-81.75c0-13.82.17-27,0-39.94-.17-9.38-7-15.18-15.53-13.82-7,.85-11.43,6.49-11.6,14.85-.17,13,0,25.94,0,38.74h-81.58c0-13.31,0-26.11-.17-38.91,0-7.51-3.24-12.8-10.92-14.68-8.7-1.88-15.87,4.27-16,14-.34,13.14-.17,26.28-.17,40.1-13.82,0-26.62-.34-39.25.34-4.27.17-9.9,2.39-12.12,5.46-2.39,3.24-3.24,9.9-1.54,13.14,2.39,3.93,8,7.68,12.46,8,13.14,1,26.46.35,39.94.35v81.57h-37c-10.92.17-16.89,5.12-16.89,13.82.17,8.88,5.8,13.31,17.07,13.49h36.86v81.74H-1110c-10.41.17-20.65-.17-31.06.34-9.9.34-15.87,8.71-13,17.58,2.22,7,7.85,9.56,14.85,9.56h38.91v9.55c0,10.75-.17,21.34.17,31.92.34,7.5,5,11.6,12.12,12.8a13,13,0,0,0,14.16-10.24c.85-2.73.68-5.64.68-8.54.17-11.77.17-23.38.17-34.81h81.53v36.35c0,10.75,5.12,17.24,13.48,17.41,8.36,0,13.65-6.32,13.65-17.07.17-12.12,0-24.23,0-36.86h81.75c0,13-.17,25.43,0,37.88.17,9.9,5.8,16.22,14,16,8-.34,13.14-6.32,13.31-15.87.18-10.59.18-21.34-.17-31.92-.17-5.46,1.88-7,7-6.82,10.92.34,21.85.17,32.77.17h42.31v9.38c0,10.58-.17,21.33.34,31.92a12.87,12.87,0,0,0,12.46,13c6.83.51,12.8-4.27,14-11.44a45,45,0,0,0,.52-9.56v-32.6h81.74c0,14-.17,27.13.17,40.44A13.46,13.46,0,0,0-651,485.37c7,.17,13-5.29,13.83-12.8.17-3.25,0-6.49,0-9.73V431.27h81.74c0,12.63-.17,24.91,0,37,0,10.58,5.29,17.07,13.65,17.07,8.37-.17,13.49-6.49,13.49-17.24V430.9h10.58c10.07-.17,20.13.17,30.2-.34C-477.49,430.24-471.69,421.88-474.42,413Zm-517.6-9.9h-80.72V322.22H-992Zm.17-109.22h-80.72V213.34h80.72ZM-883,402.94h-80.89V322.05H-883Zm0-109h-80.72v-80.6H-883Zm28.16-80.55h80.89v80.72h-80.89ZM-773.75,403h-81.06v-80.6h81.06ZM-665,403h-80.55V322.05H-665Zm0-109.22h-80.72V213.34H-665Zm28.16-80.38h80.72v80.55h-80.72ZM-555.82,403h-80.72V322.22h80.72Zm81.4,10.07c-2.39-7-8-9.56-15-9.56h-38.24V321.72h9.9c10.41,0,20.82.17,31.23-.18,7-.34,11.26-4.26,12.45-11.26,1-6.83-1.87-12.12-8.53-14.5a28.11,28.11,0,0,0-9.38-1.2c-11.78-.17-23.73-.17-35.84-.17V212.83h38.91c8.53-.18,13.82-4.44,14.84-11.44,1.2-9-4.6-15.53-14.5-15.7-13-.17-25.94,0-39.76,0,0-14,.17-27,0-39.93-.18-9-5.47-14.51-13.49-14.51-7.85,0-13.31,5.63-13.65,14.51-.17,3.41,0,7,0,10.41v29h-81.73V177c0-10.41.17-20.82,0-31.06-.18-9-5.64-14.68-13.49-14.68s-13.31,5.46-13.65,14.34c-.17,3.24,0,6.48,0,9.55v30H-746.1c0-12.8.17-25.26,0-37.72-.17-10.24-5.3-16.21-13.66-16.21-8.53-.17-13.31,5.63-13.65,16v37.89h-81.92v-8.88c0-10.23.18-20.65-.17-31.06-.17-8.7-5.46-13.82-13.14-14s-13.31,5.12-13.82,13.48c-.34,6.15-.17,12.29-.17,18.43v22h-81.75c0-13.82.17-27,0-39.94-.17-9.38-7-15.18-15.53-13.82-7,.85-11.43,6.49-11.6,14.85-.17,13,0,25.94,0,38.74h-81.58c0-13.31,0-26.11-.17-38.91,0-7.51-3.24-12.8-10.92-14.68-8.7-1.88-15.87,4.27-16,14-.34,13.14-.17,26.28-.17,40.1-13.82,0-26.62-.34-39.25.34-4.27.17-9.9,2.39-12.12,5.46-2.39,3.24-3.24,9.9-1.54,13.14,2.39,3.93,8,7.68,12.46,8,13.14,1,26.46.35,39.94.35v81.57h-37c-10.92.17-16.89,5.12-16.89,13.82.17,8.88,5.8,13.31,17.07,13.49h36.86v81.74H-1110c-10.41.17-20.65-.17-31.06.34-9.9.34-15.87,8.71-13,17.58,2.22,7,7.85,9.56,14.85,9.56h38.91v9.55c0,10.75-.17,21.34.17,31.92.34,7.5,5,11.6,12.12,12.8a13,13,0,0,0,14.16-10.24c.85-2.73.68-5.64.68-8.54.17-11.77.17-23.38.17-34.81h81.53v36.35c0,10.75,5.12,17.24,13.48,17.41,8.36,0,13.65-6.32,13.65-17.07.17-12.12,0-24.23,0-36.86h81.75c0,13-.17,25.43,0,37.88.17,9.9,5.8,16.22,14,16,8-.34,13.14-6.32,13.31-15.87.18-10.59.18-21.34-.17-31.92-.17-5.46,1.88-7,7-6.82,10.92.34,21.85.17,32.77.17h42.31v9.38c0,10.58-.17,21.33.34,31.92a12.87,12.87,0,0,0,12.46,13c6.83.51,12.8-4.27,14-11.44a45,45,0,0,0,.52-9.56v-32.6h81.74c0,14-.17,27.13.17,40.44A13.46,13.46,0,0,0-651,485.37c7,.17,13-5.29,13.83-12.8.17-3.25,0-6.49,0-9.73V431.27h81.74c0,12.63-.17,24.91,0,37,0,10.58,5.29,17.07,13.65,17.07,8.37-.17,13.49-6.49,13.49-17.24V430.9h10.58c10.07-.17,20.13.17,30.2-.34,10.06-.32,15.86-8.68,13.13-17.55Zm-517.6-9.9h-80.72V322.22H-992Zm.17-109.22h-80.72v-80.6h80.72Zm108.88,109h-80.89V322.05H-883Zm0-109h-80.72v-80.6H-883Zm28.16-80.55h80.89v80.72h-80.89ZM-773.75,403h-81.06v-80.6h81.06ZM-665,403h-80.55V322.05H-665Zm0-109.22h-80.72V213.34H-665Zm28.16-80.38h80.72v80.55h-80.72ZM-555.82,403h-80.72V322.22h80.72ZM-814.54,690c-7.68,0-12.8,5.12-13.31,13.82-.34,6.65-.17,13.31-.17,20V743.6c.85,8.71,5.63,13.83,13.48,14,7.68.17,13.31-5,13.65-13.49q.52-20.22,0-40.61c-.17-8.56-5.8-13.68-13.65-13.51Zm340.12-277c-2.39-7-8-9.56-15-9.56h-38.24V321.72h9.9c10.41,0,20.82.17,31.23-.18,7-.34,11.26-4.26,12.45-11.26,1-6.83-1.87-12.12-8.53-14.5a28.11,28.11,0,0,0-9.38-1.2c-11.78-.17-23.73-.17-35.84-.17V212.83h38.91c8.53-.18,13.82-4.44,14.84-11.44,1.2-9-4.6-15.53-14.5-15.7-13-.17-25.94,0-39.76,0,0-14,.17-27,0-39.93-.18-9-5.47-14.51-13.49-14.51-7.85,0-13.31,5.63-13.65,14.51-.17,3.41,0,7,0,10.41v29h-81.73V177c0-10.41.17-20.82,0-31.06-.18-9-5.64-14.68-13.49-14.68s-13.31,5.46-13.65,14.34c-.17,3.24,0,6.48,0,9.55v30H-746.1c0-12.8.17-25.26,0-37.72-.17-10.24-5.3-16.21-13.66-16.21-8.53-.17-13.31,5.63-13.65,16v37.89h-81.92v-8.88c0-10.23.18-20.65-.17-31.06-.17-8.7-5.46-13.82-13.14-14s-13.31,5.12-13.82,13.48c-.34,6.15-.17,12.29-.17,18.43v22h-81.75c0-13.82.17-27,0-39.94-.17-9.38-7-15.18-15.53-13.82-7,.85-11.43,6.49-11.6,14.85-.17,13,0,25.94,0,38.74h-81.58c0-13.31,0-26.11-.17-38.91,0-7.51-3.24-12.8-10.92-14.68-8.7-1.88-15.87,4.27-16,14-.34,13.14-.17,26.28-.17,40.1-13.82,0-26.62-.34-39.25.34-4.27.17-9.9,2.39-12.12,5.46-2.39,3.24-3.24,9.9-1.54,13.14,2.39,3.93,8,7.68,12.46,8,13.14,1,26.46.35,39.94.35v81.57h-37c-10.92.17-16.89,5.12-16.89,13.82.17,8.88,5.8,13.31,17.07,13.49h36.86v81.74H-1110c-10.41.17-20.65-.17-31.06.34-9.9.34-15.87,8.71-13,17.58,2.22,7,7.85,9.56,14.85,9.56h38.91v9.55c0,10.75-.17,21.34.17,31.92.34,7.5,5,11.6,12.12,12.8a13,13,0,0,0,14.16-10.24c.85-2.73.68-5.64.68-8.54.17-11.77.17-23.38.17-34.81h81.53v36.35c0,10.75,5.12,17.24,13.48,17.41,8.36,0,13.65-6.32,13.65-17.07.17-12.12,0-24.23,0-36.86h81.75c0,13-.17,25.43,0,37.88.17,9.9,5.8,16.22,14,16,8-.34,13.14-6.32,13.31-15.87.18-10.59.18-21.34-.17-31.92-.17-5.46,1.88-7,7-6.82,10.92.34,21.85.17,32.77.17h42.31v9.38c0,10.58-.17,21.33.34,31.92a12.87,12.87,0,0,0,12.46,13c6.83.51,12.8-4.27,14-11.44a45,45,0,0,0,.52-9.56v-32.6h81.74c0,14-.17,27.13.17,40.44A13.46,13.46,0,0,0-651,485.37c7,.17,13-5.29,13.83-12.8.17-3.25,0-6.49,0-9.73V431.27h81.74c0,12.63-.17,24.91,0,37,0,10.58,5.29,17.07,13.65,17.07,8.37-.17,13.49-6.49,13.49-17.24V430.9h10.58c10.07-.17,20.13.17,30.2-.34,10.06-.32,15.86-8.68,13.13-17.55Zm-517.6-9.9h-80.72V322.22H-992Zm.17-109.22h-80.72V213.34h80.72ZM-883,402.94h-80.89V322.05H-883Zm0-109h-80.72v-80.6H-883Zm28.16-80.55h80.89v80.72h-80.89ZM-773.75,403h-81.06v-80.6h81.06ZM-665,403h-80.55V322.05H-665Zm0-109.22h-80.72V213.34H-665Zm28.16-80.38h80.72v80.55h-80.72ZM-555.82,403h-80.72V322.22h80.72Zm81.4,10.07c-2.39-7-8-9.56-15-9.56h-38.24V321.72h9.9c10.41,0,20.82.17,31.23-.18,7-.34,11.26-4.26,12.45-11.26,1-6.83-1.87-12.12-8.53-14.5a28.11,28.11,0,0,0-9.38-1.2c-11.78-.17-23.73-.17-35.84-.17V212.83h38.91c8.53-.18,13.82-4.44,14.84-11.44,1.2-9-4.6-15.53-14.5-15.7-13-.17-25.94,0-39.76,0,0-14,.17-27,0-39.93-.18-9-5.47-14.51-13.49-14.51-7.85,0-13.31,5.63-13.65,14.51-.17,3.41,0,7,0,10.41v29h-81.73V177c0-10.41.17-20.82,0-31.06-.18-9-5.64-14.68-13.49-14.68s-13.31,5.46-13.65,14.34c-.17,3.24,0,6.48,0,9.55v30H-746.1c0-12.8.17-25.26,0-37.72-.17-10.24-5.3-16.21-13.66-16.21-8.53-.17-13.31,5.63-13.65,16v37.89h-81.92v-8.88c0-10.23.18-20.65-.17-31.06-.17-8.7-5.46-13.82-13.14-14s-13.31,5.12-13.82,13.48c-.34,6.15-.17,12.29-.17,18.43v22h-81.75c0-13.82.17-27,0-39.94-.17-9.38-7-15.18-15.53-13.82-7,.85-11.43,6.49-11.6,14.85-.17,13,0,25.94,0,38.74h-81.58c0-13.31,0-26.11-.17-38.91,0-7.51-3.24-12.8-10.92-14.68-8.7-1.88-15.87,4.27-16,14-.34,13.14-.17,26.28-.17,40.1-13.82,0-26.62-.34-39.25.34-4.27.17-9.9,2.39-12.12,5.46-2.39,3.24-3.24,9.9-1.54,13.14,2.39,3.93,8,7.68,12.46,8,13.14,1,26.46.35,39.94.35v81.57h-37c-10.92.17-16.89,5.12-16.89,13.82.17,8.88,5.8,13.31,17.07,13.49h36.86v81.74H-1110c-10.41.17-20.65-.17-31.06.34-9.9.34-15.87,8.71-13,17.58,2.22,7,7.85,9.56,14.85,9.56h38.91v9.55c0,10.75-.17,21.34.17,31.92.34,7.5,5,11.6,12.12,12.8a13,13,0,0,0,14.16-10.24c.85-2.73.68-5.64.68-8.54.17-11.77.17-23.38.17-34.81h81.53v36.35c0,10.75,5.12,17.24,13.48,17.41,8.36,0,13.65-6.32,13.65-17.07.17-12.12,0-24.23,0-36.86h81.75c0,13-.17,25.43,0,37.88.17,9.9,5.8,16.22,14,16,8-.34,13.14-6.32,13.31-15.87.18-10.59.18-21.34-.17-31.92-.17-5.46,1.88-7,7-6.82,10.92.34,21.85.17,32.77.17h42.31v9.38c0,10.58-.17,21.33.34,31.92a12.87,12.87,0,0,0,12.46,13c6.83.51,12.8-4.27,14-11.44a45,45,0,0,0,.52-9.56v-32.6h81.74c0,14-.17,27.13.17,40.44A13.46,13.46,0,0,0-651,485.37c7,.17,13-5.29,13.83-12.8.17-3.25,0-6.49,0-9.73V431.27h81.74c0,12.63-.17,24.91,0,37,0,10.58,5.29,17.07,13.65,17.07,8.37-.17,13.49-6.49,13.49-17.24V430.9h10.58c10.07-.17,20.13.17,30.2-.34,10.06-.32,15.86-8.68,13.13-17.55Zm-517.6-9.9h-80.72V322.22H-992Zm.17-109.22h-80.72v-80.6h80.72Zm108.88,109h-80.89V322.05H-883Zm0-109h-80.72v-80.6H-883Zm28.16-80.55h80.89v80.72h-80.89ZM-773.75,403h-81.06v-80.6h81.06ZM-665,403h-80.55V322.05H-665Zm0-109.22h-80.72V213.34H-665Zm28.16-80.38h80.72v80.55h-80.72ZM-555.82,403h-80.72V322.22h80.72ZM-814.54,690c-7.68,0-12.8,5.12-13.31,13.82-.34,6.65-.17,13.31-.17,20V743.6c.85,8.71,5.63,13.83,13.48,14,7.68.17,13.31-5,13.65-13.49q.52-20.22,0-40.61c-.17-8.56-5.8-13.68-13.65-13.51ZM-463.15,76.64h-78.51c0-9.73.18-18.26-.17-26.62-.51-21.16-13.48-37.89-33.62-40.62a157.79,157.79,0,0,0-42.15.17C-637.91,12.3-650.54,29.2-650.88,51c-.17,8.36,0,16.73,0,25.09H-978.21c0-10.58.85-20.65-.17-30.72-2-21.85-18.77-36.69-40.62-37h-23.21c-27.81,0-44.71,16.89-44.71,44.71-.17,7.68-.17,15.19-.17,23.55h-9.72c-22,0-44.2.85-66.21-.17-27.65-1.4-46.76,18.22-46.76,46.22.68,123.55.34,246.94.34,370.5,0,30.72,16,46.76,46.76,46.76h293.87v39.59c-20.31,6.49-27.13,13.65-27.13,29.18,0,46.08-.51,92.16.17,138.06.51,28.68,13.82,51.37,38.06,66.22,9.72,6,21.5,8.7,32.25,13h22.36c1.7-.51,3.41-1.36,5.12-1.71,35.66-7.33,64-38.39,64.85-73.38,1-48.13.51-96.42.17-144.55,0-11.94-8.54-21.67-20.14-24.74-2.22-.51-4.44-1.2-6.32-1.71V540h295.93c27.13,0,44.2-16.73,44.2-43.69q.26-187.92,0-376C-419.29,93-436,76.81-463.15,76.64ZM-623.21,47.8c.51-7.34,5.46-11.61,12.63-12a268.81,268.81,0,0,1,28.67,0c6.83.34,11.94,4.44,12.46,11.44.51,9.38,0,18.94,0,28.84H-623.4C-623.4,66.23-623.74,57-623.21,47.8Zm-435.86-.51c.34-6.83,5.29-11.1,12.11-11.44a272.19,272.19,0,0,1,28.85,0c7.16.34,12.11,4.44,12.63,12,.51,9,.17,18.43.17,28.33h-53.9c0-10-.56-19.46.12-28.89Zm299,698.67c-.34,22.7-12.29,39.42-33.28,48.3-21.33,9-41.3,5-58.36-10.58-10.41-9.56-16.73-21.85-16.73-36-.34-45.4-.17-91-.17-136.53,0-.68.34-1.53.52-2.73h107.65c.17,1.88.51,3.41.51,5,0,44.19.34,88.35-.17,132.59Zm-81.09-165.88V540.49h53.59v39.59Zm394.56-87.2c0,15.87-3.92,19.79-19.8,19.79h-695.94c-15.87,0-19.8-3.75-19.8-19.62V123.4c0-16,3.59-19.45,19.8-19.45H-466.4c16.22,0,19.8,3.58,19.8,19.45Zm-42.83-89.43h-38.23V321.72h9.9c10.41,0,20.82.17,31.23-.18,7-.34,11.26-4.26,12.45-11.26,1-6.83-1.87-12.12-8.53-14.5a28.11,28.11,0,0,0-9.38-1.2c-11.78-.17-23.73-.17-35.84-.17V212.83h38.91c8.53-.18,13.82-4.44,14.84-11.44,1.2-9-4.6-15.53-14.5-15.7-13-.17-25.94,0-39.76,0,0-14,.17-27,0-39.93-.18-9-5.47-14.51-13.49-14.51-7.85,0-13.31,5.63-13.65,14.51-.17,3.41,0,7,0,10.41v29h-81.73V177c0-10.41.17-20.82,0-31.06-.18-9-5.64-14.68-13.49-14.68s-13.31,5.46-13.65,14.34c-.17,3.24,0,6.48,0,9.55v30H-746.1c0-12.8.17-25.26,0-37.72-.17-10.24-5.3-16.21-13.66-16.21-8.53-.17-13.31,5.63-13.65,16v37.89h-81.92v-8.88c0-10.23.18-20.65-.17-31.06-.17-8.7-5.46-13.82-13.14-14s-13.31,5.12-13.82,13.48c-.34,6.15-.17,12.29-.17,18.43v22h-81.75c0-13.82.17-27,0-39.94-.17-9.38-7-15.18-15.53-13.82-7,.85-11.43,6.49-11.6,14.85-.17,13,0,25.94,0,38.74h-81.58c0-13.31,0-26.11-.17-38.91,0-7.51-3.24-12.8-10.92-14.68-8.7-1.88-15.87,4.27-16,14-.34,13.14-.17,26.28-.17,40.1-13.82,0-26.62-.34-39.25.34-4.27.17-9.9,2.39-12.12,5.46-2.39,3.24-3.24,9.9-1.54,13.14,2.39,3.93,8,7.68,12.46,8,13.14,1,26.46.35,39.94.35v81.57h-37c-10.92.17-16.89,5.12-16.89,13.82.17,8.88,5.8,13.31,17.07,13.49h36.86v81.74H-1110c-10.41.17-20.65-.17-31.06.34-9.9.34-15.87,8.71-13,17.58,2.22,7,7.85,9.56,14.85,9.56h38.91v9.55c0,10.75-.17,21.34.17,31.92.34,7.5,5,11.6,12.12,12.8a13,13,0,0,0,14.16-10.24c.85-2.73.68-5.64.68-8.54.17-11.77.17-23.38.17-34.81h81.53v36.35c0,10.75,5.12,17.24,13.48,17.41,8.36,0,13.65-6.32,13.65-17.07.17-12.12,0-24.23,0-36.86h81.75c0,13-.17,25.43,0,37.88.17,9.9,5.8,16.22,14,16,8-.34,13.14-6.32,13.31-15.87.18-10.59.18-21.34-.17-31.92-.17-5.46,1.88-7,7-6.82,10.92.34,21.85.17,32.77.17h42.31v9.38c0,10.58-.17,21.33.34,31.92a12.87,12.87,0,0,0,12.46,13c6.83.51,12.8-4.27,14-11.44a45,45,0,0,0,.52-9.56v-32.6h81.74c0,14-.17,27.13.17,40.44A13.46,13.46,0,0,0-651,485.37c7,.17,13-5.29,13.83-12.8.17-3.25,0-6.49,0-9.73V431.27h81.74c0,12.63-.17,24.91,0,37,0,10.58,5.29,17.07,13.65,17.07,8.37-.17,13.49-6.49,13.49-17.24V430.9h10.58c10.07-.17,20.13.17,30.2-.34,10.07-.35,15.87-8.71,13.14-17.58-2.4-7-8-9.53-15-9.53ZM-992,403.11h-80.72V322.22H-992Zm.17-109.22h-80.72V213.34h80.72ZM-883,402.94h-80.89V322.05H-883Zm0-109h-80.72v-80.6H-883Zm28.16-80.55h80.89v80.72h-80.89ZM-773.75,403h-81.06v-80.6h81.06ZM-665,403h-80.55V322.05H-665Zm0-109.22h-80.72V213.34H-665Zm28.16-80.38h80.72v80.55h-80.72ZM-555.82,403h-80.72V322.22h80.72ZM-814.54,690c-7.68,0-12.8,5.12-13.31,13.82-.34,6.65-.17,13.31-.17,20V743.6c.85,8.71,5.63,13.83,13.48,14,7.68.17,13.31-5,13.65-13.49q.52-20.22,0-40.61c-.17-8.56-5.8-13.68-13.65-13.51Zm340.12-277c-2.39-7-8-9.56-15-9.56h-38.24V321.72h9.9c10.41,0,20.82.17,31.23-.18,7-.34,11.26-4.26,12.45-11.26,1-6.83-1.87-12.12-8.53-14.5a28.11,28.11,0,0,0-9.38-1.2c-11.78-.17-23.73-.17-35.84-.17V212.83h38.91c8.53-.18,13.82-4.44,14.84-11.44,1.2-9-4.6-15.53-14.5-15.7-13-.17-25.94,0-39.76,0,0-14,.17-27,0-39.93-.18-9-5.47-14.51-13.49-14.51-7.85,0-13.31,5.63-13.65,14.51-.17,3.41,0,7,0,10.41v29h-81.73V177c0-10.41.17-20.82,0-31.06-.18-9-5.64-14.68-13.49-14.68s-13.31,5.46-13.65,14.34c-.17,3.24,0,6.48,0,9.55v30H-746.1c0-12.8.17-25.26,0-37.72-.17-10.24-5.3-16.21-13.66-16.21-8.53-.17-13.31,5.63-13.65,16v37.89h-81.92v-8.88c0-10.23.18-20.65-.17-31.06-.17-8.7-5.46-13.82-13.14-14s-13.31,5.12-13.82,13.48c-.34,6.15-.17,12.29-.17,18.43v22h-81.75c0-13.82.17-27,0-39.94-.17-9.38-7-15.18-15.53-13.82-7,.85-11.43,6.49-11.6,14.85-.17,13,0,25.94,0,38.74h-81.58c0-13.31,0-26.11-.17-38.91,0-7.51-3.24-12.8-10.92-14.68-8.7-1.88-15.87,4.27-16,14-.34,13.14-.17,26.28-.17,40.1-13.82,0-26.62-.34-39.25.34-4.27.17-9.9,2.39-12.12,5.46-2.39,3.24-3.24,9.9-1.54,13.14,2.39,3.93,8,7.68,12.46,8,13.14,1,26.46.35,39.94.35v81.57h-37c-10.92.17-16.89,5.12-16.89,13.82.17,8.88,5.8,13.31,17.07,13.49h36.86v81.74H-1110c-10.41.17-20.65-.17-31.06.34-9.9.34-15.87,8.71-13,17.58,2.22,7,7.85,9.56,14.85,9.56h38.91v9.55c0,10.75-.17,21.34.17,31.92.34,7.5,5,11.6,12.12,12.8a13,13,0,0,0,14.16-10.24c.85-2.73.68-5.64.68-8.54.17-11.77.17-23.38.17-34.81h81.53v36.35c0,10.75,5.12,17.24,13.48,17.41,8.36,0,13.65-6.32,13.65-17.07.17-12.12,0-24.23,0-36.86h81.75c0,13-.17,25.43,0,37.88.17,9.9,5.8,16.22,14,16,8-.34,13.14-6.32,13.31-15.87.18-10.59.18-21.34-.17-31.92-.17-5.46,1.88-7,7-6.82,10.92.34,21.85.17,32.77.17h42.31v9.38c0,10.58-.17,21.33.34,31.92a12.87,12.87,0,0,0,12.46,13c6.83.51,12.8-4.27,14-11.44a45,45,0,0,0,.52-9.56v-32.6h81.74c0,14-.17,27.13.17,40.44A13.46,13.46,0,0,0-651,485.37c7,.17,13-5.29,13.83-12.8.17-3.25,0-6.49,0-9.73V431.27h81.74c0,12.63-.17,24.91,0,37,0,10.58,5.29,17.07,13.65,17.07,8.37-.17,13.49-6.49,13.49-17.24V430.9h10.58c10.07-.17,20.13.17,30.2-.34,10.06-.32,15.86-8.68,13.13-17.55Zm-517.6-9.9h-80.72V322.22H-992Zm.17-109.22h-80.72V213.34h80.72ZM-883,402.94h-80.89V322.05H-883Zm0-109h-80.72v-80.6H-883Zm28.16-80.55h80.89v80.72h-80.89ZM-773.75,403h-81.06v-80.6h81.06ZM-665,403h-80.55V322.05H-665Zm0-109.22h-80.72V213.34H-665Zm28.16-80.38h80.72v80.55h-80.72ZM-555.82,403h-80.72V322.22h80.72Zm81.4,10.07c-2.39-7-8-9.56-15-9.56h-38.24V321.72h9.9c10.41,0,20.82.17,31.23-.18,7-.34,11.26-4.26,12.45-11.26,1-6.83-1.87-12.12-8.53-14.5a28.11,28.11,0,0,0-9.38-1.2c-11.78-.17-23.73-.17-35.84-.17V212.83h38.91c8.53-.18,13.82-4.44,14.84-11.44,1.2-9-4.6-15.53-14.5-15.7-13-.17-25.94,0-39.76,0,0-14,.17-27,0-39.93-.18-9-5.47-14.51-13.49-14.51-7.85,0-13.31,5.63-13.65,14.51-.17,3.41,0,7,0,10.41v29h-81.73V177c0-10.41.17-20.82,0-31.06-.18-9-5.64-14.68-13.49-14.68s-13.31,5.46-13.65,14.34c-.17,3.24,0,6.48,0,9.55v30H-746.1c0-12.8.17-25.26,0-37.72-.17-10.24-5.3-16.21-13.66-16.21-8.53-.17-13.31,5.63-13.65,16v37.89h-81.92v-8.88c0-10.23.18-20.65-.17-31.06-.17-8.7-5.46-13.82-13.14-14s-13.31,5.12-13.82,13.48c-.34,6.15-.17,12.29-.17,18.43v22h-81.75c0-13.82.17-27,0-39.94-.17-9.38-7-15.18-15.53-13.82-7,.85-11.43,6.49-11.6,14.85-.17,13,0,25.94,0,38.74h-81.58c0-13.31,0-26.11-.17-38.91,0-7.51-3.24-12.8-10.92-14.68-8.7-1.88-15.87,4.27-16,14-.34,13.14-.17,26.28-.17,40.1-13.82,0-26.62-.34-39.25.34-4.27.17-9.9,2.39-12.12,5.46-2.39,3.24-3.24,9.9-1.54,13.14,2.39,3.93,8,7.68,12.46,8,13.14,1,26.46.35,39.94.35v81.57h-37c-10.92.17-16.89,5.12-16.89,13.82.17,8.88,5.8,13.31,17.07,13.49h36.86v81.74H-1110c-10.41.17-20.65-.17-31.06.34-9.9.34-15.87,8.71-13,17.58,2.22,7,7.85,9.56,14.85,9.56h38.91v9.55c0,10.75-.17,21.34.17,31.92.34,7.5,5,11.6,12.12,12.8a13,13,0,0,0,14.16-10.24c.85-2.73.68-5.64.68-8.54.17-11.77.17-23.38.17-34.81h81.53v36.35c0,10.75,5.12,17.24,13.48,17.41,8.36,0,13.65-6.32,13.65-17.07.17-12.12,0-24.23,0-36.86h81.75c0,13-.17,25.43,0,37.88.17,9.9,5.8,16.22,14,16,8-.34,13.14-6.32,13.31-15.87.18-10.59.18-21.34-.17-31.92-.17-5.46,1.88-7,7-6.82,10.92.34,21.85.17,32.77.17h42.31v9.38c0,10.58-.17,21.33.34,31.92a12.87,12.87,0,0,0,12.46,13c6.83.51,12.8-4.27,14-11.44a45,45,0,0,0,.52-9.56v-32.6h81.74c0,14-.17,27.13.17,40.44A13.46,13.46,0,0,0-651,485.37c7,.17,13-5.29,13.83-12.8.17-3.25,0-6.49,0-9.73V431.27h81.74c0,12.63-.17,24.91,0,37,0,10.58,5.29,17.07,13.65,17.07,8.37-.17,13.49-6.49,13.49-17.24V430.9h10.58c10.07-.17,20.13.17,30.2-.34,10.06-.32,15.86-8.68,13.13-17.55Zm-517.6-9.9h-80.72V322.22H-992Zm.17-109.22h-80.72v-80.6h80.72Zm108.88,109h-80.89V322.05H-883Zm0-109h-80.72v-80.6H-883Zm28.16-80.55h80.89v80.72h-80.89ZM-773.75,403h-81.06v-80.6h81.06ZM-665,403h-80.55V322.05H-665Zm0-109.22h-80.72V213.34H-665Zm28.16-80.38h80.72v80.55h-80.72ZM-555.82,403h-80.72V322.22h80.72Zm81.4,10.07c-2.39-7-8-9.56-15-9.56h-38.24V321.72h9.9c10.41,0,20.82.17,31.23-.18,7-.34,11.26-4.26,12.45-11.26,1-6.83-1.87-12.12-8.53-14.5a28.11,28.11,0,0,0-9.38-1.2c-11.78-.17-23.73-.17-35.84-.17V212.83h38.91c8.53-.18,13.82-4.44,14.84-11.44,1.2-9-4.6-15.53-14.5-15.7-13-.17-25.94,0-39.76,0,0-14,.17-27,0-39.93-.18-9-5.47-14.51-13.49-14.51-7.85,0-13.31,5.63-13.65,14.51-.17,3.41,0,7,0,10.41v29h-81.73V177c0-10.41.17-20.82,0-31.06-.18-9-5.64-14.68-13.49-14.68s-13.31,5.46-13.65,14.34c-.17,3.24,0,6.48,0,9.55v30H-746.1c0-12.8.17-25.26,0-37.72-.17-10.24-5.3-16.21-13.66-16.21-8.53-.17-13.31,5.63-13.65,16v37.89h-81.92v-8.88c0-10.23.18-20.65-.17-31.06-.17-8.7-5.46-13.82-13.14-14s-13.31,5.12-13.82,13.48c-.34,6.15-.17,12.29-.17,18.43v22h-81.75c0-13.82.17-27,0-39.94-.17-9.38-7-15.18-15.53-13.82-7,.85-11.43,6.49-11.6,14.85-.17,13,0,25.94,0,38.74h-81.58c0-13.31,0-26.11-.17-38.91,0-7.51-3.24-12.8-10.92-14.68-8.7-1.88-15.87,4.27-16,14-.34,13.14-.17,26.28-.17,40.1-13.82,0-26.62-.34-39.25.34-4.27.17-9.9,2.39-12.12,5.46-2.39,3.24-3.24,9.9-1.54,13.14,2.39,3.93,8,7.68,12.46,8,13.14,1,26.46.35,39.94.35v81.57h-37c-10.92.17-16.89,5.12-16.89,13.82.17,8.88,5.8,13.31,17.07,13.49h36.86v81.74H-1110c-10.41.17-20.65-.17-31.06.34-9.9.34-15.87,8.71-13,17.58,2.22,7,7.85,9.56,14.85,9.56h38.91v9.55c0,10.75-.17,21.34.17,31.92.34,7.5,5,11.6,12.12,12.8a13,13,0,0,0,14.16-10.24c.85-2.73.68-5.64.68-8.54.17-11.77.17-23.38.17-34.81h81.53v36.35c0,10.75,5.12,17.24,13.48,17.41,8.36,0,13.65-6.32,13.65-17.07.17-12.12,0-24.23,0-36.86h81.75c0,13-.17,25.43,0,37.88.17,9.9,5.8,16.22,14,16,8-.34,13.14-6.32,13.31-15.87.18-10.59.18-21.34-.17-31.92-.17-5.46,1.88-7,7-6.82,10.92.34,21.85.17,32.77.17h42.31v9.38c0,10.58-.17,21.33.34,31.92a12.87,12.87,0,0,0,12.46,13c6.83.51,12.8-4.27,14-11.44a45,45,0,0,0,.52-9.56v-32.6h81.74c0,14-.17,27.13.17,40.44A13.46,13.46,0,0,0-651,485.37c7,.17,13-5.29,13.83-12.8.17-3.25,0-6.49,0-9.73V431.27h81.74c0,12.63-.17,24.91,0,37,0,10.58,5.29,17.07,13.65,17.07,8.37-.17,13.49-6.49,13.49-17.24V430.9h10.58c10.07-.17,20.13.17,30.2-.34,10.06-.32,15.86-8.68,13.13-17.55Zm-517.6-9.9h-80.72V322.22H-992Zm.17-109.22h-80.72v-80.6h80.72Zm108.88,109h-80.89V322.05H-883Zm0-109h-80.72v-80.6H-883Zm28.16-80.55h80.89v80.72h-80.89ZM-773.75,403h-81.06v-80.6h81.06ZM-665,403h-80.55V322.05H-665Zm0-109.22h-80.72V213.34H-665Zm28.16-80.38h80.72v80.55h-80.72ZM-555.82,403h-80.72V322.22h80.72Zm81.4,10.07c-2.39-7-8-9.56-15-9.56h-38.24V321.72h9.9c10.41,0,20.82.17,31.23-.18,7-.34,11.26-4.26,12.45-11.26,1-6.83-1.87-12.12-8.53-14.5a28.11,28.11,0,0,0-9.38-1.2c-11.78-.17-23.73-.17-35.84-.17V212.83h38.91c8.53-.18,13.82-4.44,14.84-11.44,1.2-9-4.6-15.53-14.5-15.7-13-.17-25.94,0-39.76,0,0-14,.17-27,0-39.93-.18-9-5.47-14.51-13.49-14.51-7.85,0-13.31,5.63-13.65,14.51-.17,3.41,0,7,0,10.41v29h-81.73V177c0-10.41.17-20.82,0-31.06-.18-9-5.64-14.68-13.49-14.68s-13.31,5.46-13.65,14.34c-.17,3.24,0,6.48,0,9.55v30H-746.1c0-12.8.17-25.26,0-37.72-.17-10.24-5.3-16.21-13.66-16.21-8.53-.17-13.31,5.63-13.65,16v37.89h-81.92v-8.88c0-10.23.18-20.65-.17-31.06-.17-8.7-5.46-13.82-13.14-14s-13.31,5.12-13.82,13.48c-.34,6.15-.17,12.29-.17,18.43v22h-81.75c0-13.82.17-27,0-39.94-.17-9.38-7-15.18-15.53-13.82-7,.85-11.43,6.49-11.6,14.85-.17,13,0,25.94,0,38.74h-81.58c0-13.31,0-26.11-.17-38.91,0-7.51-3.24-12.8-10.92-14.68-8.7-1.88-15.87,4.27-16,14-.34,13.14-.17,26.28-.17,40.1-13.82,0-26.62-.34-39.25.34-4.27.17-9.9,2.39-12.12,5.46-2.39,3.24-3.24,9.9-1.54,13.14,2.39,3.93,8,7.68,12.46,8,13.14,1,26.46.35,39.94.35v81.57h-37c-10.92.17-16.89,5.12-16.89,13.82.17,8.88,5.8,13.31,17.07,13.49h36.86v81.74H-1110c-10.41.17-20.65-.17-31.06.34-9.9.34-15.87,8.71-13,17.58,2.22,7,7.85,9.56,14.85,9.56h38.91v9.55c0,10.75-.17,21.34.17,31.92.34,7.5,5,11.6,12.12,12.8a13,13,0,0,0,14.16-10.24c.85-2.73.68-5.64.68-8.54.17-11.77.17-23.38.17-34.81h81.53v36.35c0,10.75,5.12,17.24,13.48,17.41,8.36,0,13.65-6.32,13.65-17.07.17-12.12,0-24.23,0-36.86h81.75c0,13-.17,25.43,0,37.88.17,9.9,5.8,16.22,14,16,8-.34,13.14-6.32,13.31-15.87.18-10.59.18-21.34-.17-31.92-.17-5.46,1.88-7,7-6.82,10.92.34,21.85.17,32.77.17h42.31v9.38c0,10.58-.17,21.33.34,31.92a12.87,12.87,0,0,0,12.46,13c6.83.51,12.8-4.27,14-11.44a45,45,0,0,0,.52-9.56v-32.6h81.74c0,14-.17,27.13.17,40.44A13.46,13.46,0,0,0-651,485.37c7,.17,13-5.29,13.83-12.8.17-3.25,0-6.49,0-9.73V431.27h81.74c0,12.63-.17,24.91,0,37,0,10.58,5.29,17.07,13.65,17.07,8.37-.17,13.49-6.49,13.49-17.24V430.9h10.58c10.07-.17,20.13.17,30.2-.34,10.06-.32,15.86-8.68,13.13-17.55Zm-517.6-9.9h-80.72V322.22H-992Zm.17-109.22h-80.72v-80.6h80.72Zm108.88,109h-80.89V322.05H-883Zm0-109h-80.72v-80.6H-883Zm28.16-80.55h80.89v80.72h-80.89ZM-773.75,403h-81.06v-80.6h81.06ZM-665,403h-80.55V322.05H-665Zm0-109.22h-80.72V213.34H-665Zm28.16-80.38h80.72v80.55h-80.72ZM-555.82,403h-80.72V322.22h80.72Z" transform="translate(1209.78 -8.07)"/><path class="cls-1" d="M-474.42,413c-2.39-7-8-9.56-15-9.56h-38.24V321.72h9.9c10.41,0,20.82.17,31.23-.18,7-.34,11.26-4.26,12.45-11.26,1-6.83-1.87-12.12-8.53-14.5a28.11,28.11,0,0,0-9.38-1.2c-11.78-.17-23.73-.17-35.84-.17V212.83h38.91c8.53-.18,13.82-4.44,14.84-11.44,1.2-9-4.6-15.53-14.5-15.7-13-.17-25.94,0-39.76,0,0-14,.17-27,0-39.93-.18-9-5.47-14.51-13.49-14.51-7.85,0-13.31,5.63-13.65,14.51-.17,3.41,0,7,0,10.41v29h-81.73V177c0-10.41.17-20.82,0-31.06-.18-9-5.64-14.68-13.49-14.68s-13.31,5.46-13.65,14.34c-.17,3.24,0,6.48,0,9.55v30H-746.1c0-12.8.17-25.26,0-37.72-.17-10.24-5.3-16.21-13.66-16.21-8.53-.17-13.31,5.63-13.65,16v37.89h-81.92v-8.88c0-10.23.18-20.65-.17-31.06-.17-8.7-5.46-13.82-13.14-14s-13.31,5.12-13.82,13.48c-.34,6.15-.17,12.29-.17,18.43v22h-81.75c0-13.82.17-27,0-39.94-.17-9.38-7-15.18-15.53-13.82-7,.85-11.43,6.49-11.6,14.85-.17,13,0,25.94,0,38.74h-81.58c0-13.31,0-26.11-.17-38.91,0-7.51-3.24-12.8-10.92-14.68-8.7-1.88-15.87,4.27-16,14-.34,13.14-.17,26.28-.17,40.1-13.82,0-26.62-.34-39.25.34-4.27.17-9.9,2.39-12.12,5.46-2.39,3.24-3.24,9.9-1.54,13.14,2.39,3.93,8,7.68,12.46,8,13.14,1,26.46.35,39.94.35v81.57h-37c-10.92.17-16.89,5.12-16.89,13.82.17,8.88,5.8,13.31,17.07,13.49h36.86v81.74H-1110c-10.41.17-20.65-.17-31.06.34-9.9.34-15.87,8.71-13,17.58,2.22,7,7.85,9.56,14.85,9.56h38.91v9.55c0,10.75-.17,21.34.17,31.92.34,7.5,5,11.6,12.12,12.8a13,13,0,0,0,14.16-10.24c.85-2.73.68-5.64.68-8.54.17-11.77.17-23.38.17-34.81h81.53v36.35c0,10.75,5.12,17.24,13.48,17.41,8.36,0,13.65-6.32,13.65-17.07.17-12.12,0-24.23,0-36.86h81.75c0,13-.17,25.43,0,37.88.17,9.9,5.8,16.22,14,16,8-.34,13.14-6.32,13.31-15.87.18-10.59.18-21.34-.17-31.92-.17-5.46,1.88-7,7-6.82,10.92.34,21.85.17,32.77.17h42.31v9.38c0,10.58-.17,21.33.34,31.92a12.87,12.87,0,0,0,12.46,13c6.83.51,12.8-4.27,14-11.44a45,45,0,0,0,.52-9.56v-32.6h81.74c0,14-.17,27.13.17,40.44A13.46,13.46,0,0,0-651,485.37c7,.17,13-5.29,13.83-12.8.17-3.25,0-6.49,0-9.73V431.27h81.74c0,12.63-.17,24.91,0,37,0,10.58,5.29,17.07,13.65,17.07,8.37-.17,13.49-6.49,13.49-17.24V430.9h10.58c10.07-.17,20.13.17,30.2-.34C-477.49,430.24-471.69,421.88-474.42,413Zm-517.6-9.9h-80.72V322.22H-992Zm.17-109.22h-80.72V213.34h80.72ZM-883,402.94h-80.89V322.05H-883Zm0-109h-80.72v-80.6H-883Zm28.16-80.55h80.89v80.72h-80.89ZM-773.75,403h-81.06v-80.6h81.06ZM-665,403h-80.55V322.05H-665Zm0-109.22h-80.72V213.34H-665Zm28.16-80.38h80.72v80.55h-80.72ZM-555.82,403h-80.72V322.22h80.72Z" transform="translate(1209.78 -8.07)"/><path class="cls-1" d="M-800.89,703.47c.35,13.65.35,27.13,0,40.61-.34,8.54-6,13.66-13.65,13.49-7.85-.17-12.63-5.29-13.48-14V723.78c0-6.66-.17-13.32.17-20,.51-8.7,5.63-13.82,13.31-13.82C-806.69,689.82-801.06,694.94-800.89,703.47Z" transform="translate(1209.78 -8.07)"/></svg>