<svg id="katman_1" data-name="katman 1" xmlns="http://www.w3.org/2000/svg" viewBox="0 0 54.77 54.77"><defs><style>.cls-1{fill:#1c5e43;}.cls-2,.cls-4{fill:none;stroke:#fff;stroke-width:0.68px;}.cls-2{stroke-miterlimit:10;}.cls-3{fill:#fff;}.cls-4{stroke-linecap:round;stroke-linejoin:round;}</style></defs><path class="cls-1" d="M533.74,189.09a27.39,27.39,0,1,1-27.39-27.38,27.39,27.39,0,0,1,27.39,27.38" transform="translate(-478.97 -161.71)"/><path class="cls-1" d="M524.42,189.09A18.07,18.07,0,1,1,506.35,171a18.07,18.07,0,0,1,18.07,18.07" transform="translate(-478.97 -161.71)"/><circle class="cls-2" cx="27.38" cy="27.38" r="18.07"/><path class="cls-3" d="M485,191.81c.06.3.32.41.66.35s.54-.26.48-.57-.3-.42-.65-.36-.54.26-.49.58m1.65-.31a1.06,1.06,0,0,1-.85,1.36,1.07,1.07,0,0,1-1.3-1,1.1,1.1,0,1,1,2.15-.39m-3.95,3.08c.06.31.31.42.66.36s.54-.26.48-.57-.31-.42-.66-.36-.54.26-.48.57m1.65-.31a1.07,1.07,0,0,1-.85,1.37,1.08,1.08,0,0,1-1.31-1,1.06,1.06,0,0,1,.86-1.36,1.07,1.07,0,0,1,1.3,1m2.71-.22.14.75-5.41-2.69-.14-.74Z" transform="translate(-478.97 -161.71)"/><path class="cls-3" d="M486.5,188.73c0,.57,0,.82,0,.82l-.11-.06c-.25-.14-.31-.17-2.34-.19H483c-.09,0-.14,0-.14.17v.78c-.79-.45-.59-1.69-1-2.21,0,0,.9.07,2.46.09,1.82,0,1.85,0,2.12-.15l.12-.06s0,.24,0,.82" transform="translate(-478.97 -161.71)"/><path class="cls-3" d="M483,184.53a.59.59,0,0,0,.35.69,4.72,4.72,0,0,0,1.14.34c1.19.23,1.66.14,1.76-.38a.57.57,0,0,0-.3-.67,4.09,4.09,0,0,0-1.19-.37c-1.19-.23-1.66-.14-1.76.39m3.92.78c-.27,1.4-1.27,1.74-2.66,1.47s-2.2-1-1.92-2.39,1.26-1.74,2.65-1.48,2.2,1,1.93,2.4" transform="translate(-478.97 -161.71)"/><path class="cls-3" d="M484.54,179.64a.58.58,0,0,0,.2.75,4.28,4.28,0,0,0,1,.58c1.11.48,1.59.49,1.8,0a.58.58,0,0,0-.15-.72,3.92,3.92,0,0,0-1.09-.62c-1.11-.48-1.58-.49-1.8,0m3.66,1.61c-.56,1.3-1.61,1.42-2.91.87s-1.94-1.41-1.36-2.75,1.61-1.43,2.9-.87,1.95,1.41,1.37,2.75" transform="translate(-478.97 -161.71)"/><path class="cls-3" d="M489.29,172.67l.21,1.45,1.83.17a3.47,3.47,0,0,0,1.53,0l-.56.65-.48.57-2.81-.33c1.44,1.22,1.53,1.26,1.83,1.33l.13,0s-.17.18-.54.62-.53.64-.53.64l0-.12c-.11-.27-.12-.32-1.68-1.64s-1.54-1.27-1.84-1.34l-.13,0s.16-.16.54-.61.53-.65.53-.65l0,.12c.11.26.14.35,1.65,1.62l-.35-1.68c-.1-.54-.16-.75-.31-.88a.31.31,0,0,0-.29-.06s.17-.17.57-.65.59-.72.59-.72a6.17,6.17,0,0,0,.12,1.53" transform="translate(-478.97 -161.71)"/><path class="cls-3" d="M493.55,168c0,.27.05.36,1,1.71l.32.43c.46.62.75,1,.7,1.56a1.92,1.92,0,0,1-.94,1.43,2.11,2.11,0,0,1-1.63.55c-.48-.09-.79-.38-1.24-1l-.34-.46c-1.07-1.46-1.15-1.52-1.42-1.65l-.12-.06.68-.48.67-.51,0,.13c0,.27,0,.35,1,1.7l.57.77a2.27,2.27,0,0,0,.36.43.95.95,0,0,0,1.39-1,3,3,0,0,0-.29-.47l-.41-.55c-1.17-1.59-1.21-1.6-1.48-1.73l-.12-.06s.21-.13.6-.42.58-.44.58-.44Z" transform="translate(-478.97 -161.71)"/><path class="cls-3" d="M499.93,170l.07.2-3.37,1.47-.3-.69.78-4-1.1.48a1.46,1.46,0,0,0-.61.45,1,1,0,0,0-.15.26s-.05-.15-.21-.52a3.59,3.59,0,0,0-.21-.44l3.21-1.41.3.67-.77,4,1.15-.51c.78-.33.79-.56.88-1,0,0,.15.53.33,1" transform="translate(-478.97 -161.71)"/><path class="cls-3" d="M503.77,164.53c-.08.25-.11.33.22,2l.1.53a2.36,2.36,0,0,1,0,1.7,1.91,1.91,0,0,1-1.46.9,2.08,2.08,0,0,1-1.71-.2,1.94,1.94,0,0,1-.7-1.41l-.11-.56c-.35-1.78-.4-1.86-.59-2.1l-.08-.1.82-.15c.55-.11.82-.18.82-.18l0,.13c-.08.25-.1.34.22,2l.18.93a3.2,3.2,0,0,0,.15.54c.16.32.42.49.95.39s.71-.37.74-.72a2.72,2.72,0,0,0-.06-.55l-.14-.67c-.38-1.94-.41-2-.6-2.2l-.08-.1.72-.12c.5-.1.71-.16.71-.16Z" transform="translate(-478.97 -161.71)"/><path class="cls-3" d="M510,167.87c-.3,0-.49.18-.53.53s.08.59.4.63.49-.17.53-.52-.07-.6-.4-.64m-.19,1.67a1.1,1.1,0,1,1,1.31-.95,1.08,1.08,0,0,1-1.31.95m-1.77-4.69c-.31,0-.49.17-.54.52s.08.59.4.63.5-.17.54-.52-.09-.59-.4-.63m-.2,1.67a1.1,1.1,0,1,1,1.31-1,1.08,1.08,0,0,1-1.31,1m-.59,2.65-.75-.09,4.16-4.36.75.09Z" transform="translate(-478.97 -161.71)"/><path class="cls-3" d="M512.53,170.18c-.54-.18-.78-.24-.78-.24l.09-.09c.21-.2.25-.24.88-2.18l.33-1c0-.09,0-.14-.13-.19l-.74-.24c.66-.62,1.79-.06,2.4-.29,0,0-.33.84-.81,2.33-.55,1.72-.54,1.76-.49,2.06l0,.13s-.23-.09-.78-.26" transform="translate(-478.97 -161.71)"/><path class="cls-3" d="M517.57,168.1a.59.59,0,0,0-.77.14,4.05,4.05,0,0,0-.66,1c-.58,1.07-.62,1.55-.16,1.8a.58.58,0,0,0,.73-.09,4,4,0,0,0,.7-1c.58-1.07.63-1.54.16-1.8m-1.91,3.51c-1.25-.67-1.29-1.72-.62-3s1.56-1.81,2.85-1.13,1.29,1.73.63,3-1.58,1.82-2.86,1.13" transform="translate(-478.97 -161.71)"/><path class="cls-3" d="M521.81,171a.59.59,0,0,0-.78,0,4.26,4.26,0,0,0-.86.82c-.79.92-.93,1.37-.53,1.72a.58.58,0,0,0,.73.07,4.12,4.12,0,0,0,.9-.86c.79-.92.94-1.37.54-1.72m-2.62,3c-1.07-.92-.88-2,0-3s1.92-1.44,3-.5.89,2,0,3-1.93,1.45-3,.5" transform="translate(-478.97 -161.71)"/><path class="cls-3" d="M522.64,177.76a3.24,3.24,0,0,1-.56-1.19s.14-.08.45-.29l.54-.38a1.34,1.34,0,0,0,.12,1.39c.25.38.54.63.9.38s.26-.43.23-.8l-.06-.64a1.53,1.53,0,0,1,.59-1.55c.76-.51,1.48-.26,2.11.68a3,3,0,0,1,.53,1.12s-.14.08-.46.3a6.08,6.08,0,0,0-.51.36,1.31,1.31,0,0,0-.1-1.32c-.24-.37-.5-.53-.8-.34s-.22.43-.18.85l0,.55a1.5,1.5,0,0,1-.63,1.6c-.93.63-1.64.14-2.22-.72" transform="translate(-478.97 -161.71)"/><path class="cls-3" d="M528.36,179.85c.24-.18.38-.26.42-.29l-.5.09-1.69.25.4,1Zm-3.09,2.94c-.19-.45-.36-.83-.36-.83a.47.47,0,0,0,.48,0,4.46,4.46,0,0,0,.8-.54l.23-.17-.53-1.28-.29,0a4.88,4.88,0,0,0-.94.18.49.49,0,0,0-.32.36s-.1-.29-.28-.71-.29-.67-.29-.67a4,4,0,0,0,1.73,0l2.92-.35a.71.71,0,0,0,.25-.06c.08,0,.11-.08.11-.1l.77,1.85a.34.34,0,0,0-.15,0,1,1,0,0,0-.22.13l-2.33,1.77c-.78.59-1.12.86-1.25,1.18,0,0-.12-.34-.33-.84" transform="translate(-478.97 -161.71)"/><path class="cls-3" d="M531.71,185a1.46,1.46,0,0,0,.76,1.05,1.16,1.16,0,1,1-.39-2.29,1.44,1.44,0,0,0-.37,1.24m-3.33,2.39c-.25-.09-.35-.11-1.92.16h0a4.32,4.32,0,0,1-.46-1.38c-.25-1.46.25-2.66,1.88-2.94s2.69.51,3,2.15a3.51,3.51,0,0,1,0,1.37l-.56.08-.58.12a1.27,1.27,0,0,0,.42-1.32c-.15-.88-.72-1.41-2-1.18-1.08.19-1.64.63-1.46,1.63a2,2,0,0,0,.06.27c1-.17,1.22-.25,1.43-.42l.1-.09s0,.25.12.78.16.8.16.8Z" transform="translate(-478.97 -161.71)"/><path class="cls-3" d="M526.43,191.18l-.26,0,.07-2.47c0-.37,0-.52,0-.52l.11.06c.25.14.3.18,2.34.23s2,0,2.28-.1l.11-.06s0,.23,0,.85,0,.82,0,.82l-.12-.07c-.26-.15-.39-.19-1.93-.23l-2.1-.06v.45c0,.85.17,1,.53,1.22,0,0-.27,0-1-.1" transform="translate(-478.97 -161.71)"/><path class="cls-3" d="M526,192.38c.1-.56.13-.81.13-.81l.1.08c.23.17.27.21,2.28.56s2,.31,2.27.21l.12,0s-.05.22-.15.81-.13.81-.13.81l-.1-.07c-.23-.18-.27-.22-2.28-.57s-2-.3-2.27-.21l-.12,0s.05-.24.15-.81" transform="translate(-478.97 -161.71)"/><path class="cls-3" d="M528.16,198.28l-.71-1.29-1.77.5a3.58,3.58,0,0,0-1.43.54s.07-.17.3-.8l.24-.7,2.75-.69c-1.78-.63-1.88-.64-2.19-.59l-.12,0s.09-.23.28-.77.26-.79.26-.79l.09.1c.2.21.23.26,2.15.93s1.9.64,2.2.6l.13,0s-.09.21-.28.77-.26.78-.26.78l-.09-.09c-.19-.2-.25-.27-2.11-.92l.92,1.44c.29.47.41.64.6.71a.31.31,0,0,0,.3,0s-.1.23-.3.82-.3.87-.3.87a6.53,6.53,0,0,0-.66-1.37" transform="translate(-478.97 -161.71)"/><path class="cls-3" d="M522.86,200.67l-.21-.14,1.26-2.12c.19-.32.26-.46.26-.46l.07.11c.14.25.17.31,1.92,1.34s1.74,1,2,1h.13s-.13.2-.44.73-.41.72-.41.72l-.07-.13c-.15-.26-.24-.35-1.57-1.14l-1.8-1.07-.24.39c-.42.73-.31.92-.12,1.32l-.82-.57" transform="translate(-478.97 -161.71)"/><path class="cls-3" d="M521.85,201.5c.36-.45.51-.66.51-.66l0,.12c.12.27.13.33,1.72,1.6s1.58,1.23,1.88,1.29l.12,0s-.15.17-.52.63-.51.66-.51.66l-.05-.12c-.11-.27-.13-.33-1.71-1.6s-1.58-1.23-1.88-1.29l-.13,0s.16-.18.52-.63" transform="translate(-478.97 -161.71)"/><path class="cls-3" d="M517.79,205.7l-.15-.21,1.91-1.55.41-.33,0,.12c0,.28.06.35,1.34,1.93s1.28,1.54,1.56,1.66l.12.05s-.19.13-.67.52-.63.53-.63.53l0-.14c0-.29-.11-.42-1.08-1.61L519.28,205l-.35.28c-.65.53-.61.76-.58,1.2,0,0-.14-.23-.56-.82" transform="translate(-478.97 -161.71)"/><path class="cls-3" d="M514.64,207.47l-.11-.23,2.33-1.28.45-.26v.13c0,.29,0,.35,1,2.14s1,1.74,1.25,1.91l.1.07-.45.24-2.27,1.25-.23-.43a5.28,5.28,0,0,0-.27-.46.84.84,0,0,0,.3,0,1.64,1.64,0,0,0,.72-.23l.63-.35-.66-1.21-.49.27a1.68,1.68,0,0,0-.59.47,1.09,1.09,0,0,0-.13.28,5.62,5.62,0,0,0-.3-.59,5.76,5.76,0,0,0-.33-.56.7.7,0,0,0,.31,0,1.68,1.68,0,0,0,.71-.25l.49-.27-.67-1.22-.57.31c-.74.4-.74.63-.79,1.07,0,0-.1-.25-.41-.9" transform="translate(-478.97 -161.71)"/><path class="cls-3" d="M510.77,208.71l0-.2,3.5-1.11.23.72L513.26,212l1.14-.36a1.62,1.62,0,0,0,.66-.38,2.54,2.54,0,0,0,.18-.25,3.29,3.29,0,0,0,.15.53c.1.33.16.47.16.47l-3.34,1.07-.23-.71,1.19-3.93-1.2.38c-.8.26-.84.49-1,.91,0,0-.1-.54-.23-1" transform="translate(-478.97 -161.71)"/><path class="cls-3" d="M506.79,209.2V209l3.65-.41.08.75L508.58,213l1.18-.14a1.48,1.48,0,0,0,.72-.24,1.3,1.3,0,0,0,.23-.21,3.32,3.32,0,0,0,0,.55c0,.34.07.49.07.49l-3.49.39-.08-.73,1.94-3.62-1.26.14c-.83.09-.92.31-1.13.7,0,0,0-.56,0-1.08" transform="translate(-478.97 -161.71)"/><path class="cls-3" d="M503.12,209l0-.25,2.65.21.52,0-.07.11c-.16.24-.2.29-.36,2.32s-.14,2,0,2.28l.05.12-.51-.05-2.59-.21s0-.15.05-.48,0-.52,0-.54a.85.85,0,0,0,.22.2,1.52,1.52,0,0,0,.74.21l.71.06.11-1.37-.55,0a1.54,1.54,0,0,0-.75.06.92.92,0,0,0-.26.16s0-.2.07-.66a5.07,5.07,0,0,0,0-.64,1.1,1.1,0,0,0,.23.2,1.53,1.53,0,0,0,.74.19l.55,0,.11-1.4-.64-.05c-.84-.07-1,.12-1.25.46,0,0,.06-.26.16-1" transform="translate(-478.97 -161.71)"/><path class="cls-3" d="M498.21,211.35a.93.93,0,0,0,.18.25,1.49,1.49,0,0,0,.67.36l.35.1.47-1.71c.53-1.91.51-1.94.45-2.24l0-.13s.23.08.78.23.81.21.81.21l-.09.1c-.2.21-.25.25-.79,2.21l-.46,1.64.36.1a1.52,1.52,0,0,0,.75,0,.83.83,0,0,0,.28-.12s-.06.18-.16.52l-.12.47-3.72-1s.05-.14.14-.46.13-.52.13-.54" transform="translate(-478.97 -161.71)"/><path class="cls-4" d="M497.76,209.69a22.39,22.39,0,0,1-12.34-12.87" transform="translate(-478.97 -161.71)"/><path class="cls-3" d="M517.91,187.34a4,4,0,0,1-.17.36.6.6,0,0,1-.88.32,8,8,0,0,1-.9-.51.33.33,0,0,0-.19-.07,1.4,1.4,0,0,0,.1.16,2.41,2.41,0,0,1,.23,3.07c-.09.16,0,.25,0,.37a2.4,2.4,0,0,1-.08,2.77c0,.05-.07.12-.12.15a.93.93,0,0,0-.35.92c0,1.37,0,2.73,0,4.1a.73.73,0,1,1-1.45,0v-4.11c-.24,0-.47-.05-.63.18a.46.46,0,0,1-.18.16c-.36.16-.37.46-.36.8s0,.91,0,1.37a.73.73,0,0,1-.63.73.71.71,0,0,1-.76-.46,1.08,1.08,0,0,1-.06-.4q0-.6,0-1.2c0-.16,0-.21-.2-.25a9.15,9.15,0,0,1-1.15-.39.34.34,0,0,0-.31,0,2.69,2.69,0,0,1-3.11-.14.29.29,0,0,0-.33,0,2.06,2.06,0,0,1-.26.12c-.36.14-.36.14-.36.53,0,1.05,0,2.1,0,3.15a.71.71,0,0,1-.63.74.7.7,0,0,1-.77-.47,1.36,1.36,0,0,1,0-.4c0-1.09,0-2.17,0-3.25a.36.36,0,0,0-.23-.36c-.38-.22-.72-.48-1.08-.73,0,0,0,.12,0,.2v2.43a2,2,0,0,1-.05.43.72.72,0,0,1-.68.49.74.74,0,0,1-.69-.51,1.58,1.58,0,0,1,0-.38c0-1.1,0-2.21,0-3.32a.54.54,0,0,0-.2-.45,2.39,2.39,0,0,1-.85-2,.4.4,0,0,0-.23-.43,2.32,2.32,0,0,1-.92-.89c-.16-.28-.07-.55.24-.59a3.4,3.4,0,0,0,2.6-2.09,10.76,10.76,0,0,0,1-2.93.67.67,0,0,1,.39-.5,2.7,2.7,0,0,1,2.37-.07.35.35,0,0,0,.4-.05,2.71,2.71,0,0,1,2.84-.35.53.53,0,0,0,.35,0,2.71,2.71,0,0,1,2.93.4.45.45,0,0,0,.37.1,2.65,2.65,0,0,1,2.81,1.32.61.61,0,0,0,.26.21c.22.09.46.15.68.23a2.07,2.07,0,0,1,1.3,1Z" transform="translate(-478.97 -161.71)"/><path class="cls-3" d="M501.8,181.06l.06-.06a2.45,2.45,0,0,1,2.42-.64.35.35,0,0,1,.19.6,6.07,6.07,0,0,1-2,1.62.35.35,0,0,0-.25.33,12.28,12.28,0,0,1-1.08,3.94,2.76,2.76,0,0,1-1.09,1.25,1.43,1.43,0,0,1-1.72-.25,6.52,6.52,0,0,1-1.63-2.33c-.31-.66-.56-1.35-.82-2a.35.35,0,0,0-.27-.25,6.53,6.53,0,0,1-2.19-1.17c-.14-.11-.25-.24-.18-.41a.63.63,0,0,1,.31-.29,2.83,2.83,0,0,1,1.44-.2,4,4,0,0,1,.76.25.25.25,0,0,0,.32,0,4.58,4.58,0,0,1,3.42-1.08,4.82,4.82,0,0,1,1.19.23,9.2,9.2,0,0,1,1.1.53" transform="translate(-478.97 -161.71)"/></svg>