<svg id="katman_1" data-name="katman 1" xmlns="http://www.w3.org/2000/svg" viewBox="0 0 434.3 434.29"><defs><style>.cls-1{fill:#fff;}.cls-2{fill:#1e5e42;}.cls-3{fill:none;}</style></defs><path class="cls-1" d="M-328.52,345c0,115.7-93.79,209.49-209.49,209.49S-747.5,460.73-747.5,345-653.71,135.54-538,135.54-328.52,229.33-328.52,345" transform="translate(755.16 -127.89)"/><path class="cls-1" d="M-373,445.53a15.92,15.92,0,0,0-12.87-6.83,19.31,19.31,0,0,0-5.62.76,113.32,113.32,0,0,1-17.66,2.14h-1a24.11,24.11,0,0,1-7.89-1s-3-1.45-6.9-3.17c-4.85-2.14-11-4.7-14.41-5.42,0,0-13.3-2-18.65-2.14h-.81a5.15,5.15,0,0,0-.58,0,8.55,8.55,0,0,0-6.19-5s-4-.47-7.09-6.82a3.19,3.19,0,0,0-1.61-.55h-.23a121.17,121.17,0,0,1-5.69-25.9,0,0,0,0,1,0,0s0,0,0,0a.25.25,0,0,1,0-.09c-.05-.56-.1-1.13-.14-1.7,0,0,0,0,0,0-.13-1.77-.2-3.52-.2-5.29v-.66a1.77,1.77,0,0,0,.15-.46c.42-2.51.75-8.43,1-14.75a5.11,5.11,0,0,0,.58.07l.4,0h.3a5.59,5.59,0,0,0,2.2-.56c3.29-1.55,5.38-6.13,6.25-13.59.2-.94,2.35-10.59,4.06-17.46a14.32,14.32,0,0,0,.08-2.71c0-3.68-.09-11.33,1.3-16.87.34-1.37.56-2.28.69-2.85a2.54,2.54,0,0,0-.09-2c.11-2.23-.15-4.94-1.63-6.92a6.81,6.81,0,0,0-5.3-2.64h-.15l-.38,0s0,0,0,0h0c-1.06-31.5-13.92-49.71-13.92-49.71-8.21-10.58-21.66-15.85-32.24-18.45-.49-.13-1-.24-1.46-.35l-.85-.33a60,60,0,0,0-13.24-3.47H-533c-.77,0-1.54-.06-2.3-.08s-1.51,0-2.25,0h-3.28l-.82,0-.93,0H-543c-2.28-.2-4.84-.35-7.61-.38q-1,0-2,0c-14.44.1-33.68,3.5-47.72,18.07-2.65,2.75-14.2,14.74-16.68,32.5-.79,5.64-.35,11.27.56,22.3.71,8.59,1.63,16.06,2.5,22.1a38.56,38.56,0,0,1-.21,7.44l-.1.33,0,.35c0,.14,2.05,15,3.41,22.1,0,.22.1.44.14.64,1.21,6.09,9,40.24,16.86,55.68l.1.16c.25.38,6.16,9.23,11.76,11.69,1.32,3.07,6,14.86,6.42,27.31-2.89,4.74-11.47,14.39-34.21,16.86a104.12,104.12,0,0,1-11.38.59c-1.88,0-15.21,4.36-22.85,5.47l-.22,0s-.24,0-.69-.07h0c-2.82-.13-13.54.52-26.58,15.74,0,0-3.18,5-3.08,9.42l-.07.08c.1.1.21.21.32.3,1.63,1.53,3.28,3,5,4.5a205.33,205.33,0,0,0,39.32,27q5.49,2.91,11.17,5.47c46.52-7.29,104.94-14.49,157.54-15.31l5.07-.06c2.74,0,5.44,0,8.14,0q3.23,0,6.41.07h0l4.76.1c4.72.14,9.37.34,13.92.6l.05,0q4.83-3.12,9.46-6.5a206.38,206.38,0,0,0,49.6-51.52q2.67-4,5.17-8.1c-2.92-3.11-8.66-8.57-14.31-10.05" transform="translate(755.16 -127.89)"/><path class="cls-2" d="M-554.08,233.18c.08.24-22,10.15-26.92,11.69a8.48,8.48,0,0,0-3.81,2.25,8.43,8.43,0,0,0-1.57,2.42c-1.42,3.06-4.6,4.64-6.83,6.23-1.18.84-3.93,4.63-9.38,12.17-5.7,7.88-6.15,8.73-6.63,9.95-2.07,5.19-1.67,9.67-1.49,13.05a136.61,136.61,0,0,1-1.36,26.67c-2.2-11-7.76-45.5,12.44-66.39,17.07-17.66,45.47-18.31,45.55-18" transform="translate(755.16 -127.89)"/><path class="cls-2" d="M-589.5,361.69A18.2,18.2,0,0,1-601,359.8a18.51,18.51,0,0,1-8.58-10.24A13.37,13.37,0,0,0-601.82,363c6.15,2.63,11.86-1,12.32-1.29" transform="translate(755.16 -127.89)"/><path class="cls-2" d="M-572.6,360.28s-.13-2.67,2.17,0c0,0,7.15,7.33,11.46,1.51,0,0,4.07-5.56,8.92-4.9a3.94,3.94,0,0,1,3.57,2.52s-3.65-2.31-8.42,2.67c0,0-3.3,6.14-11.72,4,0,0-5.29-3-6-5.82" transform="translate(755.16 -127.89)"/><path class="cls-2" d="M-546.64,307c-.05-.36,2.19-3.81,5-4.1s3.88-.21,4.87-.77,8.54-2.19,10.3-2.4,5.43-1.84,7.41.85a10.27,10.27,0,0,0,6,3.95c2,.63,4,3.95,4.45,5.36s2.4,5.79,2.4,5.79-6.07-5.65-9.1-5.44-6-4.58-7.83-4.58-11,3.1-11,3.1a19.13,19.13,0,0,1-3.67.07,34.1,34.1,0,0,0-5.08-.14c-.49.07-3.32,1.2-3.74-1.69" transform="translate(755.16 -127.89)"/><path class="cls-2" d="M-516.19,318.62a1.29,1.29,0,0,0-.58-.69,10.17,10.17,0,0,1-1-.78l-.82-.48a3.24,3.24,0,0,0-1-.5,2.24,2.24,0,0,1-.6-.28l-.49-.28a6.79,6.79,0,0,0-1.39-.52l-1.27-.27-1.48,0a11,11,0,0,1-1.15-.06,12.33,12.33,0,0,0-1.76,0h-.66a6.5,6.5,0,0,0-1.12.1c-.71.08-.89.12-1.14.16l-.68.12a5.07,5.07,0,0,1-.68.08,1.81,1.81,0,0,0-.57.13l-.16,0a1.86,1.86,0,0,0-1,.51l-.29.21a.47.47,0,0,1-.14.12l-.34.2-.24.15a1.92,1.92,0,0,0-.29.2l-.5.39-.57.41-.34.28a7.53,7.53,0,0,0-.63.59c-.05.06-.28.32-.46.5a4.68,4.68,0,0,1-.47.43l-.07.07-.28.5c-.1,0-.26.08-.5.13l-.41.11a1.32,1.32,0,0,1-.31.05H-540c-.54,0-1.53,0-1.66.91,0,.09-.05.16-.07.24a.82.82,0,0,0,.45,1.17,3,3,0,0,0,2.5,0,6.37,6.37,0,0,1,2.72-.32,39.84,39.84,0,0,0,8.87,1c3.81,0,8.12-.63,11.34-2.91l.46-.33Zm-24.27,2.88a0,0,0,0,1,0,0,3.93,3.93,0,0,1,.48,0h.61a1.82,1.82,0,0,1-1.1.08m4.81-.45a2.87,2.87,0,0,0-1-.12,9.38,9.38,0,0,0-1.14.08.7.7,0,0,0,.3-.18l.08-.07.2-.41.08-.15c.11-.09.3-.27.45-.42s.52-.56.54-.58a3.44,3.44,0,0,1,.48-.44l.23-.2.63-.45.51-.4.16-.11.27-.17.29-.17a1.31,1.31,0,0,0,.3-.22l.28-.21a1.37,1.37,0,0,1,.37-.26h0a2.3,2.3,0,0,0,.36-.1.79.79,0,0,1,.24,0c.09,0,.21,0,.41,0l.36-.05.73-.12c.23,0,.39-.07,1.06-.16a5.94,5.94,0,0,1,1-.09h1.25a9.34,9.34,0,0,1,1,0,13,13,0,0,0,1.32.07h1.28l1.2.27a4.77,4.77,0,0,1,1.07.41l.23.12h0l.19.12a3.51,3.51,0,0,0,.88.4,2.17,2.17,0,0,1,.68.32l.77.44a10.13,10.13,0,0,0,1.08.86l.05,0,.37.63c-6.77,4.27-18.51,1.44-18.62,1.41" transform="translate(755.16 -127.89)"/><path class="cls-2" d="M-579.24,312h-1.27a17.41,17.41,0,0,1-2-.08c-1-.07-.36-.27-1.48-.38s-.85-.25-2-.32a14.53,14.53,0,0,1-2.33-.35s.07-.29-1.27-.43a15.74,15.74,0,0,0-1.9-.28h-5.79c-.49.14-.49.07-1.48.35a14.27,14.27,0,0,0-1.62.57,1.88,1.88,0,0,0-1.13.46c-.5.46-.36.46-.92.81s.07,0-1.69,1.13l-1.77,1.13-.63.35-.71.63s.78-1,1-1.34.63-1.34.78-1.37.42-.67.42-.67.14-.35.28-.67-.07-.18.35-.81a11.66,11.66,0,0,0,.71-1.42c.28-.49.49-.84.49-.84l.78-1.12a5.5,5.5,0,0,0,.7-.58,8.57,8.57,0,0,1,.78-.63,7.84,7.84,0,0,1,1.41-.92,5,5,0,0,1,1.06-.35s1.62.35,1.83,0a1,1,0,0,1,.57-.42,6.47,6.47,0,0,0,2,.42c.64-.07,1.2-.07,1.2-.07h.92l.57.14s-.36,0,.35.07,1.2.14,1.2.14h1.2s0-.07,1.27.07,2,.14,2,.14a2.29,2.29,0,0,1,.92.07,9.53,9.53,0,0,0,1.62.14l1.32.22a2.92,2.92,0,0,1,1.79.21c.92.42,1.76.7,1.76.7s1.27,0,1.7.65l.42.62a.46.46,0,0,1,0,.57,3.06,3.06,0,0,0-.42.7c-.22.5.07.43-.5.78s0-.07-.56.35-1,.78-1,.78-.07-.06-.49.39Z" transform="translate(755.16 -127.89)"/><path class="cls-2" d="M-578.25,312.46s5.57-.16,8.47,2.85c0,0-2.19-6.17-8.47-2.85" transform="translate(755.16 -127.89)"/><path class="cls-2" d="M-573.28,321.76a4.08,4.08,0,0,0-.5-.41,2.6,2.6,0,0,0-.94-.47h0l0-.07a1.16,1.16,0,0,0-.83-.6,1.92,1.92,0,0,0-.47-.06l-.07-.05a3.34,3.34,0,0,0-.29-.21,4.71,4.71,0,0,1-.43-.3.49.49,0,0,1-.12-.14c-.18-.27-.38-.4-1-.64a3.94,3.94,0,0,1-.7-.34,3,3,0,0,0-.58-.29l-.74-.32-.75-.32c-.64-.27-1.34-.54-1.34-.54l-1.6-.34c-.23,0-5.61-.89-12.46,3.58l0,0a6.37,6.37,0,0,0-1,.86,2,2,0,0,1-.29.26,1.52,1.52,0,0,0-.62.54,7.51,7.51,0,0,1-.67.77l-.56.56.31.18a.74.74,0,0,0,0,.3c.15.56.88.6,1.1.6a.71.71,0,0,0,.26,0l0,0a1.82,1.82,0,0,0,.6.11l.51.11a9.64,9.64,0,0,0,1.54.28c.82,0,8,.37,8.35.37h1.36a1.66,1.66,0,0,0,.55.09A.87.87,0,0,0-584,325a2.61,2.61,0,0,1,.77-.18h4.07l-1.25-.42.27-.1c.12-.05.62-.16.89-.23a3.57,3.57,0,0,0,.5-.13l.1,0,.54-.1a3.27,3.27,0,0,1,.5-.06,2,2,0,0,0,.57-.1,3.86,3.86,0,0,0,.91-.37h.18l.63,0a3.23,3.23,0,0,0,.49,0l.35.1a8.73,8.73,0,0,0,1,.29l.27.05a.7.7,0,0,0,.78-.57c0-.18.08-.53-.84-1.37m-3.1.26a.67.67,0,0,0-.52.23,3.38,3.38,0,0,1-.49.17l-.25.07a3.2,3.2,0,0,0-.72.09,3.34,3.34,0,0,0-.83.18l-.38.09a7.69,7.69,0,0,0-1.06.29,8.5,8.5,0,0,1-1,.28l-.17.05-.23.06h-.45a2.68,2.68,0,0,0-.64.05h-.1a3.3,3.3,0,0,0-1.54.45l-.14,0-.11-.06h-1.58c-.26,0-5.11-.21-8.31-.36a7.39,7.39,0,0,1-1.3-.25,3.32,3.32,0,0,0-.83-.14l-.19-.06-.17-.05.34-.42,0,0,.2-.15a3,3,0,0,0,.66-.61,7.25,7.25,0,0,1,.72-.6,22.4,22.4,0,0,1,5.2-2.54h0a14.75,14.75,0,0,1,6.3-.86l1.44.32c.17.06.74.27,1.27.5l.72.31.76.32.2.09.2.11a3.9,3.9,0,0,0,.92.44l.41.19a2,2,0,0,0,.4.42l.5.36.26.18a1.21,1.21,0,0,0,.75.28,1,1,0,0,1,.26,0l0,0a1.29,1.29,0,0,0,.45.47Z" transform="translate(755.16 -127.89)"/><path class="cls-2" d="M-590.12,318s.26.13,0,.47a1.3,1.3,0,0,0-.28.59l0,.39.11.53,0,.4.13.24v.76s.06.27.11.64-.18.16.06.37.05.16.37.29-.22,0,.5.19a10.31,10.31,0,0,0,1,.26s-.1.08.64.21l.74.14a6.36,6.36,0,0,0,.79-.22c.4-.13,0-.08.48-.13l.82-.1h.45l.74.05.69,0,.74-.1a4.44,4.44,0,0,0,.71-.29,4.93,4.93,0,0,0,.72-.4,3.14,3.14,0,0,0,.53-.4l.32-.55s.05,0,.05-.44v-.57a4.14,4.14,0,0,1,0-.61c0-.31.1-.26.1-.63v-.37s-4-2.72-10.56-.74" transform="translate(755.16 -127.89)"/><path class="cls-2" d="M-577.65,327.1s-10.53,8.89-19.21,0c0,0,6.61,7.36,19.21,0" transform="translate(755.16 -127.89)"/><path class="cls-2" d="M-514.49,324.65a18.77,18.77,0,0,1-9.4,4.51,19.5,19.5,0,0,1-13.89-3.22,24.55,24.55,0,0,0,8.55,2.27,25.31,25.31,0,0,0,14.74-3.56" transform="translate(755.16 -127.89)"/><path class="cls-2" d="M-532.46,232.38s32.88,1.48,48,21c0,0,13.27,18.77,14,51.16,0,0-7.3,4.45-11.13,30.48l-1.39-2.48-1.85-2.2-.18-.3a8.26,8.26,0,0,1-.51-1c-.17-.36-.46-1.09-.46-1.09s-2-5.29-.69-13.22c0,0-4-4.07-.94-11.8,0,0,.94-4.91-2.75-12.19,0,0-4.56-2.86-3.81-5.79,0,0,5.75-2,3.87-7.23,0,0-2.21-3.49-.2-5,0,0,6.85,2.23,2.18-9.74a58.79,58.79,0,0,1-5.3-7.54s-5.64-8.12-9.06-10a61.39,61.39,0,0,0-29.73-13" transform="translate(755.16 -127.89)"/><path class="cls-2" d="M-372.44,445.53a15.92,15.92,0,0,0-13.46-6.83,19.38,19.38,0,0,0-5,.76,109.38,109.38,0,0,1-18.26,2.14h-1a22.78,22.78,0,0,1-7.29-1s-3.25-1.56-7.34-3.36c-4.78-2.1-10.71-4.53-14-5.23,0,0-14.37-2.14-19.24-2.14h-.8v0a8.5,8.5,0,0,0-6.18-5s-4-.48-7.09-6.83a3.24,3.24,0,0,0-2.2-.55l-.23,0a3.74,3.74,0,0,0-1.37.51l2.17,4.17s.85,1.54-1.3,5c-2.6,4.15-9.63,11.06-27.93,21.34a171.18,171.18,0,0,1-21,9.9c-3.2,1.25-6.59,2.42-10,3.41,0,0-21.39,6.07-34.93-1.45h0l-.13-.07,0,0a20.86,20.86,0,0,1-2.94-2c-.25-.2-.48-.41-.72-.62a1,1,0,0,1-.15-.14l-.13-.12c-.21-.18-.4-.38-.6-.57,0,0,.12-1.19.17-2.89h0c0-.49,0-1,0-1.6a0,0,0,0,0,0-.05c0-.72,0-1.76-.1-3,0-.33-.06-.66-.1-1a13,13,0,0,1-1.3,2.64c-2.9,4.77-11.59,14.55-34.71,16.92a106.5,106.5,0,0,1-10.87.54c-1.91,0-15.46,4.44-23.07,5.5l-.38,0c-.22,0-.52,0-.91,0h0c-3.51,0-13.72,1.43-26,15.74,0,0-3.18,5-3.07,9.42,0,0-.13.13-.35.38q2.44,2.29,5,4.5a205.33,205.33,0,0,0,39.32,27q5.49,2.91,11.17,5.47l-3.75.69,3.9-.61c46.42-7.29,104.78-14.52,157.39-15.39l5.07-.06c2.74,0,5.44,0,8.14,0q3.23,0,6.41.07h0l4.76.1q7.11.18,14,.56,4.83-3.12,9.46-6.5a206.21,206.21,0,0,0,49.6-51.52q2.68-4,5.17-8.1c.08-.12.16-.24.23-.37-3-3.16-8.52-8.25-13.95-9.68" transform="translate(755.16 -127.89)"/><path class="cls-2" d="M-561.95,386.74a20.2,20.2,0,0,1-3.94-.5c-.64-.12-1.24-.23-1.72-.28s-.87,0-1.48,0a15.77,15.77,0,0,1-6.18-.81,11.68,11.68,0,0,0-5-.71.83.83,0,0,1-.9-.75.82.82,0,0,1,.75-.9,13.28,13.28,0,0,1,5.84.84,14.48,14.48,0,0,0,5.5.67c.66,0,1.23,0,1.66,0s1.19.18,1.86.31a20.36,20.36,0,0,0,3.63.46c1.16,0,3.25-.17,4.93-.3,1.32-.11,2.35-.19,2.83-.19.9,0,9.51-2.1,10.79-2.44a16.61,16.61,0,0,1,2.65-.24,33.74,33.74,0,0,0,3.89-.34,3.26,3.26,0,0,0,1.77-.82l.08-.11.09-.06c.09-.06,2.21-1.57,6.09-.4a.82.82,0,0,1,.55,1,.81.81,0,0,1-1,.55c-2.72-.81-4.25-.07-4.58.13a4.85,4.85,0,0,1-2.63,1.3,33.22,33.22,0,0,1-4.14.38,19.15,19.15,0,0,0-2.31.18c-.42.11-10,2.49-11.22,2.49-.41,0-1.52.09-2.7.19-1.8.14-3.84.31-5.06.31" transform="translate(755.16 -127.89)"/><path class="cls-2" d="M-539.66,350.84c-.88-.71,9,11.72,12.76,14.4s8.69,7.9,9.12,14.11c0,0,4.37-9-11.29-20.75,0,0-1.84-.7-10.59-7.76" transform="translate(755.16 -127.89)"/><path class="cls-2" d="M-578.74,361.69a31.3,31.3,0,0,0-11.66,16.67s-.69,4.87.93,7.55c0,0-9.52-9.74,10.73-24.22" transform="translate(755.16 -127.89)"/><path class="cls-2" d="M-533.83,380.85H-534l-10.37-1.59c-7.56-1.41-12.27.82-12.32.84a.84.84,0,0,1-1.11-.38.84.84,0,0,1,.38-1.11c.21-.1,5.21-2.5,13.33-1l10.34,1.58a.83.83,0,0,1,.7.94.84.84,0,0,1-.82.71" transform="translate(755.16 -127.89)"/><path class="cls-2" d="M-555.49,394.34c-3.23,0-6.29-.21-8.57-.37-6.25-.44-14.88-8.35-15.25-8.69a.83.83,0,0,1,0-1.17.82.82,0,0,1,1.17,0c.08.07,8.57,7.85,14.24,8.24s15.83,1.11,21.47-1.81a.84.84,0,0,1,1.12.35.83.83,0,0,1-.36,1.12c-3.63,1.89-8.91,2.37-13.78,2.37" transform="translate(755.16 -127.89)"/><path class="cls-2" d="M-569.82,395.47c-1.74-1.05,10.9,18.07,31.33,0,0,0-16,9.21-31.33,0" transform="translate(755.16 -127.89)"/><path class="cls-2" d="M-496.61,399.35s-15.32,36.87-37.22,44.77c0,0,21.83-13.9,37.22-44.77" transform="translate(755.16 -127.89)"/><path class="cls-2" d="M-551.93,447.79s18.59-1.84,25-16.51c0,0-10.64,12.13-25,16.51" transform="translate(755.16 -127.89)"/><path class="cls-2" d="M-463,312.63a10.77,10.77,0,0,0-1.63-6.91,7,7,0,0,0-5.83-2.68h-.06l-.11,0h0a1.32,1.32,0,0,0-.83.41,1.34,1.34,0,0,0-.43,1,1.42,1.42,0,0,0,.38,1,1.4,1.4,0,0,0,1.05.49,4.19,4.19,0,0,1,3.54,1.52,6.33,6.33,0,0,1,1.05,3.47s0,0,0,0a9.87,9.87,0,0,1,0,1.33,16.76,16.76,0,0,1-.52,3.67l.2.05c-.06.25-.13.51-.21.81a46,46,0,0,0-1.08,7c-.36,4.15-.33,8.2-.3,10.6,0,.87,0,1.77,0,2-1.81,7.23-4.08,17.45-4.1,17.55l0,.14a32.18,32.18,0,0,1-1.44,6.88c-.17.5-.36.94-.53,1.34a6,6,0,0,1-2.61,3.14,3.13,3.13,0,0,1-2.17.19,3.49,3.49,0,0,1-.91-.36,1.42,1.42,0,0,0-.76-.22,1.42,1.42,0,0,0-1.24.66,1.46,1.46,0,0,0,.44,2,6.51,6.51,0,0,0,.79.41,7.93,7.93,0,0,0,1.57.45c.21,0,.42.06.64.07h.35a5.87,5.87,0,0,0,2.5-.56c3.28-1.55,5.38-6.13,6.24-13.6.21-.94,2.36-10.59,4.07-17.46a14.18,14.18,0,0,0,.08-2.7c0-3.69-.09-11.34,1.3-16.88l.7-2.85a2.58,2.58,0,0,0-.1-2" transform="translate(755.16 -127.89)"/><path class="cls-2" d="M-468.39,324.09a1.46,1.46,0,0,1-1.45-1.46c0-.5.63-6.45,1-8.82a76.78,76.78,0,0,0-7.92,8.2,1.46,1.46,0,0,1-2.05.16,1.44,1.44,0,0,1-.16-2c9.59-11.29,11.41-10.33,12.29-9.87,1.53.8,1,2.84.8,3.51-.22.82-1.06,8.11-1.08,8.88a1.44,1.44,0,0,1-1.45,1.44" transform="translate(755.16 -127.89)"/><path class="cls-2" d="M-489.42,342.52a182.55,182.55,0,0,0-4.94,28.78s-.14-33.86,4.94-28.78" transform="translate(755.16 -127.89)"/><path class="cls-2" d="M-531.26,315.7a7.66,7.66,0,0,0-.46,1.35c0,.26.06,1.05.06,1.05l.15,1.33a.51.51,0,0,1,.25.47c0,.37.23.43.39.58a1.34,1.34,0,0,1,.22.59s5.39.53,7.19,0c0,0,2.27-.59,2.43-1.11a6.12,6.12,0,0,0,.21-1v-.47a6.33,6.33,0,0,1-.21-.82,3.66,3.66,0,0,1,0-.79l-.16-.32-.08-.54s-6.25-1.45-10-.33" transform="translate(755.16 -127.89)"/><path class="cls-2" d="M-612.26,332.39c-1.12-6.79-2.57-16.88-3.6-29.24-.91-11-1.35-16.66-.56-22.3,2.48-17.76,14-29.76,16.68-32.5,24.88-25.83,66.14-16.56,68-16.11,0,0-45.08-4.1-65.51,21.94a43,43,0,0,0-16.71,35.26q.42,8.93.79,17.95.51,12.6.89,25" transform="translate(755.16 -127.89)"/><path class="cls-2" d="M-567.57,316.6a1.23,1.23,0,0,0-1.38-.76h0l-.21.06a1.24,1.24,0,0,0-.71,1.61,11,11,0,0,1,.06,7.19c-.48.71-2.11,3.64-2,10.26-.13,3.27-1,8.52-2.28,9.52l-.19.15-.12.18a10.32,10.32,0,0,0-.55,1v0c-.92,2-2.36,6.48.94,10.44a1.24,1.24,0,0,0,1,.44,1.25,1.25,0,0,0,.79-.28,1.27,1.27,0,0,0,.16-1.76,6.38,6.38,0,0,1-1.31-5.58,10,10,0,0,1,1-2.83c2.57-2.32,3-9.76,3.06-11.27V335c-.12-6.46,1.57-8.88,1.57-8.89l.11-.12.06-.15c1.88-4.37.09-9,0-9.19" transform="translate(755.16 -127.89)"/><path class="cls-1" d="M-585.24,320.76a1.45,1.45,0,0,1-1.45,1.45,1.46,1.46,0,0,1-1.46-1.45,1.46,1.46,0,0,1,1.46-1.46,1.45,1.45,0,0,1,1.45,1.46" transform="translate(755.16 -127.89)"/><path class="cls-1" d="M-527.25,319a1.45,1.45,0,0,1-1.45,1.45,1.46,1.46,0,0,1-1.46-1.45,1.47,1.47,0,0,1,1.46-1.46,1.46,1.46,0,0,1,1.45,1.46" transform="translate(755.16 -127.89)"/><path class="cls-2" d="M-474.27,349.88a1.48,1.48,0,0,1-1.17-.59,1.45,1.45,0,0,1,.31-2c4.62-3.41,3.42-14.25,2.56-18.14a1.46,1.46,0,0,1,1.11-1.73,1.46,1.46,0,0,1,1.73,1.11c.14.64,3.4,15.87-3.68,21.09a1.46,1.46,0,0,1-.86.29" transform="translate(755.16 -127.89)"/><path class="cls-2" d="M-478.48,347.51a.81.81,0,0,1-.37-.09.82.82,0,0,1-.37-1.11c3.18-6.43-1-10.14-1.16-10.29a.84.84,0,0,1-.09-1.17.83.83,0,0,1,1.17-.09c.05,0,5.33,4.67,1.56,12.29a.83.83,0,0,1-.74.46" transform="translate(755.16 -127.89)"/><path class="cls-2" d="M-574.79,382.12a.83.83,0,0,1-.63-.29.83.83,0,0,1,.09-1.17c2.71-2.35,6.49-3.46,10.92-3.19a23.12,23.12,0,0,1,5.88,1.1.82.82,0,0,1,.5,1.05.83.83,0,0,1-1.06.51c-.09,0-9.36-3.23-15.16,1.78a.82.82,0,0,1-.54.21" transform="translate(755.16 -127.89)"/><path class="cls-2" d="M-600.83,323a.82.82,0,0,1-.47-.15.82.82,0,0,1-.21-1.15c.27-.39,6.76-9.47,22.73-7.85.12,0,2.7.36,5.06,4a.85.85,0,0,1-.25,1.15.84.84,0,0,1-1.15-.25c-1.9-3-3.78-3.27-3.86-3.28-15-1.52-21.11,7.06-21.17,7.15a.83.83,0,0,1-.68.35" transform="translate(755.16 -127.89)"/><path class="cls-2" d="M-508.71,322.2c-2.61,0-4.69-2.32-5-2.66A24.06,24.06,0,0,0-533.83,313h-.11c-4.31.3-7.35,5.4-7.38,5.45a.84.84,0,0,1-1.14.3.84.84,0,0,1-.29-1.14c.14-.24,3.48-5.86,8.65-6.26a25.45,25.45,0,0,1,21.59,7l.06.07s2.1,2.5,4.27,2.05a.83.83,0,0,1,1,.65.83.83,0,0,1-.64,1,4.43,4.43,0,0,1-.87.09" transform="translate(755.16 -127.89)"/><path class="cls-2" d="M-560,375.86a3.42,3.42,0,0,1-2.52-.94c-1.89-1.86-1-5.78-1-5.94a.62.62,0,0,1,.74-.47.63.63,0,0,1,.47.74c-.22.95-.52,3.65.64,4.79.61.6,1.62.73,3,.4a.62.62,0,0,1,.75.46.62.62,0,0,1-.46.75,6.93,6.93,0,0,1-1.62.21" transform="translate(755.16 -127.89)"/><path class="cls-2" d="M-520.18,331.67a.62.62,0,0,1-.6-.45.63.63,0,0,1,.43-.77c.06,0,6.08-1.8,7.54-5.18a.61.61,0,0,1,.81-.33.63.63,0,0,1,.33.82c-1.69,3.93-8.07,5.81-8.34,5.89l-.17,0" transform="translate(755.16 -127.89)"/><path class="cls-2" d="M-544.06,359.65a.6.6,0,0,1-.51-.27.61.61,0,0,1,.15-.86,4.54,4.54,0,0,0,2-3,6.62,6.62,0,0,0-1.16-4.38.63.63,0,0,1,.14-.87.62.62,0,0,1,.87.14,7.81,7.81,0,0,1,1.38,5.31,5.77,5.77,0,0,1-2.55,3.78.66.66,0,0,1-.35.11" transform="translate(755.16 -127.89)"/><path class="cls-2" d="M-478.22,344c0-.14,0-.29,0-.44v0a34.61,34.61,0,0,0-.75-5.69,23.18,23.18,0,0,0-1-3.25,14,14,0,0,0-1.21-2.38h0a7,7,0,0,0-1-1.29l0,0c-4.1-3.84-3.17-12.16-2.86-14.9.11-1,.21-1.89-.45-2.46-.61-.88-2.68-4.89-1.06-8.29,2.53-5.31-1.78-14.22-2.28-15.22l-.19-.39-.36-.23c-2.07-1.41-2.89-2.51-3.14-3.17a7.58,7.58,0,0,0,3.57-3.47,6.41,6.41,0,0,0-.05-6.2,3.91,3.91,0,0,1-.66-2.14,4.7,4.7,0,0,0,3.46-1.09,3.11,3.11,0,0,0,.94-2,11.8,11.8,0,0,0,.28-2.07h0c.29-5.82-3.92-10.16-5-11.17-6.87-12.44-17.93-19.2-26-22.69l-1.23-.52-.87-.34h0a61.19,61.19,0,0,0-14.07-3.79h-.12c-1,0-1.94-.07-2.89-.08-.76,0-1.51,0-2.25,0h-3.28l-.82,0-.81,0h-.06c-15.6.45-27.1,3.54-35.25,7l-.07,0h0a65.66,65.66,0,0,0-6.67,3.33c-9,5.17-13,10.58-13.91,11.94a34.3,34.3,0,0,0-9.1,9.3c-4.57,6.83-7.3,15.7-8,26.25a90.22,90.22,0,0,0,1.37,22.67c.32,4,.68,9.48.82,14v0a38.68,38.68,0,0,1-.21,7.45l-.09.34,0,.34c0,.15,2,15,3.42,22.1,0,.22.08.44.13.64,1.21,6.09,9,40.24,16.86,55.68l.1.16c.25.39,6.17,9.25,11.78,11.7l.05,0c.19.18.5.46.91.8s.67.54,1.09.86c.65.49,1.45,1.07,2.38,1.66a41.14,41.14,0,0,0,4.71,2.6,40.84,40.84,0,0,0,4.75,1.9,42.6,42.6,0,0,0,13.51,2.15,46.79,46.79,0,0,0,8.95-.87h0a57.76,57.76,0,0,0,15.08-5.29l.11-.07a228,228,0,0,0,19.07-13.22h0c4.62-3.63,9-7.52,11.6-11a1.67,1.67,0,0,0-.32-2.32,1.67,1.67,0,0,0-2.33.31c-7,9.29-28.47,22.57-29.7,23.34-12.14,6.14-23.84,7.44-34.8,3.85a38.79,38.79,0,0,1-7.47-3.35,30.78,30.78,0,0,1-5.38-3.88l-.1-.09-.24-.25-.33-.12a9.21,9.21,0,0,1-1.89-1c-3.47-2.4-7.23-7.36-8.64-9.46-6.42-12.74-12.88-38.53-15.48-50-.49-2.17-.85-3.82-1-4.77,0-.21-.09-.41-.13-.62s0-.25-.07-.38h0c-1.24-6.6-3-19.14-3.27-21.25.86-4.35-.44-20.49-.6-22.36l0-.21s-.09-.42-.21-1.08v0c-1.09-6.26-5.41-37.05,12.17-51.92a25.55,25.55,0,0,1,2.66-2l.3-.22.18-.29c0-.05,2.46-3.92,8.58-8.31a49.18,49.18,0,0,1,4.6-3,73.74,73.74,0,0,1,23.34-8.11h0A120.17,120.17,0,0,1-532.6,234a62.56,62.56,0,0,1,20.68,7.14,52.43,52.43,0,0,1,10,7.19h0a44.91,44.91,0,0,1,9,11.55l.15.26.22.21c.05,0,5.28,4.61,3.85,10.33l-.05.23a3.47,3.47,0,0,1-1.67.07l-.55-.06-.47.28c-1.18.67-2.82,3-.63,6.9a3.12,3.12,0,0,1,0,3.08,3.83,3.83,0,0,1-2.4,2.08l-.79.1-.42.67c-.23.37-2,3.6,3.91,7.78,1.22,2.6,3.55,8.83,2.07,11.93-2.09,4.37-.21,9.36,1.25,11.46a2,2,0,0,0-.05.34c-.35,3.17-1.42,12.78,3.94,17.75.17.18,3.26,3.64,3,14,0,.13-.14,6.94-.37,14.64-.27,8.32-.67,17.69-1.2,20.9a1.66,1.66,0,0,0,.81,1.7,1.46,1.46,0,0,0,.55.21,1.63,1.63,0,0,0,1.17-.25,1.67,1.67,0,0,0,.74-1.12c.42-2.51.75-8.38,1-14.68v-.06c0-1,.08-2,.11-2.94.06-1.62.12-3.23.17-4.79.06-2,.11-3.86.16-5.58.1-4.14.16-7.22.17-7.87v-.08c0-1.2,0-2.33,0-3.38m-9.91-28.39a2.75,2.75,0,0,0,.63.6,1.74,1.74,0,0,1-.63-.6" transform="translate(755.16 -127.89)"/><path class="cls-2" d="M-551.44,465.84c-.75,0-1.49,0-2.22,0-14.87-.65-20.84-7.71-21.09-8l-.38-.46.06-.59c1.43-16.34-6.53-33.7-6.61-33.87a1.45,1.45,0,0,1,.7-1.93,1.46,1.46,0,0,1,1.93.7c.34.73,8.16,17.78,6.92,34.7a18.73,18.73,0,0,0,4.06,2.89,33.4,33.4,0,0,0,14.89,3.69c12.88.47,35.69-4.28,71.29-29.55a33.08,33.08,0,0,0,4.19-4.08c2.25-2.65,3.19-4.91,2.67-6.39a64.5,64.5,0,0,1-8.08-32.52,1.45,1.45,0,0,1,1.47-1.43,1.44,1.44,0,0,1,1.43,1.47,62.1,62.1,0,0,0,7.72,31.06l.07.11.05.12c2.35,5.82-6.72,13.15-7.76,14l-.05,0c-16.09,11.42-31,19.71-44.37,24.65-9.84,3.64-18.88,5.48-26.89,5.48" transform="translate(755.16 -127.89)"/><path class="cls-2" d="M-541.18,458.12s-20-6.91-27.08-26c0,0,3.37,28.78,27.08,26" transform="translate(755.16 -127.89)"/><path class="cls-2" d="M-574.27,310.89a.93.93,0,0,1-.29-.05.82.82,0,0,1-.49-1.06,3.08,3.08,0,0,0-.73-2.85.84.84,0,0,1,.1-1.17.83.83,0,0,1,1.17.1,4.66,4.66,0,0,1,1,4.49.83.83,0,0,1-.77.54" transform="translate(755.16 -127.89)"/><path class="cls-2" d="M-547.91,310.5l-.18,0a.83.83,0,0,1-.63-1,4.67,4.67,0,0,0,0-1.16c-.15-1.5-.38-3.77,2.16-5.55a.84.84,0,0,1,1.16.2.84.84,0,0,1-.21,1.16c-1.74,1.22-1.6,2.65-1.46,4a5.32,5.32,0,0,1,0,1.69.83.83,0,0,1-.81.65" transform="translate(755.16 -127.89)"/><path class="cls-2" d="M-512.18,302h-.05c-.72-.19-3-1.35-3.2-2-.5-1.48-3.13-2.66-3.65-2.87a.82.82,0,0,0-1.09.44.82.82,0,0,0,.45,1.08c1.17.5,2.55,1.38,2.72,1.88.55,1.63,4.07,3.1,4.76,3.1a.83.83,0,0,0,.83-.83.83.83,0,0,0-.77-.82" transform="translate(755.16 -127.89)"/><path class="cls-2" d="M-507.21,246.92A26,26,0,0,1-501,258.59c2.62,11.48-3.88,20.66-5,22.2a49.83,49.83,0,0,0,2.29-11.61,50.66,50.66,0,0,0-3.46-22.26" transform="translate(755.16 -127.89)"/><path class="cls-2" d="M-571.39,322.13a.9.9,0,0,1-.36-.08,8.6,8.6,0,0,1-2.43-2.25.82.82,0,0,1,.16-1.16.84.84,0,0,1,1.16.16,7.1,7.1,0,0,0,1.83,1.76.83.83,0,0,1,.39,1.1.83.83,0,0,1-.75.47" transform="translate(755.16 -127.89)"/><path class="cls-2" d="M-538,127.89c-119.94,0-217.16,97.21-217.16,217.14A216.45,216.45,0,0,0-693,497.13q3.19,3.27,6.54,6.38c.11.11.21.22.33.32,1.73,1.62,3.48,3.2,5.26,4.76a217.63,217.63,0,0,0,41.6,28.59q5.81,3.08,11.82,5.78a.6.6,0,0,0,.16.08q6.59,3,13.38,5.51A216.77,216.77,0,0,0-538,562.18a216.11,216.11,0,0,0,106.21-27.72q5.88-3.3,11.55-7l.05,0q5.1-3.32,10-6.88a218.24,218.24,0,0,0,52.48-54.51q2.83-4.21,5.48-8.57c.07-.12.16-.25.23-.39q1.92-3.17,3.72-6.4A216.18,216.18,0,0,0-320.86,345c0-119.93-97.22-217.14-217.14-217.14m123.17,306.22c-1.52,2.07-3.06,4.11-4.68,6.1a1.3,1.3,0,0,1-.16.21c-1.69,2.09-3.44,4.15-5.24,6.15A151.59,151.59,0,0,1-538,497a151.22,151.22,0,0,1-71-17.58q-5.37-2.83-10.47-6.09l-.1-.07c-3.5-2.23-6.92-4.6-10.22-7.12A151.7,151.7,0,0,1-690,345,152,152,0,0,1-538,193,152,152,0,0,1-386,345a151.38,151.38,0,0,1-28.81,89.08" transform="translate(755.16 -127.89)"/><path class="cls-1" d="M-695.76,396.11c1.6,3.86,2.34,5.39,2.34,5.39l-.93-.09c-1.92-.2-2.71-.19-16,5.29l-8.75,3.62a60.09,60.09,0,0,1,6.18-.19l19.24.51-13.24,13.89a45.16,45.16,0,0,1-4.5,4.23l9.16-3.79c13.06-5.4,13.17-5.66,14.58-7.34l.59-.72s.52,1.51,1.66,4.25,1.89,4.32,1.89,4.32l-.93-.09c-2.08-.19-2.49-.28-16,5.29-13.07,5.4-13.17,5.66-14.58,7.34l-.59.72s-.66-1.83-2.35-5.92c-1.54-3.72-2.28-5.26-2.28-5.26l9.87-10.34a16.34,16.34,0,0,1,1.56-1.43,12.49,12.49,0,0,1-2.14,0l-14.3-.39s-.62-1.75-2.2-5.56c-1.65-4-2.52-5.85-2.52-5.85l.93.09c2,.21,2.48.29,16-5.29,13.06-5.4,13.17-5.65,14.58-7.34l.59-.72s.53,1.52,2.1,5.34" transform="translate(755.16 -127.89)"/><path class="cls-1" d="M-704.25,365.2l1.83-.25,3.56,18.67c.49,2.57.75,3.66.75,3.66l-.9-.27c-2-.62-2.37-.79-16.7,1.94-13.89,2.65-14,2.88-15.76,4.24l-.73.59s-.15-1.06-.65-3.64l-3.47-18.24s1.06-.15,3.4-.59,3.66-.8,3.75-.82a6.23,6.23,0,0,0-1,1.92,11.12,11.12,0,0,0-.05,5.45l1,5.06,9.69-1.85-.75-3.91a11.33,11.33,0,0,0-1.91-5.08,7.58,7.58,0,0,0-1.56-1.48s1.41-.12,4.65-.74c3-.57,4.42-1,4.51-1a7.19,7.19,0,0,0-1,2,11.43,11.43,0,0,0,.09,5.42l.75,3.92,9.83-1.88-.87-4.58c-1.13-5.92-2.66-6.42-5.57-7.7,0,0,2-.12,7.07-.8" transform="translate(755.16 -127.89)"/><path class="cls-1" d="M-702.89,350.34a2.21,2.21,0,0,0,1,.31c.58,0,.9-.52,1.41-1.31l.32-.59A3.72,3.72,0,0,1-697,346.5c3.65-.12,4.37,4.38,4.38,7.64-.2-.38-1.65-2.91-3.74-2.84a3.53,3.53,0,0,0-2.44,1.15l-.38.3a2.75,2.75,0,0,1-1.72.83,2.49,2.49,0,0,1-1.78-.72c.1,5.93-1.17,8.85-1.17,8.85s-1.12-.07-3.79,0c-2.91.1-4.71.25-4.71.25,2.42-1.78,4.73-4.19,4.57-8.9-.1-3.26-.92-5.86-4-5.75-2.43.07-3.26,1.66-4.44,4l-2.11,4.06c-2,3.85-4.49,6.95-9.49,7.12-6.56.21-10-4-10.22-12.12-.19-5.78,1.12-8.84,1.12-8.84s1.17.06,3.94,0,4.46-.25,4.46-.25c-2.75,2-4.61,4.53-4.49,8.37.1,3.16,1,5.17,3.57,5.09,2.28-.08,3-1.75,4.38-4.42l1.78-3.52c2.15-4.3,4.58-7.15,9.93-7.32,7.29-.24,9.92,4.44,10.51,10.84" transform="translate(755.16 -127.89)"/><path class="cls-1" d="M-699.89,310.13c-.62,4.08-.79,5.87-.79,5.87l-.75-.55c-1.59-1.18-2-1.53-13.76-3.3L-717,323.92c11.82,1.78,12.15,1.58,14.12.9l.88-.31s-.36,1.71-1,5.8-.79,5.88-.79,5.88l-.75-.56c-1.68-1.24-2-1.53-16.4-3.7-14-2.1-14.2-1.94-16.28-1.22l-.88.31s.35-1.67,1-5.85c.66-4.37.78-5.83.78-5.83l.75.56c1.51,1.11,1.94,1.52,12.94,3.17l1.77-11.77c-11-1.66-11.42-1.47-13.3-.77l-.88.31s.35-1.67,1-5.85c.66-4.37.78-5.83.78-5.83l.75.56c1.63,1.22,2,1.52,16.4,3.69,14,2.11,14.2,1.94,16.28,1.22l.88-.3s-.36,1.71-1,5.8" transform="translate(755.16 -127.89)"/><path class="cls-1" d="M-718.6,259.82c1.26,1.47,1.66,1.93,12.93,6.2l3.59,1.37c5.18,2,8.55,3.34,10.26,6.64,1.78,3.12,1.93,7-.09,12.29-1.93,5.09-4.37,8.37-7.67,9.67s-6.23.8-11.27-1.11l-3.82-1.45c-12.17-4.62-12.83-4.66-15-4.4l-.93.12s.76-1.74,2.21-5.55,2-5.67,2-5.67l.61.7c1.27,1.47,1.66,1.93,12.93,6.2l6.36,2.42a21,21,0,0,0,3.88,1.16c2.51.22,4.58-.71,5.94-4.3s.46-5.75-1.57-7.25a19.74,19.74,0,0,0-3.57-1.66l-4.59-1.74c-13.22-5-13.47-4.91-15.65-4.64l-.93.11s.71-1.6,2-4.87,1.77-4.94,1.77-4.94Z" transform="translate(755.16 -127.89)"/><path class="cls-1" d="M-671.23,247.12c-2.15,3.42-4,4.3-8.84,4l-5.31-.23c-4.52-.2-5.62-.37-6.63,1.24a4.74,4.74,0,0,0-.34.64c9.92,6.23,10.25,6.15,12.29,6.28l.94.07s-1,1.43-3.11,4.76-3,4.91-3,4.91l-.47-.81c-1-1.75-1.21-2.19-13.56-9.93-12-7.52-12.24-7.46-14.43-7.63l-.93-.06s1.11-1.6,2.48-3.78c.85-1.36,2.81-4.66,3.66-6,4.06-6.47,8.32-12.62,15.61-8.05,6,3.77,5.1,9.51,2.82,13.42,2.35-2.83,4.51-3.26,8.93-2.9l5.83.5c2.75.18,4.22.13,5.81-.94,0,0,.3,1.16-1.79,4.5m-33.45-4.29a14.78,14.78,0,0,0-.93,1.66l9.47,5.94a16,16,0,0,0,1.19-1.72,9.52,9.52,0,0,0,1.14-2.45c.67-2,.09-4.07-2.71-5.83-4-2.5-6.1-.89-8.16,2.4" transform="translate(755.16 -127.89)"/><path class="cls-1" d="M-643.77,217.61c-2.58,2.44-4.64,4.51-4.64,4.51a3.41,3.41,0,0,0-1-3.29,33.9,33.9,0,0,0-5.63-4l-1.79-1.12-7.2,6.81,1,1.85a36,36,0,0,0,3.61,5.88,3.45,3.45,0,0,0,3.23,1.16s-1.69,1.46-4.05,3.7-3.75,3.67-3.75,3.67c.1-2.5-1.33-5.3-4.56-11.54l-9.74-18.67a7.21,7.21,0,0,0-1-1.51,1.4,1.4,0,0,0-.94-.51l10.42-9.84a1.8,1.8,0,0,0,.49.94,6.91,6.91,0,0,0,1.41,1.14l17.77,11.1c6,3.71,8.61,5.3,11.12,5.33,0,0-1.94,1.7-4.76,4.37m-27.58-13.2c-1.82-1.15-2.73-1.83-3-2,.13.21.73,1,1.87,3.11l6,10.66L-661,211Z" transform="translate(755.16 -127.89)"/><path class="cls-1" d="M-631.14,176.62-632.91,187l12.12,5.13c7.13,3,8.92,3.41,10.46,3.3,0,0-1.18.68-5.21,3.22l-4.53,2.84-18.46-8.37c7.19,11.44,7.71,11.91,9.61,13l.81.47s-1.53.85-5,3.05-5,3.23-5,3.23l-.07-.93c-.16-2.08-.13-2.5-7.89-14.84-7.52-12-7.79-12-9.69-13.14l-.81-.47s1.45-.8,5-3.05c3.75-2.35,5-3.23,5-3.23l.07.93c.15,2,.21,2.62,7.71,14.56l1.3-12.19c.47-3.91.54-5.44-.21-6.64a2.22,2.22,0,0,0-1.88-1.06s1.54-.85,5.32-3.22c4.2-2.64,5.55-3.6,5.55-3.6-.56,1.21-1.33,3.82-2.43,10.65" transform="translate(755.16 -127.89)"/><path class="cls-1" d="M-594.53,190a1.57,1.57,0,0,0,0,.92c.22.55.79.68,1.71.89l.67.11a3.68,3.68,0,0,1,3.17,2.19c1.34,3.39-2.65,5.6-5.71,6.7.29-.32,2.19-2.53,1.42-4.48a3.56,3.56,0,0,0-1.91-1.91l-.42-.25a2.77,2.77,0,0,1-1.36-1.34,2.8,2.8,0,0,1,.09-2c-10.46,3.3-16.92-1.41-20.39-10.17-4.55-11.48-.57-19.38,9.82-23.5,6-2.36,8.84-2,8.84-2s.28,1,1.39,3.79c.95,2.39,1.67,3.94,1.67,3.94-3.06-2-5.33-3-9.39-1.41-6,2.38-6.8,8.71-4.08,15.58,2.9,7.32,7.36,10.41,13.24,8.08,4.11-1.63,5.19-4,6-7.61,0,0,.48,1.48,1.59,4.28,1,2.58,1.5,3.54,1.5,3.54s-2.3,2.37-7.93,4.65" transform="translate(755.16 -127.89)"/><path class="cls-1" d="M-559.12,180.78c-3.49.67-6.33,1.32-6.33,1.32a3.43,3.43,0,0,0,1-3.3,35.08,35.08,0,0,0-2.62-6.38l-.91-1.9-9.74,1.87-.13,2.11a35.51,35.51,0,0,0-.11,6.9,3.43,3.43,0,0,0,2.11,2.71s-2.22.33-5.41.94-5.14,1.09-5.14,1.09c1.44-2.06,1.72-5.18,2.35-12.18l1.8-21a7.42,7.42,0,0,0-.05-1.82,1.41,1.41,0,0,0-.53-.94l14.08-2.71a1.84,1.84,0,0,0-.09,1.06,7.55,7.55,0,0,0,.57,1.72l9,18.9c3,6.34,4.43,9.09,6.52,10.47,0,0-2.54.39-6.36,1.13m-16.19-25.94a35.42,35.42,0,0,1-1.43-3.34c0,.25,0,1.28-.09,3.64l-.67,12.2,7.35-1.41Z" transform="translate(755.16 -127.89)"/><path class="cls-1" d="M-526.76,180c-3.55-.06-6.46,0-6.46,0a3.41,3.41,0,0,0,1.6-3,34.4,34.4,0,0,0-1.25-6.78l-.5-2-9.91-.16-.57,2a35.06,35.06,0,0,0-1.52,6.73,3.45,3.45,0,0,0,1.5,3.09s-2.23-.13-5.49-.19-5.25,0-5.25,0c1.83-1.72,2.75-4.72,4.81-11.45l6.06-20.17a7.07,7.07,0,0,0,.32-1.79,1.38,1.38,0,0,0-.32-1l14.34.24a1.74,1.74,0,0,0-.31,1,7.58,7.58,0,0,0,.21,1.8l5,20.36c1.69,6.83,2.46,9.81,4.23,11.58,0,0-2.57-.13-6.46-.2m-10.52-28.7c-.5-2.1-.67-3.22-.72-3.56,0,.24-.21,1.26-.83,3.53L-542,163l7.48.12Z" transform="translate(755.16 -127.89)"/><path class="cls-1" d="M-498,183.66c-2.63.27-5.32-.15-9.56-1-1.72-.34-5.32-1.14-7.09-1.49-3.15-.61-4.69-.82-4.69-.82l.59-.72c1.3-1.58,1.61-1.92,4.41-16.23,2.71-13.87,2.56-14.1,1.93-16.21l-.27-.89s1.6.41,4.13.91c1.57.3,5.12.9,6.6,1.19,7.82,1.53,15.2,3.32,13.67,11.14-1.19,6.06-6.49,6.85-9.67,6.63,4.55,1,8.74,3.93,7.55,10-1.05,5.34-4.67,7.16-7.6,7.43m-6.35-16.15c-1.38-.27-2.45-.38-2.45-.38l-2.08,10.63a17.59,17.59,0,0,0,2.51.59,9.39,9.39,0,0,0,3.88.17c1.59-.28,3.08-1.33,3.69-4.43.84-4.29-1.64-5.82-5.55-6.58m2.32-14.65a16.35,16.35,0,0,0-1.92-.28l-2,10.07a15.75,15.75,0,0,0,2,.49,11.72,11.72,0,0,0,3,.19c1.91-.17,3.54-1.44,4.1-4.25.82-4.2-1.55-5.5-5.23-6.22" transform="translate(755.16 -127.89)"/><path class="cls-1" d="M-466.29,195.73c-3.29-1.33-6-2.33-6-2.33a3.45,3.45,0,0,0,2.59-2.26,35,35,0,0,0,1.27-6.77l.27-2.09-9.19-3.72-1.26,1.69a35.39,35.39,0,0,0-3.84,5.74,3.43,3.43,0,0,0,.29,3.42s-2-.93-5.05-2.15-4.91-1.88-4.91-1.88c2.33-.95,4.27-3.41,8.6-8.95l12.92-16.63a7.44,7.44,0,0,0,.94-1.56,1.35,1.35,0,0,0,.07-1.08l13.29,5.38a2,2,0,0,0-.65.84,6.91,6.91,0,0,0-.45,1.76l-2.69,20.77c-.88,7-1.23,10-.22,12.34,0,0-2.35-1.06-6-2.52m.51-30.56c.29-2.14.53-3.25.61-3.58-.13.2-.65,1.09-2.05,3l-7.19,9.88,6.93,2.81Z" transform="translate(755.16 -127.89)"/><path class="cls-1" d="M-425.38,188.39a5.41,5.41,0,0,0-.73-2.06,10.82,10.82,0,0,0-3.88-3.81l-2.23-1.38L-438.9,192c-7.42,12-7.36,12.31-7.51,14.5l-.06.93s-1.44-1-4.95-3.17-5.1-3-5.1-3l.8-.47c1.8-1.06,2.19-1.22,9.83-13.64l6.43-10.43-2.24-1.37a10.82,10.82,0,0,0-5.14-1.75,5.44,5.44,0,0,0-2.17.27s.83-1.15,2.15-3.3,1.77-3,1.77-3l23.55,14.51s-.61.89-1.86,2.91-1.93,3.32-2,3.41" transform="translate(755.16 -127.89)"/><path class="cls-1" d="M-393.19,218.34l-10.48.46-2.45,12.93c-1.47,7.61-1.45,9.43-1,10.91,0,0-.92-1-4.25-4.41l-3.73-3.82,4.28-19.82c-9.66,9.45-10,10.06-10.69,12.15l-.29.89s-1.15-1.32-4-4.27-4.21-4.18-4.21-4.18l.9-.26c2-.6,2.41-.66,12.84-10.85,10.11-9.88,10.11-10.16,10.79-12.25l.29-.89s1.08,1.25,4,4.28,4.21,4.17,4.21,4.17l-.9.26c-1.89.57-2.51.77-12.59,10.62l12.18-1.31c3.92-.36,5.43-.62,6.44-1.61a2.15,2.15,0,0,0,.64-2.05s1.16,1.32,4.28,4.51c3.47,3.55,4.69,4.66,4.69,4.66-1.3-.29-4-.49-10.93-.12" transform="translate(755.16 -127.89)"/><path class="cls-1" d="M-399.64,255.9c-5.88-9.11-3.55-17.15,5.71-23.13,7.88-5.09,17.77-6.27,24.2,3.69,5.88,9.11,3.55,17.15-5.71,23.13-7.88,5.09-17.77,6.27-24.2-3.69m25.76-16.64c-2.67-4.12-7.23-3.84-14.74,1s-9.51,8.75-6.87,12.83,7.23,3.84,14.74-1,9.5-8.75,6.87-12.83m2.85-8.21c-1.37-2.12-.94-3.79.73-4.87s3.4-.74,4.85,1.5,1,3.87-.68,4.95-3.37.79-4.9-1.58m5.65,8.74c-1.38-2.13-1-3.83.7-4.91s3.42-.71,4.87,1.54,1,3.83-.7,4.91-3.37.78-4.87-1.54" transform="translate(755.16 -127.89)"/><path class="cls-1" d="M-355.57,282.24a6.26,6.26,0,0,0,.56-2.08,11.09,11.09,0,0,0-1.07-5.34l-2-4.72-9.78,4.07,1.51,3.64a11.36,11.36,0,0,0,2.91,4.58,7,7,0,0,0,1.84,1.13c-.05,0-1.36.41-4.41,1.68-2.83,1.17-4.12,1.87-4.21,1.91a7.07,7.07,0,0,0,.54-2.12,11.35,11.35,0,0,0-1.2-5.3l-1.51-3.63c-9.83,4.09-10.55,4.65-11.84,6.35l-.6.83s-.6-1.7-2.23-5.61-2.39-5.48-2.39-5.48l.94.09c2,.21,2.48.28,15.94-5.32,13.06-5.43,13.17-5.69,14.57-7.38l.59-.72s.37,1,1.38,3.43l7.13,17.14s-1,.37-3.2,1.28-3.42,1.53-3.51,1.57" transform="translate(755.16 -127.89)"/><path class="cls-1" d="M-347.7,313.27a5.28,5.28,0,0,0,.93-2,10.8,10.8,0,0,0-.06-5.43l-.62-2.55-12.38,3c-13.75,3.31-13.89,3.55-15.54,5l-.7.61s-.32-1.72-1.28-5.74-1.49-5.74-1.49-5.74l.91.24c2,.51,2.41.66,16.58-2.75l11.91-2.87-.62-2.55a10.73,10.73,0,0,0-2.42-4.87,5.35,5.35,0,0,0-1.72-1.33c.05,0,1.39-.24,3.85-.83s3.34-.86,3.34-.86l6.48,26.89s-1.05.2-3.36.76c-2.46.59-3.71,1-3.81,1" transform="translate(755.16 -127.89)"/><path class="cls-1" d="M-370.57,344l-1.85,0-1.41-18.95c-.19-2.62-.32-3.73-.32-3.73l.86.38c1.86.83,2.27,1.05,16.81,0,14.1-1.05,14.28-1.25,16.14-2.42l.8-.49s0,1.07.22,3.68l1.37,18.52s-1.07,0-3.44.2c-2.52.19-3.73.38-3.82.39a6.37,6.37,0,0,0,1.18-1.8,11.16,11.16,0,0,0,.67-5.41l-.38-5.14-9.84.73.29,4a11.39,11.39,0,0,0,1.32,5.26,7.21,7.21,0,0,0,1.39,1.65c-.05,0-1.42,0-4.71.21-3.06.22-4.5.48-4.6.48a6.68,6.68,0,0,0,1.18-1.84,11.23,11.23,0,0,0,.53-5.4l-.3-4-10,.74.35,4.65c.44,6,1.9,6.68,4.65,8.28,0,0-2-.1-7.11,0" transform="translate(755.16 -127.89)"/><path class="cls-1" d="M-374.22,364.46c1.14-12.53,8.6-16.73,18.57-15.82,12.3,1.12,17.55,8.24,16.54,19.37-.59,6.39-2.22,8.78-2.22,8.78s-1-.19-4-.47c-2.56-.23-4.27-.29-4.27-.29,3.19-1.81,5.1-3.39,5.49-7.75.59-6.43-4.7-10-12.05-10.66-7.85-.72-12.62,1.87-13.19,8.17-.41,4.4,1.26,6.46,4.07,8.81,0,0-1.54-.24-4.54-.51-2.76-.25-3.83-.25-3.83-.25s-1.13-3.18-.56-9.38" transform="translate(755.16 -127.89)"/><path class="cls-1" d="M-377,382.41c.93-4,1.24-5.8,1.24-5.8l.7.62c1.58,1.36,1.86,1.67,16.06,4.95,13.78,3.19,14,3,16.14,2.49l.9-.24s-.46,1.58-1.42,5.7c-1,4.31-1.24,5.8-1.24,5.8l-.7-.61c-1.58-1.36-1.86-1.68-16.06-5-13.78-3.18-14-3-16.14-2.48l-.9.24s.49-1.68,1.42-5.71m35.7,9.1c.62-2.7,1.83-4.66,4.52-4s3.08,2.86,2.44,5.65-1.83,4.66-4.53,4-3.08-2.86-2.43-5.65" transform="translate(755.16 -127.89)"/><path class="cls-1" d="M-382.64,400.33c2.17-5.88,4.59-8.25,4.59-8.25s1,.48,3.53,1.4c2.73,1,4.45,1.54,4.45,1.54-2.91.74-5.95,2.1-7.58,6.53-1.13,3.05-1.35,5.77,1.57,6.84,2.28.84,3.64-.31,5.63-2.07l3.47-3c3.28-2.83,6.78-4.75,11.48-3,6.15,2.27,7.71,7.45,4.91,15.07-2,5.42-4.37,7.76-4.37,7.76s-1.06-.49-3.66-1.45-4.23-1.46-4.23-1.46c3.32-.85,6-2.45,7.31-6.06,1.09-3,1-5.18-1.39-6.05-2.15-.79-3.45.49-5.72,2.45l-3,2.58c-3.61,3.18-6.94,4.9-11.95,3.05-7.53-2.77-7.62-9-5.07-15.9" transform="translate(755.16 -127.89)"/><path class="cls-1" d="M-391.25,421.07c1.9-3.67,2.64-5.31,2.64-5.31l.53.77c1.2,1.71,1.39,2.09,14.32,8.8,12.55,6.52,12.82,6.44,15,6.43h.94s-.85,1.42-2.8,5.17c-2,3.93-2.65,5.31-2.65,5.31l-.53-.77c-1.19-1.71-1.38-2.08-14.32-8.8-12.55-6.52-12.81-6.44-15-6.43H-394s.89-1.51,2.8-5.17m32.31,17.71c1.27-2.46,2.93-4.07,5.39-2.79s2.27,3.53.95,6.08-2.93,4.06-5.39,2.78-2.28-3.53-.95-6.07" transform="translate(755.16 -127.89)"/><path class="cls-1" d="M-669.18,500c-3-2.82-4.4-4-4.4-4l.89-.3c1.87-.65,2.38-.77,10.52-9.46l-8.68-8.14c-8.18,8.72-8.2,9.1-8.76,11.11l-.24.91s-1.21-1.27-4.23-4.1-4.39-4-4.39-4l.88-.3c2-.69,2.39-.77,12.36-11.41,9.67-10.32,9.66-10.59,10.25-12.71l.24-.9s1.18,1.23,4.26,4.12c3.23,3,4.36,3.95,4.36,3.95l-.88.31c-1.77.61-2.35.73-10,8.85l8.69,8.14c7.61-8.12,7.7-8.57,8.19-10.51l.25-.9s1.17,1.23,4.26,4.12,4.36,4,4.36,4l-.89.3c-1.94.65-2.38.76-12.35,11.4-9.68,10.32-9.67,10.6-10.25,12.71l-.25.91s-1.21-1.27-4.22-4.1" transform="translate(755.16 -127.89)"/><path class="cls-1" d="M-633.25,524.37c-3-1.82-5.59-3.24-5.59-3.24a3.45,3.45,0,0,0,2.91-1.83,34,34,0,0,0,2.31-6.49l.6-2-8.5-5.11-1.51,1.47a36.46,36.46,0,0,0-4.69,5.07,3.45,3.45,0,0,0-.24,3.43s-1.87-1.24-4.66-2.92-4.55-2.62-4.55-2.62c2.44-.57,4.75-2.7,9.89-7.49l15.36-14.42a7.5,7.5,0,0,0,1.17-1.39,1.38,1.38,0,0,0,.24-1.05l12.29,7.38a1.75,1.75,0,0,0-.78.73,7.32,7.32,0,0,0-.72,1.66l-5.9,20.1c-2,6.76-2.78,9.73-2.14,12.16,0,0-2.16-1.41-5.49-3.42m5.28-30.11c.62-2.07,1-3.12,1.16-3.44-.16.18-.82,1-2.49,2.64l-8.65,8.64,6.41,3.85Z" transform="translate(755.16 -127.89)"/><path class="cls-1" d="M-612.21,534.19c-5.86-2.24-8.2-4.69-8.2-4.69s.49-1,1.44-3.51c1.05-2.72,1.6-4.44,1.6-4.44.7,2.92,2,6,6.43,7.66,3.05,1.17,5.76,1.42,6.87-1.48.87-2.27-.27-3.65-2-5.66l-2.93-3.51c-2.79-3.31-4.67-6.83-2.88-11.51,2.34-6.13,7.54-7.63,15.13-4.73,5.4,2.07,7.71,4.46,7.71,4.46s-.51,1.05-1.5,3.64-1.5,4.21-1.5,4.21c-.81-3.32-2.39-6-6-7.38-3-1.13-5.17-1-6.07,1.32-.81,2.14.45,3.45,2.38,5.75l2.55,3c3.13,3.65,4.82,7,2.91,12-2.86,7.49-9.06,7.52-16,4.88" transform="translate(755.16 -127.89)"/><path class="cls-1" d="M-565.83,546.16c-3.49-.66-6.37-1.11-6.37-1.11a3.42,3.42,0,0,0,2.1-2.72,34,34,0,0,0-.07-6.89l-.14-2.11-9.74-1.85-.91,1.9a35.64,35.64,0,0,0-2.65,6.37,3.45,3.45,0,0,0,1,3.3s-2.18-.51-5.38-1.12-5.17-.89-5.17-.89c2.09-1.38,3.51-4.18,6.69-10.45l9.43-18.83a7.22,7.22,0,0,0,.63-1.72,1.32,1.32,0,0,0-.15-1.06l14.09,2.69a1.77,1.77,0,0,0-.48.94,7.48,7.48,0,0,0-.1,1.82l1.41,20.9c.49,7,.74,10.09,2.18,12.14,0,0-2.51-.58-6.33-1.31m-5.44-30.08c-.13-2.15-.12-3.29-.1-3.63-.09.23-.43,1.2-1.43,3.34l-5.14,11.09,7.36,1.4Z" transform="translate(755.16 -127.89)"/><path class="cls-1" d="M-518.66,513.64c-.89,1.72-1.17,2.21-.86,16.79l.36,17.1s-1.37-.07-4.38,0c-3.25.07-5.78.22-5.78.22l-11.61-23a25.64,25.64,0,0,1-1.44-3.71l.21,9.86c.3,14.14.49,14.33,1.55,16.25l.46.82s-1.46-.07-4.67,0c-3.4.07-4.76.2-4.76.2l.42-.84c.84-1.72,1.17-2.21.87-16.78-.3-14.14-.5-14.33-1.56-16.25l-.45-.82s1.79.06,6.22,0c3.69-.08,5.58-.22,5.58-.22l11.61,22.94a22.81,22.81,0,0,1,1.44,3.71l-.2-9.81c-.3-14.14-.5-14.33-1.56-16.25l-.46-.82s1.46.07,4.67,0c3.4-.07,4.76-.19,4.76-.19Z" transform="translate(755.16 -127.89)"/><path class="cls-1" d="M-464.81,534.45c-3.37,1.11-6.11,2.11-6.11,2.11a3.46,3.46,0,0,0,.52-3.4,34.08,34.08,0,0,0-3.39-6l-1.14-1.78-9.43,3.09.13,2.11a35.46,35.46,0,0,0,.76,6.85,3.45,3.45,0,0,0,2.43,2.43s-2.15.6-5.25,1.62-4.95,1.72-4.95,1.72c1.16-2.22,1.05-5.35.8-12.38l-.86-21.05a7.49,7.49,0,0,0-.28-1.8,1.38,1.38,0,0,0-.64-.86l13.62-4.46a1.87,1.87,0,0,0,0,1.06,7.45,7.45,0,0,0,.79,1.63L-466.42,523c3.83,5.91,5.53,8.47,7.79,9.57,0,0-2.48.71-6.18,1.92m-19.32-23.69a35.85,35.85,0,0,1-1.84-3.13c0,.24.21,1.26.36,3.61l.88,12.2,7.11-2.33Z" transform="translate(755.16 -127.89)"/><path class="cls-1" d="M-439.56,495.88l5.39,23.53s-1.91,1-5.18,2.78-5.26,3-5.26,3l-17.11-17c-5-5-7.26-7.13-9.68-7.78,0,0,1.62-.8,5.69-3.07,4.28-2.39,5.85-3.38,5.85-3.38a3.46,3.46,0,0,0,.13,3.44c.83,1.48,2.93,3.54,5.49,6.23l11.92,12.38c.91.94,1.79,2.12,1.95,2.31-.07-.13-.5-1.5-.87-2.86l-4.26-16.71c-1-3.63-1.64-6.43-2.47-7.91a3.44,3.44,0,0,0-2.85-1.92s1.7-.84,5.18-2.78c3.31-1.85,4.62-2.69,4.62-2.69-.72,2.4-.12,5.47,1.46,12.38" transform="translate(755.16 -127.89)"/><path class="cls-1" d="M-405.49,499.06c-9.71,8-17.95,5.67-24.32-2.05-7.86-9.52-6.5-18.27,2.12-25.38,4.95-4.09,7.8-4.61,7.8-4.61s.57.85,2.49,3.18c1.64,2,2.8,3.23,2.8,3.23-3.53-1-6-1.23-9.37,1.56-5,4.11-3.79,10.37.91,16.07,5,6.07,10.21,7.64,15.09,3.62,3.41-2.81,3.69-5.44,3.39-9.1,0,0,.91,1.26,2.83,3.59,1.76,2.13,2.52,2.9,2.52,2.9s-1.47,3-6.26,7" transform="translate(755.16 -127.89)"/><path class="cls-1" d="M-390,483.65c-2.82,3-4,4.39-4,4.39l-.31-.88c-.68-2-.76-2.38-11.4-12.36-10.32-9.67-10.59-9.66-12.71-10.24l-.9-.25s1.2-1.14,4.09-4.22,4-4.4,4-4.4l.31.89c.68,2,.76,2.38,11.4,12.35,10.32,9.67,10.6,9.66,12.71,10.25l.91.24s-1.27,1.22-4.1,4.23" transform="translate(755.16 -127.89)"/><path class="cls-1" d="M-382.59,459.5a5.52,5.52,0,0,1-7.94,1.88,5.53,5.53,0,0,1-2-7.92,5.48,5.48,0,0,1,7.9-1.86,5.53,5.53,0,0,1,2,7.9m-9.2-5.6a4.64,4.64,0,0,0,1.81,6.58,4.62,4.62,0,0,0,6.65-1.42c1.47-2.42.56-5.1-1.83-6.56s-5.16-1-6.63,1.4m8.56,2.38a1.67,1.67,0,0,1-1.84.92l-1-.06c-.87,0-1.1-.07-1.28.23l-.07.12c2,1.23,2.06,1.18,2.47,1.21h.19l-.64,1-.62,1.05-.09-.17c-.21-.34-.25-.44-2.8-2s-2.51-1.48-3-1.51h-.18l.51-.8.75-1.27c.83-1.37,1.76-2.58,3.18-1.71A1.88,1.88,0,0,1-387,456c.46-.56.84-.63,1.72-.55l1.26.12a1.61,1.61,0,0,0,1.08-.16s0,.27-.33.9m-6.75-.75a1.53,1.53,0,0,0-.17.32l1.87,1.14a2.48,2.48,0,0,0,.22-.34,1.57,1.57,0,0,0,.2-.46c.14-.4,0-.79-.54-1.14-.79-.48-1.18-.18-1.58.48" transform="translate(755.16 -127.89)"/><path class="cls-1" d="M-682.73,459.51a5.52,5.52,0,0,1-7.94,1.88,5.54,5.54,0,0,1-2-7.93,5.49,5.49,0,0,1,7.91-1.85,5.52,5.52,0,0,1,2,7.9" transform="translate(755.16 -127.89)"/><path class="cls-1" d="M-645.7,440.58l6.25-2.26,2.09,2.12L-644,442.3Zm3.34,3.4,6.25-2.27,2.09,2.13-6.63,1.87Z" transform="translate(755.16 -127.89)"/><path class="cls-1" d="M-634.88,423.93l1.87,2.25c-5.11,2-10.44,4.08-15.66,6a14.82,14.82,0,0,1,4.3,2.05l-1.53,2.25a10.84,10.84,0,0,0-6.8-2.36l-2.12-2.56c6.51-2.38,13.48-5.08,19.94-7.66" transform="translate(755.16 -127.89)"/><path class="cls-1" d="M-658.23,415.48c5-3.38,14-4.78,17.65.6a5.94,5.94,0,0,1,.59,5.71l-2.71-.86a3.43,3.43,0,0,0-.26-3.55c-1.69-2.49-6.14-2.72-10.12-1.33a6,6,0,0,1,4.87,2.55,4.78,4.78,0,0,1-1.67,6.62c-3.39,2.31-8.18,1.9-10.56-1.59-1.64-2.43-1.2-5.83,2.21-8.15m2.37,1.87c-.21.11-.4.24-.6.37-1.61,1.1-2.64,3-1.53,4.62,1.23,1.8,4.2,2.07,6.31.66a2.45,2.45,0,0,0,.9-3.66c-.87-1.28-2.86-2.09-5.08-2" transform="translate(755.16 -127.89)"/><path class="cls-1" d="M-667.12,402.24a6.54,6.54,0,0,1,7,1.49,5.61,5.61,0,0,1,2.87-4c3.31-1.73,7.1,0,9,3.55,1.59,3,1,6-1.76,7.47-3,1.57-6.26.18-8.47-1.94a4.91,4.91,0,0,1-2.8,3.22,6.22,6.22,0,0,1-7.88-3.21,4.62,4.62,0,0,1,2-6.57m1.45,2.55a2.25,2.25,0,0,0-1,3.26,3.2,3.2,0,0,0,4.21,1.34,4,4,0,0,0,1.81-3c-1.78-1.73-3.75-2.24-5-1.57m7.76,1.41c1.85,2,4.15,3.18,6.09,2.19,1.69-.85,2-2.51,1.12-4.18a3.86,3.86,0,0,0-5.16-1.81c-1.4.74-1.75,2.18-2,3.8" transform="translate(755.16 -127.89)"/><path class="cls-1" d="M-658.77,397.32c-5.88,2.25-14.82,1.15-16.88-4.22-1-2.59.34-5.51,4.43-7.08,5.49-2.1,14.42-1.69,16.68,4.22,1,2.66-.24,5.55-4.23,7.08m-11.07-8.69c-2.41.86-3.59,2.29-3,3.83,1.28,3.37,8.52,3.87,13,2.18,2.23-.85,3.24-2.21,2.63-3.81-1.28-3.34-8.35-3.74-12.59-2.2" transform="translate(755.16 -127.89)"/><polygon class="cls-1" points="84.16 255.09 77.58 254.14 76.74 251.28 83.47 252.75 84.16 255.09"/><path class="cls-1" d="M-670.13,366.26c2.37.45,6.53,1.94,7.13,4.36v0a2,2,0,0,1-1.21,2.42,3.37,3.37,0,0,1,2.36,2.45c.42,1.76-.75,3.21-3,3.75-3.35.79-7.36-.73-8-3.56a3,3,0,0,1,.74-2.71c-2.48-.26-5-.47-7.45-.68l-.63-2.62c12,1.42,14.86,1.8,14.61.72s-2.53-2.12-5.47-2.75Zm0,7a1.89,1.89,0,0,0-.47,1.71c.4,1.66,3,2.22,5,1.76.8-.19,1.4-.71,1.21-1.52-.26-1.11-2.12-1.76-5.69-1.95" transform="translate(755.16 -127.89)"/><path class="cls-1" d="M-671.37,356.51c3.17,1,6.34,2.16,7,6.64.4,2.54-.73,4.73-3.39,5.15-3.36.52-6.91-1.24-7.43-4.57a3,3,0,0,1,2.54-3.57c3-.47,4.94,2.75,4.75,5.43,1-.34,1.5-1.18,1.27-2.66-.39-2.49-1.93-3.8-5.85-5.05Zm1.88,9.28c-.07-1.67-1.24-3.43-2.65-3.24a.89.89,0,0,0-.87,1c.2,1.28,1.75,2.14,3.52,2.21" transform="translate(755.16 -127.89)"/><path class="cls-1" d="M-669.55,346.28c1.49.69,3.76,2.57,3.92,4.72a2.14,2.14,0,0,1-2.1,2.52c-2,.15-4.33-1.6-5.54-1.5-.41,0-.69.2-.65.67.16,2.07,5.58,3.71,8.48,4.27l.2,2.69c-3.49-.91-7-1.79-10.49-2.72l-.2-2.61,2.18.56a4.31,4.31,0,0,1-2.65-3.35,2.07,2.07,0,0,1,1.93-2.28c1.86-.17,4.68,1.67,5.79,1.59.33,0,.53-.2.51-.48-.05-.65-1.36-1.75-2.71-2.53Z" transform="translate(755.16 -127.89)"/><path class="cls-1" d="M-672.08,332.69a4.28,4.28,0,0,1,4-2.93c3.36.22,5,4,4.78,7.94a15.48,15.48,0,0,1-2.45,7.3l-2.37-1.45a14.09,14.09,0,0,0,1-1.58c-3.75-1.51-7.48-3.16-11.23-4.62l.19-3,4.42,1.84c.29-3.56-1-7.07-3.73-7.25-2.18-.14-3.46,2.08-3.61,4.41a11.63,11.63,0,0,0,1.27,6l-2.48,1a13.41,13.41,0,0,1-1.46-7.11c.27-4.19,2.75-7.46,6.14-7.24,2.89.19,5.2,3.07,5.59,6.7m3.81.1c-1.63-.11-3,2.11-3.28,4.41,1.82.76,3.62,1.5,5.45,2.17a9.41,9.41,0,0,0,.39-2.08c.16-2.35-.78-4.41-2.56-4.5" transform="translate(755.16 -127.89)"/><path class="cls-1" d="M-668.53,313.82c2,1.33,5.29,4.34,4.88,6.8a2,2,0,0,1-2.4,1.65,4.1,4.1,0,0,1,1.52,3.67c-.45,2.71-3.52,2.85-10.4-1.58l.44-2.68c5.13,3.3,7.48,4.16,7.7,2.83s-1.81-2.72-7.23-5.67l.45-2.71c5.65,3.17,7.44,4.29,7.61,3.26s-1.51-2.93-4-4.65Z" transform="translate(755.16 -127.89)"/><path class="cls-1" d="M-665.48,302.87a12.05,12.05,0,0,1,4.94,8.32l.16.1c3.4,2.2,4.44,5,3.84,7.39-.48,1.86-1.77,2.95-3.35,2.54-2.84-.72-3.31-4.74-2.57-8.49l-1.83-1.21a3.36,3.36,0,0,1,.5,2.77,3,3,0,0,1-3.92,2.16c-3-.78-5.31-3.63-4.62-6.32a3.36,3.36,0,0,1,1.83-2.36l-.82-.54.65-2.56,7.9,5.1c-.52-2.17-1.69-4-4.2-6.08Zm-3.43,6a2.59,2.59,0,0,0-1.18,1.51c-.45,1.76,1.12,3,2.6,3.4a1.35,1.35,0,0,0,1.85-.95c.39-1.51-1.58-2.83-3.27-4m8.13,4.93c-.34,1.95-.07,4.56,1.19,4.88.53.14.87-.15,1-.81.31-1.2-.45-2.73-2.22-4.07" transform="translate(755.16 -127.89)"/><path class="cls-1" d="M-671.81,299.44a2.34,2.34,0,0,1-1.51-2.75,1.32,1.32,0,0,1,1.72-.83,2.41,2.41,0,0,1,1.51,2.76,1.26,1.26,0,0,1-1.72.82m1.5-4.28a2.31,2.31,0,0,1-1.51-2.75,1.31,1.31,0,0,1,1.71-.83,2.4,2.4,0,0,1,1.5,2.78,1.25,1.25,0,0,1-1.7.8m8.82-3c1.76,1.66,4.48,5.19,3.66,7.54a2,2,0,0,1-2.65,1.21,4.14,4.14,0,0,1,.88,3.88c-.91,2.59-4,2.21-10-3.32l.9-2.57c4.49,4.12,6.66,5.37,7.1,4.1s-1.32-3-6.16-6.82l.91-2.59c5,4.08,6.59,5.48,6.94,4.5s-1-3.14-3.14-5.26Z" transform="translate(755.16 -127.89)"/><path class="cls-1" d="M-656.81,291.32c-1.82-.81-3.06-3.46-4.17-3.95-.38-.17-.7-.15-.89.28-.84,1.89,3.15,5.91,5.44,7.78l-1.1,2.47c-2.65-2.46-5.31-4.9-8-7.38l1.07-2.39,1.64,1.53a4.41,4.41,0,0,1-.71-4.26,2,2,0,0,1,2.8-1c1.77.73,3.28,3.7,4.3,4.16a.51.51,0,0,0,.72-.28c.41-.92-.81-3.22-2.69-5.48l1.6-.54c1.61,1.8,4,5.52,3,7.89a2.14,2.14,0,0,1-3,1.22" transform="translate(755.16 -127.89)"/><path class="cls-1" d="M-649.82,277a7.81,7.81,0,0,1-.44,6.21c-1.22,2.26-3.45,3.33-5.82,2-3-1.61-4.75-5.16-3.15-8.12a3,3,0,0,1,4.19-1.31c2.66,1.45,2.26,5.18.5,7.2,1,.33,1.9,0,2.61-1.36s.37-3.34,0-4.57ZM-656,282.2c1-1.36,1.06-3.49-.13-4.16a.87.87,0,0,0-1.31.29c-.62,1.14.1,2.76,1.44,3.87" transform="translate(755.16 -127.89)"/><path class="cls-1" d="M-656.25,271.92l-3.6-5.58,1.6-2.52,3.31,6Zm2.57-4-3.6-5.61,1.6-2.51,3.3,6.06Z" transform="translate(755.16 -127.89)"/><path class="cls-2" d="M-645.7,440.58l6.25-2.26,2.09,2.12L-644,442.3Zm3.34,3.4,6.25-2.27,2.09,2.13-6.63,1.87Z" transform="translate(755.16 -127.89)"/><path class="cls-2" d="M-634.88,423.93l1.87,2.25c-5.11,2-10.44,4.08-15.66,6a14.82,14.82,0,0,1,4.3,2.05l-1.53,2.25a10.84,10.84,0,0,0-6.8-2.36l-2.12-2.56c6.51-2.38,13.48-5.08,19.94-7.66" transform="translate(755.16 -127.89)"/><path class="cls-2" d="M-658.23,415.48c5-3.38,14-4.78,17.65.6a5.94,5.94,0,0,1,.59,5.71l-2.71-.86a3.43,3.43,0,0,0-.26-3.55c-1.69-2.49-6.14-2.72-10.12-1.33a6,6,0,0,1,4.87,2.55,4.78,4.78,0,0,1-1.67,6.62c-3.39,2.31-8.18,1.9-10.56-1.59-1.64-2.43-1.2-5.83,2.21-8.15m2.37,1.87c-.21.11-.4.24-.6.37-1.61,1.1-2.64,3-1.53,4.62,1.23,1.8,4.2,2.07,6.31.66a2.45,2.45,0,0,0,.9-3.66c-.87-1.28-2.86-2.09-5.08-2" transform="translate(755.16 -127.89)"/><path class="cls-2" d="M-667.12,402.24a6.54,6.54,0,0,1,7,1.49,5.61,5.61,0,0,1,2.87-4c3.31-1.73,7.1,0,9,3.55,1.59,3,1,6-1.76,7.47-3,1.57-6.26.18-8.47-1.94a4.91,4.91,0,0,1-2.8,3.22,6.22,6.22,0,0,1-7.88-3.21,4.62,4.62,0,0,1,2-6.57m1.45,2.55a2.25,2.25,0,0,0-1,3.26,3.2,3.2,0,0,0,4.21,1.34,4,4,0,0,0,1.81-3c-1.78-1.73-3.75-2.24-5-1.57m7.76,1.41c1.85,2,4.15,3.18,6.09,2.19,1.69-.85,2-2.51,1.12-4.18a3.86,3.86,0,0,0-5.16-1.81c-1.4.74-1.75,2.18-2,3.8" transform="translate(755.16 -127.89)"/><path class="cls-2" d="M-658.77,397.32c-5.88,2.25-14.82,1.15-16.88-4.22-1-2.59.34-5.51,4.43-7.08,5.49-2.1,14.42-1.69,16.68,4.22,1,2.66-.24,5.55-4.23,7.08m-11.07-8.69c-2.41.86-3.59,2.29-3,3.83,1.28,3.37,8.52,3.87,13,2.18,2.23-.85,3.24-2.21,2.63-3.81-1.28-3.34-8.35-3.74-12.59-2.2" transform="translate(755.16 -127.89)"/><polygon class="cls-2" points="84.16 255.09 77.58 254.14 76.74 251.28 83.47 252.75 84.16 255.09"/><path class="cls-2" d="M-670.13,366.26c2.37.45,6.53,1.94,7.13,4.36v0a2,2,0,0,1-1.21,2.42,3.37,3.37,0,0,1,2.36,2.45c.42,1.76-.75,3.21-3,3.75-3.35.79-7.36-.73-8-3.56a3,3,0,0,1,.74-2.71c-2.48-.26-5-.47-7.45-.68l-.63-2.62c12,1.42,14.86,1.8,14.61.72s-2.53-2.12-5.47-2.75Zm0,7a1.89,1.89,0,0,0-.47,1.71c.4,1.66,3,2.22,5,1.76.8-.19,1.4-.71,1.21-1.52-.26-1.11-2.12-1.76-5.69-1.95" transform="translate(755.16 -127.89)"/><path class="cls-2" d="M-671.37,356.51c3.17,1,6.34,2.16,7,6.64.4,2.54-.73,4.73-3.39,5.15-3.36.52-6.91-1.24-7.43-4.57a3,3,0,0,1,2.54-3.57c3-.47,4.94,2.75,4.75,5.43,1-.34,1.5-1.18,1.27-2.66-.39-2.49-1.93-3.8-5.85-5.05Zm1.88,9.28c-.07-1.67-1.24-3.43-2.65-3.24a.89.89,0,0,0-.87,1c.2,1.28,1.75,2.14,3.52,2.21" transform="translate(755.16 -127.89)"/><path class="cls-2" d="M-669.55,346.28c1.49.69,3.76,2.57,3.92,4.72a2.14,2.14,0,0,1-2.1,2.52c-2,.15-4.33-1.6-5.54-1.5-.41,0-.69.2-.65.67.16,2.07,5.58,3.71,8.48,4.27l.2,2.69c-3.49-.91-7-1.79-10.49-2.72l-.2-2.61,2.18.56a4.31,4.31,0,0,1-2.65-3.35,2.07,2.07,0,0,1,1.93-2.28c1.86-.17,4.68,1.67,5.79,1.59.33,0,.53-.2.51-.48-.05-.65-1.36-1.75-2.71-2.53Z" transform="translate(755.16 -127.89)"/><path class="cls-2" d="M-672.08,332.69a4.28,4.28,0,0,1,4-2.93c3.36.22,5,4,4.78,7.94a15.48,15.48,0,0,1-2.45,7.3l-2.37-1.45a14.09,14.09,0,0,0,1-1.58c-3.75-1.51-7.48-3.16-11.23-4.62l.19-3,4.42,1.84c.29-3.56-1-7.07-3.73-7.25-2.18-.14-3.46,2.08-3.61,4.41a11.63,11.63,0,0,0,1.27,6l-2.48,1a13.41,13.41,0,0,1-1.46-7.11c.27-4.19,2.75-7.46,6.14-7.24,2.89.19,5.2,3.07,5.59,6.7m3.81.1c-1.63-.11-3,2.11-3.28,4.41,1.82.76,3.62,1.5,5.45,2.17a9.41,9.41,0,0,0,.39-2.08c.16-2.35-.78-4.41-2.56-4.5" transform="translate(755.16 -127.89)"/><path class="cls-2" d="M-668.53,313.82c2,1.33,5.29,4.34,4.88,6.8a2,2,0,0,1-2.4,1.65,4.1,4.1,0,0,1,1.52,3.67c-.45,2.71-3.52,2.85-10.4-1.58l.44-2.68c5.13,3.3,7.48,4.16,7.7,2.83s-1.81-2.72-7.23-5.67l.45-2.71c5.65,3.17,7.44,4.29,7.61,3.26s-1.51-2.93-4-4.65Z" transform="translate(755.16 -127.89)"/><path class="cls-2" d="M-665.48,302.87a12.05,12.05,0,0,1,4.94,8.32l.16.1c3.4,2.2,4.44,5,3.84,7.39-.48,1.86-1.77,2.95-3.35,2.54-2.84-.72-3.31-4.74-2.57-8.49l-1.83-1.21a3.36,3.36,0,0,1,.5,2.77,3,3,0,0,1-3.92,2.16c-3-.78-5.31-3.63-4.62-6.32a3.36,3.36,0,0,1,1.83-2.36l-.82-.54.65-2.56,7.9,5.1c-.52-2.17-1.69-4-4.2-6.08Zm-3.43,6a2.59,2.59,0,0,0-1.18,1.51c-.45,1.76,1.12,3,2.6,3.4a1.35,1.35,0,0,0,1.85-.95c.39-1.51-1.58-2.83-3.27-4m8.13,4.93c-.34,1.95-.07,4.56,1.19,4.88.53.14.87-.15,1-.81.31-1.2-.45-2.73-2.22-4.07" transform="translate(755.16 -127.89)"/><path class="cls-2" d="M-671.81,299.44a2.34,2.34,0,0,1-1.51-2.75,1.32,1.32,0,0,1,1.72-.83,2.41,2.41,0,0,1,1.51,2.76,1.26,1.26,0,0,1-1.72.82m1.5-4.28a2.31,2.31,0,0,1-1.51-2.75,1.31,1.31,0,0,1,1.71-.83,2.4,2.4,0,0,1,1.5,2.78,1.25,1.25,0,0,1-1.7.8m8.82-3c1.76,1.66,4.48,5.19,3.66,7.54a2,2,0,0,1-2.65,1.21,4.14,4.14,0,0,1,.88,3.88c-.91,2.59-4,2.21-10-3.32l.9-2.57c4.49,4.12,6.66,5.37,7.1,4.1s-1.32-3-6.16-6.82l.91-2.59c5,4.08,6.59,5.48,6.94,4.5s-1-3.14-3.14-5.26Z" transform="translate(755.16 -127.89)"/><path class="cls-2" d="M-656.81,291.32c-1.82-.81-3.06-3.46-4.17-3.95-.38-.17-.7-.15-.89.28-.84,1.89,3.15,5.91,5.44,7.78l-1.1,2.47c-2.65-2.46-5.31-4.9-8-7.38l1.07-2.39,1.64,1.53a4.41,4.41,0,0,1-.71-4.26,2,2,0,0,1,2.8-1c1.77.73,3.28,3.7,4.3,4.16a.51.51,0,0,0,.72-.28c.41-.92-.81-3.22-2.69-5.48l1.6-.54c1.61,1.8,4,5.52,3,7.89a2.14,2.14,0,0,1-3,1.22" transform="translate(755.16 -127.89)"/><path class="cls-2" d="M-649.82,277a7.81,7.81,0,0,1-.44,6.21c-1.22,2.26-3.45,3.33-5.82,2-3-1.61-4.75-5.16-3.15-8.12a3,3,0,0,1,4.19-1.31c2.66,1.45,2.26,5.18.5,7.2,1,.33,1.9,0,2.61-1.36s.37-3.34,0-4.57ZM-656,282.2c1-1.36,1.06-3.49-.13-4.16a.87.87,0,0,0-1.31.29c-.62,1.14.1,2.76,1.44,3.87" transform="translate(755.16 -127.89)"/><path class="cls-2" d="M-656.25,271.92l-3.6-5.58,1.6-2.52,3.31,6Zm2.57-4-3.6-5.61,1.6-2.51,3.3,6.06Z" transform="translate(755.16 -127.89)"/><path class="cls-2" d="M-477.7,463.25l-.49-1a132.93,132.93,0,0,0,61.76-66.39c28.58-67.43-3-145.54-70.45-174.12a133.12,133.12,0,0,0-156,39.77l-.84-.67a134.19,134.19,0,0,1,157.21-40.09c68,28.81,99.84,107.55,71,175.53a134,134,0,0,1-62.26,66.93" transform="translate(755.16 -127.89)"/><rect class="cls-3" width="434.3" height="434.29"/></svg>