<?xml version="1.0" encoding="utf-8"?>
<!-- Generator: Adobe Illustrator 24.2.3, SVG Export Plug-In . SVG Version: 6.00 Build 0)  -->
<svg version="1.1" id="katman_1" xmlns="http://www.w3.org/2000/svg" xmlns:xlink="http://www.w3.org/1999/xlink" x="0px" y="0px"
	 viewBox="0 0 91.1 31" style="enable-background:new 0 0 91.1 31;" xml:space="preserve">
<style type="text/css">
	.st0{fill:#FFFFFF;}
	.st1{fill:#E2CF28;}
</style>
<path class="st0" d="M26.2,20.2l1.3,0.7c-0.4,0.8-0.9,1.5-1.5,2s-1.2,0.9-1.9,1.2c-0.7,0.3-1.5,0.4-2.4,0.4c-2,0-3.5-0.6-4.6-1.9
	s-1.7-2.8-1.7-4.4c0-1.5,0.5-2.9,1.4-4.1c1.2-1.5,2.8-2.3,4.8-2.3c2.1,0,3.7,0.8,4.9,2.3c0.9,1.1,1.3,2.5,1.3,4.1H17
	c0,1.4,0.5,2.6,1.3,3.5c0.9,0.9,1.9,1.3,3.2,1.3c0.6,0,1.2-0.1,1.8-0.3c0.6-0.2,1.1-0.5,1.5-0.9C25.3,21.6,25.7,21,26.2,20.2z
	 M26.2,17c-0.2-0.8-0.5-1.5-0.9-2s-0.9-0.9-1.6-1.2s-1.3-0.5-2.1-0.5c-1.2,0-2.2,0.4-3.1,1.1c-0.5,0.6-1,1.4-1.3,2.6H26.2z"/>
<path class="st0" d="M30.6,12.1h1.6v1.8c0.5-0.7,1-1.2,1.5-1.6c0.5-0.3,1.1-0.5,1.6-0.5c0.4,0,0.9,0.1,1.4,0.4l-0.8,1.3
	c-0.3-0.1-0.6-0.2-0.8-0.2c-0.5,0-1,0.2-1.5,0.6s-0.8,1.1-1.1,2c-0.2,0.7-0.3,2.1-0.3,4.2v4.1h-1.6C30.6,24.2,30.6,12.1,30.6,12.1z"
	/>
<path class="st0" d="M41.7,12.1h1.6l3.7,8.8l3.9-8.8h0.3l3.9,8.8l3.8-8.8h1.6l-5.2,12.1H55l-4-8.6l-3.9,8.6h-0.3L41.7,12.1z"/>
<path class="st0" d="M72.8,20.2l1.3,0.7c-0.4,0.8-0.9,1.5-1.5,2s-1.2,0.9-1.9,1.2c-0.7,0.3-1.5,0.4-2.4,0.4c-2,0-3.5-0.6-4.6-1.9
	S62,19.8,62,18.2c0-1.5,0.5-2.9,1.4-4.1c1.2-1.5,2.8-2.3,4.8-2.3c2.1,0,3.7,0.8,4.9,2.3c0.9,1.1,1.3,2.5,1.3,4.1H63.6
	c0,1.4,0.5,2.6,1.3,3.5c0.9,0.9,1.9,1.3,3.2,1.3c0.6,0,1.2-0.1,1.8-0.3c0.6-0.2,1.1-0.5,1.5-0.9C71.9,21.6,72.3,21,72.8,20.2z
	 M72.8,17c-0.2-0.8-0.5-1.5-0.9-2s-0.9-0.9-1.6-1.2s-1.3-0.5-2.1-0.5c-1.2,0-2.2,0.4-3.1,1.1c-0.6,0.6-1.1,1.4-1.4,2.5L72.8,17
	L72.8,17z"/>
<path class="st0" d="M84.2,23L84.2,23c-1.4,0-2.6-0.5-3.5-1.4s-1.4-2.1-1.4-3.5c0-0.9,0.2-1.7,0.6-2.5c0.4-0.7,1-1.3,1.8-1.7
	s1.6-0.6,2.4-0.6s1.6,0.2,2.4,0.6c0.7,0.4,1.3,1,1.8,1.8c0.4,0.8,0.7,1.6,0.7,2.5v0.1h1.6v-0.1c0-1.8-0.6-3.3-1.8-4.5
	c-1.2-1.2-2.7-1.9-4.4-1.9c-1,0-1.8,0.2-2.7,0.6c-0.8,0.4-1.5,1-2.2,1.8V7.5h-1.6v16.7h1.6V22c0.6,0.8,1.3,1.5,2.1,1.9
	c0.8,0.4,1.7,0.6,2.7,0.6l0,0L84.2,23L84.2,23z"/>
<polygon class="st0" points="9.7,17 8.2,20.5 2.7,7.9 1,7.9 8,24.2 8.3,24.2 11.5,17 "/>
<polygon class="st1" points="11.5,17 15.4,7.9 13.7,7.9 9.7,17 "/>
<path class="st0" d="M41.7,12.1h1.6l3.7,8.8l3.9-8.8h0.3l3.9,8.8l3.8-8.8h1.6l-5.2,12.1H55l-4-8.6l-3.9,8.6h-0.3L41.7,12.1z"/>
<path class="st1" d="M88.9,18.2c0,0.9-0.2,1.7-0.6,2.4c-0.4,0.8-1,1.4-1.7,1.8C85.8,22.8,85,23,84.1,23v1.5h0.1
	c1.7,0,3.2-0.6,4.4-1.9c1.2-1.2,1.8-2.7,1.8-4.5l0,0h-1.5V18.2z"/>
<polygon class="st1" points="39.7,15.5 39.7,12.1 38.2,12.1 38.2,16.1 "/>
<polygon class="st0" points="38.2,17.3 38.2,24.2 39.7,24.2 39.7,16.7 "/>
</svg>
